<?xml version="1.0" encoding="utf-8"?>
<!-- Generator: Adobe Illustrator 26.5.0, SVG Export Plug-In . SVG Version: 6.00 Build 0)  -->
<svg version="1.1" id="Layer_1" xmlns="http://www.w3.org/2000/svg" xmlns:xlink="http://www.w3.org/1999/xlink" x="0px" y="0px"
	 viewBox="0 0 324.2 29.8" style="enable-background:new 0 0 324.2 29.8;" xml:space="preserve">
<style type="text/css">
	.st0{fill:#006381;}
</style>
<g>
	<path class="st0" d="M1.9,7.5C3.1,5.3,4.8,3.6,7,2.4c2.2-1.2,4.6-1.8,7.2-1.8c3.1,0,5.9,0.8,8.2,2.4c2.4,1.6,4,3.8,4.9,6.7h-6.5
		c-0.6-1.3-1.5-2.3-2.7-3s-2.5-1-4-1c-1.6,0-3.1,0.4-4.4,1.1c-1.3,0.8-2.3,1.8-3,3.2c-0.7,1.4-1.1,3-1.1,4.9c0,1.8,0.4,3.5,1.1,4.9
		c0.7,1.4,1.7,2.5,3,3.3s2.7,1.1,4.4,1.1c1.5,0,2.9-0.3,4-1c1.2-0.7,2.1-1.7,2.7-3h6.5c-0.9,2.9-2.6,5.1-4.9,6.7
		c-2.3,1.6-5.1,2.4-8.2,2.4c-2.7,0-5.1-0.6-7.2-1.8c-2.2-1.2-3.9-2.9-5.1-5.1S0,17.7,0,14.9S0.6,9.7,1.9,7.5z"/>
	<path class="st0" d="M37.8,5.5v7h9.4V17h-9.4v7.4h10.6v4.6H32.2v-28h16.3v4.6H37.8z"/>
	<path class="st0" d="M68,28.9L61.8,18h-2.6v10.9h-5.6v-28H64c2.2,0,4,0.4,5.5,1.1c1.5,0.8,2.7,1.8,3.4,3.1c0.8,1.3,1.1,2.7,1.1,4.4
		c0,1.8-0.5,3.5-1.6,5c-1.1,1.5-2.7,2.5-4.8,3.1l6.7,11.4H68z M59.1,13.8h4.7c1.5,0,2.7-0.4,3.4-1.1C68,12,68.4,11,68.4,9.6
		c0-1.3-0.4-2.3-1.1-3c-0.7-0.7-1.9-1.1-3.4-1.1h-4.7V13.8z"/>
	<path class="st0" d="M98.3,0.9v4.5h-7.5v23.5h-5.6V5.5h-7.5V0.9H98.3z"/>
	<path class="st0" d="M108,0.9v28h-5.6v-28H108z"/>
	<path class="st0" d="M130.9,0.9v4.5h-11.7v7.2h9v4.5h-9v11.8h-5.6v-28H130.9z"/>
	<path class="st0" d="M140.4,0.9v28h-5.6v-28H140.4z"/>
	<path class="st0" d="M146.5,7.5c1.2-2.2,2.9-3.9,5.1-5.1c2.2-1.2,4.6-1.8,7.2-1.8c3.1,0,5.9,0.8,8.2,2.4c2.4,1.6,4,3.8,4.9,6.7
		h-6.5c-0.6-1.3-1.5-2.3-2.7-3c-1.2-0.7-2.5-1-4-1c-1.6,0-3.1,0.4-4.4,1.1c-1.3,0.8-2.3,1.8-3,3.2c-0.7,1.4-1.1,3-1.1,4.9
		c0,1.8,0.4,3.5,1.1,4.9c0.7,1.4,1.7,2.5,3,3.3c1.3,0.8,2.7,1.1,4.4,1.1c1.5,0,2.9-0.3,4-1c1.2-0.7,2.1-1.7,2.7-3h6.5
		c-0.9,2.9-2.6,5.1-4.9,6.7c-2.3,1.6-5.1,2.4-8.2,2.4c-2.7,0-5.1-0.6-7.2-1.8c-2.2-1.2-3.9-2.9-5.1-5.1c-1.2-2.2-1.9-4.6-1.9-7.4
		S145.2,9.7,146.5,7.5z"/>
	<path class="st0" d="M194,23.6h-11.2l-1.8,5.3h-5.9l10.1-28h6.5l10.1,28h-5.9L194,23.6z M192.5,19.1l-4.1-11.7l-4.1,11.7H192.5z"/>
	<path class="st0" d="M224.6,0.9v4.5h-7.5v23.5h-5.6V5.5H204V0.9H224.6z"/>
	<path class="st0" d="M234.3,0.9v28h-5.6v-28H234.3z"/>
	<path class="st0" d="M245.6,27.4c-2.2-1.2-3.9-2.9-5.2-5.1c-1.3-2.2-1.9-4.6-1.9-7.4c0-2.7,0.6-5.2,1.9-7.4c1.3-2.2,3-3.9,5.2-5.1
		c2.2-1.2,4.6-1.8,7.2-1.8c2.6,0,5.1,0.6,7.2,1.8s3.9,2.9,5.2,5.1s1.9,4.6,1.9,7.4c0,2.8-0.6,5.2-1.9,7.4s-3,3.9-5.2,5.1
		c-2.2,1.2-4.6,1.8-7.2,1.8C250.2,29.2,247.8,28.6,245.6,27.4z M257.3,23.1c1.3-0.8,2.3-1.9,3-3.3c0.7-1.4,1.1-3.1,1.1-4.9
		c0-1.9-0.4-3.5-1.1-4.9s-1.7-2.5-3-3.2c-1.3-0.7-2.8-1.1-4.5-1.1c-1.7,0-3.2,0.4-4.5,1.1c-1.3,0.8-2.3,1.8-3,3.2
		c-0.7,1.4-1.1,3-1.1,4.9c0,1.9,0.4,3.5,1.1,4.9c0.7,1.4,1.7,2.5,3,3.3c1.3,0.8,2.8,1.1,4.5,1.1C254.5,24.2,256,23.8,257.3,23.1z"/>
	<path class="st0" d="M295.3,28.9h-5.6L277,9.7v19.2h-5.6v-28h5.6l12.7,19.3V0.9h5.6V28.9z"/>
	<path class="st0" d="M305.2,28.2c-1.6-0.7-2.8-1.6-3.7-2.9c-0.9-1.3-1.4-2.7-1.4-4.5h6c0.1,1.2,0.5,2.1,1.2,2.7c0.7,0.7,1.7,1,3,1
		c1.3,0,2.3-0.3,3.1-0.9c0.7-0.6,1.1-1.4,1.1-2.5c0-0.8-0.3-1.5-0.8-2c-0.5-0.5-1.1-1-1.9-1.3c-0.8-0.3-1.8-0.6-3.2-1
		c-1.8-0.5-3.3-1.1-4.4-1.6c-1.1-0.5-2.1-1.3-2.9-2.4c-0.8-1.1-1.2-2.5-1.2-4.2c0-1.7,0.4-3.1,1.2-4.3s2-2.2,3.5-2.8
		c1.5-0.7,3.2-1,5.1-1c2.9,0,5.2,0.7,7,2.1c1.8,1.4,2.8,3.4,3,5.9h-6.2c-0.1-1-0.5-1.8-1.2-2.4c-0.8-0.6-1.8-0.9-3-0.9
		c-1.1,0-2,0.3-2.6,0.8c-0.7,0.6-1,1.4-1,2.4c0,0.8,0.2,1.4,0.7,1.9c0.5,0.5,1.1,0.9,1.8,1.2c0.7,0.3,1.8,0.7,3.1,1.1
		c1.8,0.5,3.3,1.1,4.5,1.6c1.1,0.5,2.1,1.3,3,2.4c0.8,1.1,1.2,2.5,1.2,4.2c0,1.5-0.4,2.9-1.2,4.2c-0.8,1.3-1.9,2.3-3.4,3.1
		c-1.5,0.8-3.3,1.1-5.3,1.1C308.6,29.2,306.8,28.9,305.2,28.2z"/>
</g>
</svg>
