<?xml version="1.0" encoding="utf-8"?>
<!-- Generator: Adobe Illustrator 26.5.0, SVG Export Plug-In . SVG Version: 6.00 Build 0)  -->
<svg version="1.1" id="Layer_1" xmlns="http://www.w3.org/2000/svg" xmlns:xlink="http://www.w3.org/1999/xlink" x="0px" y="0px"
	 viewBox="0 0 670.3 62.2" style="enable-background:new 0 0 670.3 62.2;" xml:space="preserve">
<style type="text/css">
	.st0{fill:#006381;}
</style>
<g>
	<path class="st0" d="M37.4,45.1H16.8L13.4,55H2.5L21.1,3.1h12.1l18.6,51.8h-11L37.4,45.1z M34.6,36.8l-7.5-21.6l-7.5,21.6H34.6z"/>
	<path class="st0" d="M69.1,46.7h17v8.2H58.7V3.2h10.4V46.7z"/>
	<path class="st0" d="M125.1,6.4c4.1,2.1,7.3,5.1,9.6,9.1c2.2,3.9,3.4,8.5,3.4,13.7s-1.1,9.7-3.4,13.6c-2.2,3.9-5.4,6.9-9.6,9
		c-4.1,2.1-8.9,3.2-14.3,3.2H92.7V3.2h18.1C116.2,3.2,121,4.3,125.1,6.4z M123,41.7c3-3,4.4-7.1,4.4-12.5s-1.5-9.6-4.4-12.6
		c-3-3-7.2-4.6-12.6-4.6h-7.3v34.1h7.3C115.9,46.1,120.1,44.6,123,41.7z"/>
	<path class="st0" d="M172.5,54.9l-11.4-20.1h-4.9v20.1h-10.4V3.2h19.4c4,0,7.4,0.7,10.2,2.1s4.9,3.3,6.3,5.7c1.4,2.4,2.1,5.1,2.1,8
		c0,3.4-1,6.5-3,9.2s-4.9,4.6-8.8,5.7l12.4,21H172.5z M156.2,27h8.7c2.8,0,4.9-0.7,6.3-2c1.4-1.4,2.1-3.2,2.1-5.7
		c0-2.4-0.7-4.2-2.1-5.5c-1.4-1.3-3.5-2-6.3-2h-8.7V27z"/>
	<path class="st0" d="M203.7,3.2v51.7h-10.4V3.2H203.7z"/>
	<path class="st0" d="M214.8,15.3c2.3-4,5.4-7.2,9.4-9.4s8.4-3.4,13.4-3.4c5.8,0,10.8,1.5,15.2,4.4c4.3,3,7.4,7.1,9.1,12.3H250
		c-1.2-2.5-2.9-4.3-5-5.6c-2.1-1.2-4.6-1.9-7.4-1.9c-3,0-5.7,0.7-8,2.1s-4.2,3.4-5.5,6s-2,5.6-2,9s0.7,6.4,2,9
		c1.3,2.6,3.1,4.6,5.5,6c2.3,1.4,5,2.1,8,2.1c2.8,0,5.3-0.6,7.4-1.9s3.8-3.1,5-5.6h11.9c-1.7,5.3-4.8,9.4-9.1,12.3
		c-4.3,2.9-9.4,4.4-15.2,4.4c-4.9,0-9.4-1.1-13.4-3.4c-4-2.2-7.1-5.4-9.4-9.4c-2.3-4-3.4-8.5-3.4-13.6
		C211.4,23.9,212.5,19.3,214.8,15.3z"/>
	<path class="st0" d="M313.7,3.2v51.7h-10.4v-22h-22.1v22h-10.4V3.2h10.4v21.3h22.1V3.2H313.7z"/>
	<path class="st0" d="M372.9,45.1h-20.6l-3.4,9.9H338l18.6-51.8h12.1L387.2,55h-11L372.9,45.1z M370.1,36.8l-7.5-21.6l-7.5,21.6
		H370.1z"/>
	<path class="st0" d="M463.2,3.2l-14.4,51.7h-12.2L427,18.1l-10.1,36.8L404.8,55L390.7,3.2h11.1l9.1,40.1l10.5-40.1H433l9.9,39.9
		l9.2-39.9H463.2z"/>
	<path class="st0" d="M501.8,45.1h-20.6l-3.4,9.9h-10.9l18.6-51.8h12.1L516.2,55h-11L501.8,45.1z M499,36.8l-7.5-21.6L484,36.8H499z
		"/>
	<path class="st0" d="M549.8,54.9l-11.4-20.1h-4.9v20.1h-10.4V3.2h19.4c4,0,7.4,0.7,10.2,2.1s4.9,3.3,6.3,5.7c1.4,2.4,2.1,5.1,2.1,8
		c0,3.4-1,6.5-3,9.2s-4.9,4.6-8.8,5.7l12.4,21L549.8,54.9L549.8,54.9z M533.5,27h8.7c2.8,0,4.9-0.7,6.3-2c1.4-1.4,2.1-3.2,2.1-5.7
		c0-2.4-0.7-4.2-2.1-5.5c-1.4-1.3-3.5-2-6.3-2h-8.7V27z"/>
	<path class="st0" d="M603,6.4c4.1,2.1,7.3,5.1,9.6,9.1c2.2,3.9,3.4,8.5,3.4,13.7s-1.1,9.7-3.4,13.6c-2.2,3.9-5.4,6.9-9.6,9
		c-4.1,2.1-8.9,3.2-14.3,3.2h-18.1V3.2h18.1C594.1,3.2,598.8,4.3,603,6.4z M600.8,41.7c3-3,4.4-7.1,4.4-12.5s-1.5-9.6-4.4-12.6
		c-3-3-7.2-4.6-12.6-4.6H581v34.1h7.3C593.7,46.1,597.8,44.6,600.8,41.7z"/>
	<path class="st0" d="M631.8,53.6c-2.9-1.2-5.2-3-6.9-5.3c-1.7-2.3-2.5-5.1-2.6-8.2h11.1c0.1,2.1,0.9,3.8,2.3,5
		c1.4,1.2,3.2,1.9,5.6,1.9s4.3-0.6,5.7-1.7c1.4-1.2,2.1-2.7,2.1-4.6c0-1.5-0.5-2.8-1.4-3.8s-2.1-1.8-3.5-2.3
		c-1.4-0.6-3.3-1.2-5.8-1.9c-3.4-1-6.1-2-8.2-2.9c-2.1-1-3.9-2.4-5.4-4.4s-2.3-4.6-2.3-7.8c0-3.1,0.8-5.7,2.3-8s3.7-4,6.4-5.2
		c2.8-1.2,5.9-1.8,9.5-1.8c5.3,0,9.7,1.3,13,3.9s5.2,6.2,5.5,10.9h-11.4c-0.1-1.8-0.9-3.2-2.3-4.4c-1.4-1.2-3.3-1.7-5.6-1.7
		c-2,0-3.6,0.5-4.9,1.6c-1.2,1-1.8,2.5-1.8,4.5c0,1.4,0.5,2.5,1.4,3.4s2,1.7,3.4,2.2c1.4,0.6,3.3,1.2,5.7,2c3.4,1,6.1,2,8.2,3
		c2.1,1,4,2.5,5.5,4.4c1.5,2,2.3,4.6,2.3,7.8c0,2.8-0.7,5.3-2.1,7.7c-1.4,2.4-3.5,4.3-6.3,5.7s-6,2.1-9.9,2.1
		C637.8,55.5,634.7,54.8,631.8,53.6z"/>
</g>
</svg>
