<?xml version="1.0" encoding="utf-8"?>
<!-- Generator: Adobe Illustrator 26.5.0, SVG Export Plug-In . SVG Version: 6.00 Build 0)  -->
<svg version="1.1" id="Layer_1" xmlns="http://www.w3.org/2000/svg" xmlns:xlink="http://www.w3.org/1999/xlink" x="0px" y="0px"
	 viewBox="0 0 324.2 29.8" style="enable-background:new 0 0 324.2 29.8;" xml:space="preserve">
<style type="text/css">
	.st0{fill:#006381;}
</style>
<g>
	<path class="st0" d="M19.2,13.8c-0.7,1.3-1.8,2.4-3.3,3.2c-1.5,0.8-3.4,1.2-5.7,1.2H5.6v10.7H0V1h10.3c2.2,0,4,0.4,5.5,1.1
		c1.5,0.7,2.7,1.8,3.4,3.1s1.1,2.8,1.1,4.4C20.3,11.1,20,12.5,19.2,13.8z M13.4,12.6c0.7-0.7,1.1-1.7,1.1-3c0-2.7-1.5-4.1-4.5-4.1
		H5.6v8.1H10C11.6,13.7,12.7,13.3,13.4,12.6z"/>
	<path class="st0" d="M29.8,1v17.2c0,1.9,0.5,3.3,1.5,4.3c1,1,2.4,1.5,4.1,1.5c1.8,0,3.2-0.5,4.2-1.5c1-1,1.5-2.4,1.5-4.3V1h5.6
		v17.2c0,2.4-0.5,4.4-1.5,6c-1,1.6-2.4,2.9-4.1,3.7c-1.7,0.8-3.6,1.2-5.7,1.2c-2.1,0-4-0.4-5.6-1.2c-1.7-0.8-3-2.1-4-3.7
		c-1-1.6-1.5-3.6-1.5-6V1H29.8z"/>
	<path class="st0" d="M71.7,16.9c1,1.3,1.5,2.7,1.5,4.4c0,1.5-0.4,2.8-1.1,3.9c-0.7,1.1-1.8,2-3.2,2.7c-1.4,0.6-3,1-4.9,1h-12V1
		h11.5c1.9,0,3.5,0.3,4.9,0.9c1.4,0.6,2.4,1.5,3.1,2.6c0.7,1.1,1.1,2.3,1.1,3.7c0,1.6-0.4,3-1.3,4.1c-0.9,1.1-2,1.9-3.5,2.3
		C69.4,14.9,70.7,15.7,71.7,16.9z M57.6,12.5h5.1c1.3,0,2.4-0.3,3.1-0.9c0.7-0.6,1.1-1.5,1.1-2.6s-0.4-2-1.1-2.6
		c-0.7-0.6-1.7-0.9-3.1-0.9h-5.1V12.5z M66.4,23.4c0.8-0.6,1.1-1.5,1.1-2.7c0-1.2-0.4-2.1-1.2-2.8c-0.8-0.7-1.9-1-3.2-1h-5.5v7.5
		h5.6C64.6,24.3,65.7,24,66.4,23.4z"/>
	<path class="st0" d="M83.3,24.4h9.2v4.4H77.7V1h5.6V24.4z"/>
	<path class="st0" d="M101.6,1v27.8H96V1H101.6z"/>
	<path class="st0" d="M107.6,7.5c1.2-2.2,2.9-3.9,5.1-5.1c2.1-1.2,4.5-1.8,7.2-1.8c3.1,0,5.8,0.8,8.2,2.4c2.3,1.6,4,3.8,4.9,6.6
		h-6.4c-0.6-1.3-1.5-2.3-2.7-3s-2.5-1-4-1c-1.6,0-3.1,0.4-4.3,1.1c-1.3,0.8-2.2,1.8-3,3.2c-0.7,1.4-1.1,3-1.1,4.9
		c0,1.8,0.4,3.4,1.1,4.8s1.7,2.5,3,3.2c1.3,0.8,2.7,1.1,4.3,1.1c1.5,0,2.9-0.3,4-1s2.1-1.7,2.7-3h6.4c-0.9,2.8-2.6,5.1-4.9,6.6
		c-2.3,1.6-5.1,2.4-8.2,2.4c-2.7,0-5.1-0.6-7.2-1.8c-2.1-1.2-3.8-2.9-5.1-5c-1.2-2.2-1.9-4.6-1.9-7.3S106.4,9.7,107.6,7.5z"/>
	<path class="st0" d="M154.8,23.6h-11.1l-1.8,5.3H136L146,1h6.5l10,27.9h-5.9L154.8,23.6z M153.3,19.1l-4-11.6l-4,11.6H153.3z"/>
	<path class="st0" d="M185.2,1v4.5h-7.4v23.3h-5.6V5.5h-7.4V1H185.2z"/>
	<path class="st0" d="M194.9,1v27.8h-5.6V1H194.9z"/>
	<path class="st0" d="M206.1,27.3c-2.2-1.2-3.9-2.9-5.2-5.1c-1.3-2.2-1.9-4.6-1.9-7.4c0-2.7,0.6-5.2,1.9-7.3s3-3.9,5.2-5.1
		c2.2-1.2,4.6-1.8,7.2-1.8c2.6,0,5,0.6,7.2,1.8c2.2,1.2,3.9,2.9,5.1,5.1c1.3,2.2,1.9,4.6,1.9,7.3c0,2.7-0.6,5.2-1.9,7.4
		c-1.3,2.2-3,3.9-5.2,5.1c-2.2,1.2-4.6,1.8-7.2,1.8C210.7,29.1,208.3,28.5,206.1,27.3z M217.7,23c1.3-0.8,2.3-1.8,3-3.3
		c0.7-1.4,1.1-3,1.1-4.9c0-1.9-0.4-3.5-1.1-4.9c-0.7-1.4-1.7-2.5-3-3.2s-2.8-1.1-4.4-1.1c-1.7,0-3.2,0.4-4.4,1.1
		c-1.3,0.7-2.3,1.8-3,3.2c-0.7,1.4-1.1,3-1.1,4.9c0,1.9,0.4,3.5,1.1,4.9c0.7,1.4,1.7,2.5,3,3.3c1.3,0.8,2.8,1.1,4.4,1.1
		C215,24.2,216.5,23.8,217.7,23z"/>
	<path class="st0" d="M255.5,28.9h-5.6L237.3,9.8v19.1h-5.6V1h5.6l12.6,19.1V1h5.6V28.9z"/>
	<path class="st0" d="M265.4,28.1c-1.6-0.7-2.8-1.6-3.7-2.9c-0.9-1.2-1.4-2.7-1.4-4.4h6c0.1,1.1,0.5,2,1.2,2.7c0.7,0.7,1.7,1,3,1
		c1.3,0,2.3-0.3,3.1-0.9c0.7-0.6,1.1-1.4,1.1-2.5c0-0.8-0.3-1.5-0.8-2c-0.5-0.5-1.1-1-1.9-1.3c-0.8-0.3-1.8-0.6-3.1-1
		c-1.8-0.5-3.3-1.1-4.4-1.6c-1.1-0.5-2.1-1.3-2.9-2.4c-0.8-1.1-1.2-2.5-1.2-4.2c0-1.6,0.4-3.1,1.2-4.3s2-2.2,3.5-2.8
		c1.5-0.7,3.2-1,5.1-1c2.9,0,5.2,0.7,7,2.1s2.8,3.3,3,5.8H274c-0.1-1-0.5-1.7-1.2-2.4s-1.8-0.9-3-0.9c-1.1,0-2,0.3-2.6,0.8
		c-0.7,0.6-1,1.4-1,2.4c0,0.7,0.2,1.4,0.7,1.9c0.5,0.5,1.1,0.9,1.8,1.2c0.7,0.3,1.8,0.7,3.1,1.1c1.8,0.5,3.3,1.1,4.4,1.6
		c1.1,0.5,2.1,1.3,3,2.4c0.8,1.1,1.2,2.5,1.2,4.2c0,1.5-0.4,2.9-1.2,4.1c-0.8,1.3-1.9,2.3-3.4,3.1s-3.3,1.1-5.3,1.1
		C268.7,29.1,266.9,28.8,265.4,28.1z"/>
</g>
</svg>
