<svg width="24" height="24" viewBox="0 0 24 24" fill="none" xmlns="http://www.w3.org/2000/svg">
<path fill-rule="evenodd" clip-rule="evenodd" d="M12.6746 1.4144L6.66421 7.4248L12.6746 13.4352L18.685 7.4248L12.6746 1.4144ZM5.25 7.4248L12.6746 14.8494L20.0992 7.4248L12.6746 0.000182986L5.25 7.4248Z" fill="#0B1528"/>
<path d="M13.4698 6.76045C13.8998 6.83545 14.2298 6.97545 14.4598 7.18045C14.6948 7.38045 14.8123 7.63795 14.8123 7.95295V8.44045C14.8123 8.69545 14.7423 8.92295 14.6023 9.12295C14.4673 9.31795 14.2723 9.47045 14.0173 9.58045C13.7673 9.69045 13.4798 9.74545 13.1548 9.74545V10.4729H12.2923V9.74545H12.2698C11.7498 9.74545 11.3398 9.59545 11.0398 9.29545C10.7398 8.99545 10.5898 8.58545 10.5898 8.06545H11.4523C11.4523 8.34545 11.5248 8.56795 11.6698 8.73295C11.8198 8.89295 12.0248 8.97295 12.2848 8.97295H13.1173C13.3623 8.97295 13.5598 8.92045 13.7098 8.81545C13.8598 8.70545 13.9348 8.56295 13.9348 8.38795V8.05795C13.9348 7.92295 13.8823 7.81045 13.7773 7.72045C13.6723 7.63045 13.5223 7.56795 13.3273 7.53295L11.9623 7.30045C11.5373 7.23045 11.2098 7.09045 10.9798 6.88045C10.7548 6.67045 10.6423 6.40295 10.6423 6.07795V5.66545C10.6423 5.41045 10.7098 5.18545 10.8448 4.99045C10.9848 4.79545 11.1798 4.64545 11.4298 4.54045C11.6798 4.43045 11.9673 4.37545 12.2923 4.37545V3.64795H13.1548V4.37545C13.4598 4.37545 13.7298 4.44045 13.9648 4.57045C14.2048 4.69545 14.3898 4.87545 14.5198 5.11045C14.6498 5.34545 14.7148 5.61545 14.7148 5.92045H13.8598C13.8598 5.69045 13.7923 5.50545 13.6573 5.36545C13.5273 5.22045 13.3573 5.14795 13.1473 5.14795H12.2998C12.0648 5.14795 11.8748 5.20045 11.7298 5.30545C11.5898 5.40545 11.5198 5.54295 11.5198 5.71795V5.98795C11.5198 6.12795 11.5698 6.24545 11.6698 6.34045C11.7698 6.43045 11.9148 6.49045 12.1048 6.52045L13.4698 6.76045Z" fill="#0B1528"/>
<path fill-rule="evenodd" clip-rule="evenodd" d="M4.25 17.4578H3.25L3.25 22.9578H4.25V17.4578ZM3.25 16.4578C2.69772 16.4578 2.25 16.9055 2.25 17.4578V22.9578C2.25 23.51 2.69772 23.9578 3.25 23.9578H4.25C4.80228 23.9578 5.25 23.51 5.25 22.9578V17.4578C5.25 16.9055 4.80228 16.4578 4.25 16.4578H3.25Z" fill="#0B1528"/>
<path fill-rule="evenodd" clip-rule="evenodd" d="M12.1305 14.458H15C15.1515 14.458 15.3031 14.5093 15.4251 14.6187C15.5372 14.7193 15.5927 14.8403 15.6214 14.9318C15.6756 15.105 15.6699 15.2913 15.6572 15.4263C15.6304 15.7143 15.5427 16.0361 15.4744 16.2411L15.4615 16.2799L14.4765 18.1495L17.7929 14.833H20.2995L20.3481 14.8427L20.25 15.333C20.3481 14.8427 20.3479 14.8427 20.3481 14.8427L20.3496 14.843L20.3514 14.8434L20.3552 14.8442L20.3648 14.8463C20.3719 14.8479 20.3806 14.85 20.3907 14.8526C20.4107 14.8577 20.4367 14.865 20.4667 14.8751C20.5252 14.8945 20.6078 14.9271 20.6948 14.9793C20.8638 15.0807 21.125 15.3095 21.125 15.708C21.125 16.0288 20.9428 16.3296 20.7975 16.533C20.634 16.7619 20.4249 16.9903 20.2286 17.1866L17.6129 19.8023C17.0477 20.4301 16.1856 21.3669 15.4242 22.1503C15.0424 22.5431 14.6804 22.903 14.3917 23.1669C14.2485 23.2978 14.1147 23.413 14.001 23.4983C13.9449 23.5403 13.8831 23.5831 13.8205 23.6175C13.7798 23.64 13.656 23.708 13.5 23.708H6.37504C5.41703 23.708 4.83917 23.1296 4.53717 22.8273C4.53185 22.8219 4.52663 22.8167 4.52148 22.8116L5.22859 22.1045C5.53112 22.407 5.8499 22.708 6.37504 22.708H13.3878C13.3921 22.7049 13.3965 22.7016 13.4013 22.698C13.4765 22.6417 13.5825 22.5518 13.717 22.4288C13.9838 22.1849 14.3296 21.8417 14.7071 21.4533C15.4605 20.6782 16.3184 19.7457 16.8784 19.1235L16.8872 19.1138L16.8965 19.1045L16.899 19.1019L19.5215 16.4795C19.7002 16.3007 19.8661 16.1166 19.9838 15.9518C20.0151 15.9079 20.041 15.8683 20.0618 15.833H18.2071L13.8536 20.1866C13.6287 20.4115 13.2734 20.5498 12.988 20.6236C12.7891 20.6749 12.5738 20.708 12.375 20.708C12.177 20.708 11.9223 20.6269 11.7003 20.5388C11.4535 20.4408 11.1642 20.2999 10.871 20.1221C10.2988 19.7752 9.64087 19.2448 9.30126 18.5535C8.97566 17.8906 8.99345 17.0151 9.05903 16.3868C9.08712 16.1177 9.12654 15.873 9.16329 15.6778C8.97974 15.6294 8.75251 15.5778 8.50983 15.5416C8.21438 15.4975 7.91374 15.479 7.64905 15.5083C7.38073 15.538 7.19304 15.6118 7.07543 15.7126C7.02161 15.7588 6.97888 15.8302 6.95615 15.9797C6.93363 16.1279 6.93821 16.2914 6.94419 16.5049C6.94487 16.5291 6.94556 16.5539 6.94624 16.5794C6.95194 16.7945 6.95893 17.0983 6.87059 17.3687C6.82272 17.5152 6.74312 17.6668 6.61112 17.797C6.47809 17.9283 6.31431 18.0156 6.1316 18.0654C5.99999 18.1013 5.84374 18.1115 5.72025 18.1153C5.58546 18.1194 5.44098 18.1166 5.312 18.1115C5.18201 18.1064 5.06215 18.0988 4.97508 18.0925C4.93139 18.0894 4.89559 18.0865 4.87045 18.0845L4.84101 18.082L4.83288 18.0812L4.83058 18.081L4.82956 18.0809L4.92054 17.0851L4.92204 17.0852L4.92813 17.0858L4.95312 17.0879C4.97516 17.0897 5.00738 17.0923 5.04709 17.0951C5.1268 17.1009 5.2352 17.1077 5.35114 17.1123C5.4681 17.1169 5.5872 17.1189 5.68984 17.1158C5.74104 17.1142 5.78411 17.1115 5.81826 17.1079C5.8512 17.1044 5.86631 17.1011 5.8683 17.1007C5.86852 17.1006 5.86839 17.1006 5.8683 17.1007C5.89238 17.0941 5.90422 17.0879 5.90857 17.0851C5.91057 17.082 5.91483 17.074 5.92003 17.0581C5.94621 16.978 5.95299 16.8475 5.94659 16.6059C5.94597 16.5824 5.94522 16.5578 5.94444 16.5322C5.93835 16.3329 5.93043 16.0734 5.96751 15.8295C6.01171 15.5387 6.12685 15.2086 6.42464 14.9534C6.7518 14.673 7.16148 14.5562 7.53906 14.5144C7.92027 14.4722 8.31403 14.5013 8.65739 14.5526C9.0035 14.6042 9.31648 14.6811 9.54177 14.7445C9.65497 14.7763 9.74741 14.8051 9.81244 14.8263C9.84499 14.8369 9.87076 14.8456 9.88893 14.8519L9.91041 14.8594L9.9167 14.8616L9.9187 14.8623L9.91969 14.8627C9.91981 14.8627 9.91993 14.8628 9.75004 15.333L9.91969 14.8627L10.3507 15.0184L10.2334 15.4608L10.2326 15.4638L10.2292 15.4772C10.2261 15.4896 10.2214 15.5088 10.2154 15.5341C10.2034 15.5847 10.1864 15.6596 10.1674 15.7532C10.1294 15.9411 10.0838 16.2012 10.0536 16.4906C10.0298 16.7192 10.0174 16.9501 10.0213 17.1698L12.1305 14.458ZM10.3551 18.3695C10.6014 18.7094 10.9823 19.0201 11.3895 19.267C11.6361 19.4166 11.8755 19.5324 12.0693 19.6093C12.2451 19.6791 12.3427 19.7005 12.3687 19.7062C12.375 19.7076 12.3771 19.708 12.375 19.708C12.4205 19.708 12.4735 19.7041 12.5312 19.6963L14.5379 15.8875C14.5786 15.7598 14.6204 15.6009 14.6447 15.458H12.6196L10.3551 18.3695ZM5.91067 17.0836C5.9107 17.0836 5.91032 17.084 5.90941 17.0846L5.91067 17.0836ZM20.1827 15.8383C20.1827 15.8383 20.1823 15.8381 20.1817 15.8376L20.1827 15.8383ZM13.3379 22.7417C13.329 22.7466 13.3308 22.7446 13.3414 22.7397C13.3399 22.7406 13.3387 22.7413 13.3379 22.7417ZM4.92054 17.0851C4.92052 17.0851 4.92053 17.0851 4.92054 17.0851V17.0851Z" fill="#0B1528"/>
<path d="M0.75 12.7078H23.25V15.7078H0.75V12.7078Z" fill="#F6F6F7"/>
<path fill-rule="evenodd" clip-rule="evenodd" d="M22.25 13.7078H1.75V14.7078H22.25V13.7078ZM0.75 12.7078V15.7078H23.25V12.7078H0.75Z" fill="#0B1528"/>
<path fill-rule="evenodd" clip-rule="evenodd" d="M22.25 13.7078H1.75V14.7078H22.25V13.7078ZM0.75 12.7078V15.7078H23.25V12.7078H0.75Z" fill="#0B1528"/>
</svg>
