<?xml version="1.0" encoding="UTF-8"?>
<svg id="Layer_1" data-name="Layer 1" xmlns="http://www.w3.org/2000/svg" width="119.99" height="119.99" viewBox="0 0 119.99 119.99">
  <defs>
    <style>
      .cls-1 {
        fill: #284895;
      }
    </style>
  </defs>
  <path class="cls-1" d="M35.73,11.42c.49,0,.92,.08,1.29,.26l-.49-.93,1.33-.71,3.45,6.48c.31,.59,.47,1.17,.46,1.77,0,.59-.17,1.14-.5,1.65-.33,.51-.82,.94-1.46,1.28-.86,.46-1.69,.64-2.48,.54-.79-.1-1.4-.48-1.85-1.13l1.31-.7c.28,.28,.63,.43,1.07,.46,.44,.03,.88-.08,1.34-.32,.53-.28,.88-.67,1.03-1.17,.16-.5,.07-1.06-.26-1.67l-.57-1.07c-.06,.42-.23,.83-.51,1.24s-.65,.74-1.14,1c-.56,.3-1.14,.42-1.75,.39s-1.18-.24-1.72-.6c-.53-.36-.97-.87-1.31-1.51-.34-.64-.51-1.28-.5-1.91,0-.64,.16-1.21,.48-1.73,.31-.52,.75-.92,1.3-1.22,.49-.26,.98-.4,1.47-.4Zm1.61,1.51c-.35-.23-.72-.35-1.11-.36-.38-.01-.75,.07-1.08,.25-.34,.18-.61,.43-.82,.75-.2,.32-.31,.69-.32,1.11-.01,.42,.1,.85,.33,1.28,.23,.44,.53,.78,.89,1.01,.36,.24,.73,.36,1.12,.38,.39,.02,.75-.06,1.08-.24,.34-.18,.61-.43,.81-.76,.2-.33,.31-.7,.31-1.13,0-.42-.11-.86-.34-1.3s-.53-.77-.88-1Z"/>
  <path class="cls-1" d="M48.98,10.64l-5.28,1.62c.21,.54,.55,.92,1.02,1.14,.47,.22,.97,.25,1.51,.09,.77-.24,1.21-.72,1.33-1.47l1.54-.47c-.01,.7-.23,1.34-.66,1.91s-1.04,.98-1.85,1.23c-.66,.2-1.3,.24-1.91,.1-.61-.14-1.15-.43-1.61-.88-.46-.45-.8-1.03-1.02-1.74s-.27-1.38-.14-2.01,.4-1.17,.83-1.62c.43-.45,.99-.78,1.66-.99,.65-.2,1.28-.24,1.87-.11,.6,.13,1.12,.41,1.56,.83,.44,.43,.77,.97,.97,1.64,.08,.26,.13,.5,.17,.72Zm-1.8-.71c-.17-.52-.49-.89-.95-1.09s-.97-.22-1.51-.06c-.49,.15-.87,.44-1.12,.86-.25,.42-.33,.91-.24,1.46l3.82-1.17Z"/>
  <path class="cls-1" d="M52.82,7.05l.59,3.96c.04,.27,.13,.45,.27,.55,.14,.1,.37,.12,.67,.08l.91-.14,.18,1.23-1.17,.17c-.67,.1-1.2,.02-1.6-.24s-.65-.74-.76-1.44l-.59-3.96-.84,.13-.18-1.21,.84-.13-.27-1.78,1.49-.22,.26,1.78,1.74-.26,.18,1.21-1.74,.26Z"/>
  <path class="cls-1" d="M63.5,5.36l-.29,7.22-1.49-.06,.29-7.22,1.49,.06Zm-1.36-1.29c-.18-.19-.26-.42-.25-.69,.01-.27,.11-.49,.3-.67,.19-.18,.42-.26,.69-.25,.26,.01,.48,.11,.66,.3,.18,.19,.26,.42,.25,.69-.01,.27-.11,.49-.3,.67-.19,.18-.42,.26-.68,.25-.27-.01-.49-.11-.67-.3Z"/>
  <path class="cls-1" d="M72.16,6.73c.4,.31,.69,.72,.85,1.22s.19,1.07,.08,1.72l-.76,4.19-1.46-.26,.72-3.97c.12-.64,.04-1.15-.21-1.55-.26-.4-.66-.65-1.21-.75-.55-.1-1.02,0-1.4,.27-.38,.28-.63,.74-.75,1.38l-.72,3.97-1.47-.27,1.29-7.11,1.47,.27-.15,.81c.29-.25,.64-.42,1.05-.52s.82-.11,1.24-.03c.56,.1,1.04,.31,1.44,.62Z"/>
  <path class="cls-1" d="M82.69,11.29l-1.64,3.65c-.11,.25-.13,.45-.07,.61,.07,.16,.24,.3,.52,.43l.84,.38-.51,1.14-1.08-.48c-.61-.28-1.02-.63-1.22-1.06-.2-.43-.15-.97,.14-1.62l1.64-3.65-.78-.35,.5-1.11,.78,.35,.73-1.64,1.38,.62-.73,1.64,1.6,.72-.5,1.11-1.6-.72Z"/>
  <path class="cls-1" d="M84.9,18.77c-.29-.56-.42-1.16-.38-1.81,.04-.64,.26-1.28,.67-1.9,.4-.62,.89-1.08,1.47-1.38,.58-.3,1.19-.43,1.82-.38,.64,.05,1.24,.26,1.82,.63,.58,.37,1.02,.84,1.33,1.4,.3,.56,.44,1.17,.4,1.82-.04,.65-.25,1.29-.65,1.9s-.89,1.07-1.48,1.37c-.59,.3-1.21,.42-1.85,.37-.65-.05-1.26-.26-1.84-.64-.57-.37-1.01-.83-1.3-1.39Zm3.06,.66c.38,.03,.76-.05,1.14-.25,.38-.19,.71-.51,.99-.95s.44-.87,.47-1.28c.03-.41-.05-.79-.23-1.12-.18-.33-.43-.61-.75-.82-.32-.21-.67-.32-1.05-.35-.38-.02-.74,.06-1.1,.26s-.68,.52-.96,.96c-.42,.65-.58,1.27-.48,1.84,.1,.57,.41,1.02,.92,1.35,.32,.21,.68,.33,1.06,.36Z"/>
  <path class="cls-1" d="M100.71,22.68l-4.99,5.23-1.08-1.03,.59-.62c-.38,.05-.76,0-1.15-.13-.39-.14-.74-.36-1.05-.65-.41-.39-.7-.83-.86-1.31s-.18-.98-.04-1.49c.13-.51,.43-1.01,.88-1.48l2.93-3.07,1.07,1.02-2.78,2.91c-.45,.47-.67,.94-.68,1.41,0,.47,.2,.9,.6,1.29,.4,.39,.85,.57,1.32,.54,.48-.02,.94-.27,1.38-.74l2.78-2.91,1.08,1.03Z"/>
  <path class="cls-1" d="M101.84,26.51c.63-.09,1.23,0,1.79,.25,.56,.25,1.04,.66,1.45,1.22,.51,.71,.77,1.42,.77,2.12,0,.71-.25,1.37-.76,1.98l-.95-1.31c.21-.32,.32-.65,.31-1,0-.35-.14-.7-.39-1.06-.36-.5-.82-.76-1.38-.8-.56-.04-1.16,.17-1.79,.63-.63,.46-1.02,.96-1.16,1.51-.14,.55-.03,1.07,.33,1.57,.51,.7,1.15,.94,1.93,.72l.95,1.31c-.72,.26-1.42,.29-2.11,.07-.69-.21-1.29-.67-1.79-1.36-.41-.56-.64-1.15-.7-1.76-.06-.61,.05-1.21,.33-1.78,.28-.57,.72-1.08,1.32-1.52,.6-.44,1.22-.7,1.85-.78Z"/>
  <path class="cls-1" d="M110.68,38.46c-.03,.49-.2,.95-.51,1.37-.31,.42-.76,.78-1.36,1.06l-3.85,1.83-.64-1.34,3.65-1.73c.58-.28,.96-.64,1.14-1.08,.17-.44,.14-.91-.1-1.42s-.59-.83-1.04-.98c-.45-.15-.97-.08-1.56,.19l-3.65,1.73-.64-1.35,8.76-4.16,.64,1.35-3,1.42c.39,.1,.74,.29,1.05,.57,.32,.28,.57,.63,.77,1.05,.24,.5,.34,.99,.31,1.48Z"/>
  <path class="cls-1" d="M107.02,49.07c.14-.22,.34-.36,.61-.42,.26-.06,.51-.02,.73,.12,.22,.14,.36,.34,.42,.61,.06,.26,.02,.49-.12,.71-.14,.22-.34,.36-.61,.42-.26,.06-.51,.02-.73-.12-.22-.14-.36-.34-.41-.59-.06-.26-.02-.51,.12-.73Z"/>
  <path class="cls-1" d="M115.11,61.52c-.23,.43-.51,.76-.85,1l1.05,.02-.02,1.51-7.34-.12c-.66-.01-1.25-.16-1.77-.45-.52-.29-.92-.7-1.21-1.23-.29-.53-.43-1.17-.41-1.9,.02-.98,.26-1.79,.73-2.43,.47-.64,1.1-1,1.89-1.07l-.02,1.48c-.38,.11-.69,.34-.92,.71-.24,.37-.36,.81-.37,1.32,0,.6,.17,1.09,.53,1.47s.89,.57,1.59,.58l1.21,.02c-.34-.26-.62-.61-.84-1.04-.22-.44-.33-.93-.32-1.48,.01-.63,.18-1.2,.51-1.72,.33-.52,.78-.92,1.36-1.21,.58-.29,1.23-.43,1.95-.42,.73,.01,1.36,.17,1.92,.48,.55,.31,.98,.73,1.28,1.25s.45,1.1,.44,1.73c0,.56-.13,1.05-.36,1.48Zm-2.1,.67c.37-.2,.65-.46,.85-.79,.2-.33,.3-.69,.31-1.07,0-.38-.08-.74-.26-1.08-.18-.34-.45-.61-.81-.82-.36-.21-.79-.32-1.29-.33-.5,0-.94,.09-1.32,.29-.38,.2-.67,.47-.87,.8-.2,.33-.31,.69-.31,1.06,0,.38,.08,.74,.27,1.08,.19,.34,.46,.61,.83,.82,.37,.21,.8,.32,1.3,.33,.5,0,.93-.09,1.3-.29Z"/>
  <path class="cls-1" d="M109.52,73.5l1.08-5.41c-.57-.07-1.07,.05-1.49,.36-.42,.31-.68,.74-.79,1.29-.16,.79,.06,1.41,.66,1.87l-.31,1.58c-.61-.34-1.07-.84-1.37-1.48-.3-.64-.37-1.38-.21-2.21,.13-.68,.41-1.25,.82-1.73,.41-.48,.92-.81,1.54-1,.61-.19,1.28-.22,2.01-.07,.73,.15,1.34,.42,1.83,.83,.49,.41,.84,.91,1.03,1.5,.19,.59,.22,1.24,.08,1.93-.13,.67-.4,1.24-.79,1.7-.4,.46-.89,.79-1.47,.98-.59,.19-1.22,.21-1.91,.08-.27-.05-.5-.12-.71-.19Zm1.48-1.24c.54,.1,1.01,0,1.41-.32,.4-.31,.66-.75,.77-1.31,.1-.51,.03-.97-.22-1.39-.25-.42-.64-.72-1.18-.9l-.78,3.92Z"/>
  <path class="cls-1" d="M110.86,78.6l-3.76-1.36c-.25-.09-.46-.1-.61-.02-.15,.08-.28,.26-.39,.55l-.31,.86-1.17-.42,.4-1.11c.23-.63,.55-1.07,.97-1.29,.42-.23,.96-.23,1.63,.01l3.76,1.36,.29-.8,1.15,.41-.29,.8,1.69,.61-.51,1.42-1.69-.61-.6,1.65-1.15-.41,.6-1.65Z"/>
  <path class="cls-1" d="M107.25,88.82l-6.2-3.7,.77-1.28,6.2,3.7-.77,1.28Zm1.78-.58c.25-.06,.49-.03,.73,.11,.23,.14,.38,.33,.44,.59s.03,.49-.11,.73c-.13,.23-.33,.37-.58,.43-.25,.06-.49,.03-.73-.11-.23-.14-.38-.33-.44-.59s-.03-.49,.11-.72c.14-.23,.33-.38,.59-.44Z"/>
  <path class="cls-1" d="M101.91,95.77c-.47,.2-.96,.26-1.48,.17-.52-.09-1.04-.34-1.55-.75l-3.32-2.67,.93-1.16,3.15,2.53c.5,.41,.99,.59,1.46,.55,.47-.04,.88-.27,1.23-.71,.35-.44,.49-.89,.43-1.36s-.35-.91-.85-1.31l-3.15-2.53,.94-1.17,5.63,4.52-.94,1.17-.64-.52c.08,.38,.06,.76-.04,1.17-.11,.4-.3,.77-.57,1.1-.36,.44-.77,.77-1.23,.97Z"/>
  <path class="cls-1" d="M92.91,102.85l-2.44-3.17c-.17-.22-.33-.33-.51-.35s-.38,.07-.62,.26l-.73,.56-.76-.99,.94-.72c.53-.41,1.04-.6,1.51-.57s.93,.33,1.36,.89l2.44,3.17,.68-.52,.74,.97-.68,.52,1.09,1.42-1.2,.92-1.09-1.42-1.39,1.07-.74-.97,1.39-1.07Z"/>
  <path class="cls-1" d="M85.27,101.25c.63,0,1.22,.18,1.77,.52,.55,.34,1,.84,1.36,1.49,.35,.64,.53,1.29,.52,1.95s-.19,1.25-.53,1.79-.82,.97-1.42,1.31c-.6,.33-1.23,.5-1.86,.5-.64,0-1.23-.17-1.79-.51-.56-.34-1.01-.83-1.37-1.48-.35-.64-.52-1.29-.51-1.95,.02-.66,.2-1.26,.55-1.81s.83-.99,1.44-1.32c.6-.33,1.21-.49,1.84-.48Zm-2.03,2.38c-.21,.32-.31,.7-.32,1.12s.12,.86,.37,1.32c.25,.46,.55,.8,.91,1.02s.72,.33,1.1,.33c.38,0,.74-.09,1.07-.28,.34-.19,.6-.44,.8-.76,.2-.32,.29-.68,.29-1.09s-.14-.85-.39-1.3c-.37-.68-.84-1.11-1.39-1.29-.55-.18-1.09-.12-1.62,.17-.34,.19-.61,.44-.82,.76Z"/>
  <path class="cls-1" d="M74.34,113.3l-2.23-6.87,1.42-.46,.26,.81c.13-.36,.35-.67,.66-.95,.31-.28,.67-.48,1.07-.62,.54-.18,1.06-.22,1.56-.13s.95,.31,1.33,.67,.68,.85,.89,1.48l1.31,4.04-1.41,.46-1.24-3.83c-.2-.62-.51-1.04-.92-1.27-.41-.23-.89-.26-1.42-.08-.53,.17-.9,.47-1.11,.9-.21,.43-.21,.95,0,1.57l1.24,3.83-1.42,.46Z"/>
  <path class="cls-1" d="M70.41,112.48c-.23,.6-.58,1.08-1.07,1.46s-1.08,.6-1.76,.69c-.87,.11-1.61,0-2.23-.34-.62-.34-1.08-.87-1.38-1.61l1.6-.21c.18,.34,.42,.59,.73,.75s.69,.22,1.12,.16c.61-.08,1.06-.36,1.37-.83,.3-.48,.41-1.1,.3-1.87-.1-.77-.36-1.35-.78-1.74-.42-.39-.93-.54-1.53-.46-.86,.11-1.38,.56-1.56,1.35l-1.6,.21c.11-.76,.43-1.38,.94-1.89s1.2-.81,2.05-.92c.69-.09,1.31-.01,1.88,.22,.57,.24,1.04,.62,1.41,1.14,.37,.52,.61,1.15,.7,1.88,.1,.74,.03,1.4-.2,2Z"/>
  <path class="cls-1" d="M55.7,114.55c-.42-.26-.74-.62-.97-1.1-.22-.48-.32-1.04-.29-1.7l.22-4.26,1.48,.08-.21,4.03c-.03,.65,.1,1.15,.41,1.51s.74,.56,1.3,.59,1.01-.12,1.36-.45,.53-.81,.57-1.46l.21-4.03,1.49,.08-.5,9.69-1.49-.08,.17-3.31c-.27,.29-.6,.51-1,.66-.4,.15-.83,.21-1.29,.18-.55-.03-1.03-.17-1.45-.43Z"/>
  <path class="cls-1" d="M48.1,106.3c.13,.23,.15,.47,.08,.73-.07,.26-.22,.45-.45,.58s-.47,.15-.73,.08c-.25-.07-.44-.22-.57-.45-.13-.23-.15-.47-.08-.73,.07-.26,.22-.45,.45-.58s.47-.15,.72-.08c.26,.07,.45,.22,.58,.45Z"/>
  <path class="cls-1" d="M33.31,107.52c-.27-.4-.43-.81-.49-1.22l-.51,.92-1.32-.73,3.55-6.43c.32-.58,.73-1.03,1.23-1.35,.5-.32,1.05-.48,1.65-.49,.61,0,1.23,.17,1.87,.53,.86,.47,1.46,1.07,1.8,1.78s.36,1.44,.06,2.17l-1.3-.72c.08-.38,.02-.77-.2-1.15-.21-.38-.55-.7-1-.95-.53-.29-1.04-.37-1.55-.22s-.92,.52-1.26,1.13l-.58,1.06c.39-.18,.83-.26,1.32-.25,.49,0,.98,.14,1.46,.41,.55,.3,.98,.72,1.28,1.25s.45,1.12,.43,1.77c-.01,.65-.19,1.29-.55,1.92-.35,.64-.79,1.12-1.33,1.47s-1.1,.53-1.71,.55-1.18-.12-1.73-.43c-.49-.27-.87-.61-1.14-1.01Zm.39-2.17c0,.42,.1,.8,.3,1.12,.2,.33,.47,.59,.8,.77,.34,.19,.7,.28,1.08,.27,.38,0,.75-.12,1.1-.33,.36-.22,.65-.55,.89-.98s.36-.87,.36-1.3-.1-.81-.3-1.14c-.2-.33-.46-.59-.79-.78-.34-.19-.7-.27-1.08-.27s-.76,.12-1.11,.35c-.36,.23-.66,.56-.9,.99s-.36,.86-.36,1.28Z"/>
  <path class="cls-1" d="M25.43,96.86l4.24,3.53c.34-.47,.47-.97,.39-1.48s-.32-.95-.75-1.31c-.62-.51-1.27-.62-1.96-.31l-1.24-1.03c.59-.37,1.24-.54,1.96-.5,.71,.04,1.39,.33,2.04,.87,.53,.44,.91,.96,1.13,1.54,.22,.59,.27,1.2,.15,1.83s-.42,1.23-.9,1.8-1.01,.98-1.6,1.22c-.59,.24-1.2,.3-1.81,.19-.62-.11-1.2-.4-1.74-.85-.52-.44-.9-.94-1.12-1.51s-.27-1.16-.16-1.76,.4-1.17,.84-1.71c.17-.21,.34-.38,.51-.53Zm.39,1.89c-.35,.43-.48,.89-.39,1.4,.08,.5,.34,.93,.78,1.3,.4,.33,.84,.49,1.33,.47s.94-.22,1.36-.6l-3.08-2.56Z"/>
  <path class="cls-1" d="M20.3,95.6l2.98-2.66c.2-.18,.31-.36,.31-.53,0-.17-.1-.37-.3-.6l-.61-.68,.93-.83,.79,.88c.45,.5,.67,.99,.68,1.47s-.26,.95-.79,1.42l-2.98,2.66,.57,.64-.91,.81-.57-.64-1.34,1.2-1-1.13,1.34-1.2-1.17-1.31,.91-.81,1.17,1.31Z"/>
  <path class="cls-1" d="M12.7,89.45c-.06,.25-.21,.45-.44,.59s-.47,.18-.73,.11c-.25-.06-.45-.21-.59-.44-.13-.23-.17-.46-.11-.72s.21-.45,.44-.59,.47-.18,.73-.11,.44,.21,.58,.43c.14,.23,.18,.47,.11,.73Zm.33-1.85l6.2-3.71,.77,1.28-6.2,3.71-.77-1.28Z"/>
  <path class="cls-1" d="M9.44,79.59c.04-.51,.23-.97,.56-1.38,.33-.41,.79-.75,1.4-1l3.93-1.66,.58,1.36-3.72,1.57c-.6,.25-.99,.59-1.18,1.03-.19,.43-.18,.91,.04,1.42,.22,.52,.55,.86,.99,1.02,.45,.17,.97,.13,1.56-.13l3.72-1.57,.58,1.38-6.66,2.81-.58-1.38,.76-.32c-.37-.11-.7-.31-1-.59-.3-.29-.53-.63-.7-1.02-.22-.52-.31-1.04-.27-1.55Z"/>
  <path class="cls-1" d="M7.5,68.29l3.95-.63c.27-.04,.45-.13,.55-.28,.1-.14,.12-.37,.07-.67l-.14-.91,1.23-.19,.18,1.17c.1,.66,.03,1.2-.22,1.6-.25,.4-.73,.66-1.43,.77l-3.95,.63,.13,.84-1.2,.19-.13-.84-1.77,.28-.24-1.49,1.77-.28-.27-1.74,1.2-.19,.27,1.74Z"/>
  <path class="cls-1" d="M12.57,62.35c-.3,.56-.73,1-1.29,1.32-.56,.32-1.21,.49-1.95,.5-.73,.01-1.39-.14-1.96-.45-.57-.31-1.02-.75-1.33-1.3-.31-.55-.48-1.18-.49-1.87-.01-.69,.13-1.32,.43-1.88,.3-.56,.73-1.01,1.29-1.35,.56-.33,1.21-.5,1.95-.52s1.39,.14,1.96,.47c.57,.32,1.02,.77,1.34,1.34s.48,1.2,.5,1.89c.01,.68-.13,1.3-.44,1.86Zm-1.16-2.91c-.19-.33-.47-.6-.84-.81s-.82-.3-1.34-.29-.97,.12-1.33,.32c-.36,.21-.63,.48-.81,.81-.18,.33-.26,.69-.26,1.08,0,.38,.1,.74,.29,1.06,.19,.32,.47,.58,.83,.77s.81,.28,1.34,.27c.78-.01,1.38-.22,1.79-.63s.62-.91,.61-1.51c0-.38-.1-.74-.29-1.08Z"/>
  <path class="cls-1" d="M7.15,46.99l7.11,1.3-.27,1.47-.84-.15c.25,.29,.42,.63,.52,1.04s.11,.82,.03,1.24c-.1,.56-.31,1.04-.62,1.44-.31,.4-.72,.69-1.22,.86-.5,.17-1.08,.2-1.72,.08l-4.18-.76,.27-1.46,3.96,.72c.64,.12,1.15,.05,1.55-.21s.65-.66,.75-1.21c.1-.55,.01-1.02-.27-1.4-.28-.38-.74-.64-1.38-.75l-3.96-.72,.27-1.47Z"/>
  <path class="cls-1" d="M9.73,43.93c-.42-.48-.68-1.03-.77-1.64-.1-.61-.02-1.23,.23-1.88,.31-.82,.76-1.42,1.36-1.8,.59-.39,1.28-.54,2.07-.45l-.58,1.51c-.38,0-.72,.09-1.01,.29-.29,.2-.51,.5-.67,.91-.22,.57-.19,1.1,.08,1.6,.27,.49,.78,.88,1.5,1.16,.73,.28,1.36,.33,1.9,.14,.54-.18,.92-.56,1.13-1.13,.31-.81,.16-1.48-.45-2.01l.58-1.51c.61,.46,1.02,1.03,1.21,1.73,.2,.69,.14,1.44-.16,2.24-.25,.64-.61,1.16-1.09,1.55-.48,.39-1.04,.62-1.67,.7-.63,.08-1.3-.01-1.99-.28-.69-.27-1.25-.64-1.67-1.12Z"/>
  <path class="cls-1" d="M14.91,30.01c.43-.25,.9-.35,1.43-.32,.53,.03,1.07,.21,1.63,.56l3.64,2.22-.77,1.26-3.44-2.11c-.55-.34-1.06-.46-1.52-.36-.46,.1-.84,.38-1.13,.86-.29,.48-.38,.95-.25,1.41,.12,.46,.46,.86,1.01,1.2l3.44,2.11-.78,1.28-8.28-5.06,.78-1.28,2.83,1.73c-.13-.38-.16-.77-.1-1.19,.06-.42,.21-.83,.45-1.22,.29-.47,.64-.83,1.07-1.07Z"/>
  <path class="cls-1" d="M25.78,27.27c-.26,0-.49-.09-.68-.28s-.29-.41-.3-.67c0-.26,.09-.49,.28-.68,.18-.19,.4-.28,.66-.29,.26,0,.49,.09,.68,.28,.19,.19,.29,.41,.3,.67,0,.26-.09,.48-.27,.67-.19,.19-.41,.29-.67,.3Z"/>
</svg>