<?xml version="1.0" encoding="utf-8"?>
<!-- Generator: Adobe Illustrator 24.0.1, SVG Export Plug-In . SVG Version: 6.00 Build 0)  -->
<svg version="1.1" id="Layer_1" xmlns="http://www.w3.org/2000/svg" xmlns:xlink="http://www.w3.org/1999/xlink" x="0px" y="0px"
	 width="24px" height="16px" viewBox="0 0 24 16" style="enable-background:new 0 0 24 16;" xml:space="preserve">
<style type="text/css">
	.st0{fill:#FFFFFF;}
</style>
<path class="st0" d="M18.6,0.3H5.4c-0.6,0-1.1,0.5-1.1,1.1v13.2c0,0.6,0.5,1.1,1.1,1.1h13.3c0.6,0,1.1-0.5,1.1-1.1V1.4
	C19.7,0.8,19.2,0.3,18.6,0.3z M8.9,13.5H6.6V6.1h2.3L8.9,13.5L8.9,13.5z M7.8,5.1c-0.7,0-1.3-0.6-1.3-1.3s0.6-1.3,1.3-1.3
	c0.7,0,1.3,0.6,1.3,1.3C9.1,4.5,8.5,5.1,7.8,5.1z M17.5,13.5h-2.3V9.9c0-0.9,0-2-1.2-2c-1.2,0-1.4,0.9-1.4,1.9v3.7h-2.3V6.1h2.2v1h0
	C12.9,6.6,13.7,6,14.8,6c2.3,0,2.8,1.5,2.8,3.5V13.5z"/>
</svg>
