<?xml version="1.0" encoding="utf-8"?>
<!-- Generator: Adobe Illustrator 24.0.1, SVG Export Plug-In . SVG Version: 6.00 Build 0)  -->
<svg version="1.1" id="Layer_1" xmlns="http://www.w3.org/2000/svg" xmlns:xlink="http://www.w3.org/1999/xlink" x="0px" y="0px"
	 width="24px" height="16px" viewBox="0 0 24 16" style="enable-background:new 0 0 24 16;" xml:space="preserve">
<style type="text/css">
	.st0{fill:#FFFFFF;}
</style>
<path class="st0" d="M20.6,0.1c1.1,0,2,0.9,2,2c0,0.6-0.3,1.2-0.8,1.6l-9,6.7c-0.5,0.4-1.1,0.4-1.6,0l-9-6.7c-0.5-0.4-0.8-1-0.8-1.6
	c0-1.1,0.9-2,2-2H20.6z M10.4,11.4c0.9,0.7,2.2,0.7,3.2,0l9-6.7v8.6c0,1.5-1.2,2.6-2.6,2.6H4.1c-1.5,0-2.6-1.2-2.6-2.6V4.7
	L10.4,11.4z"/>
</svg>
