<svg width="24" height="24" viewBox="0 0 24 24" fill="none"
    xmlns="http://www.w3.org/2000/svg">
    <path fill-rule="evenodd" clip-rule="evenodd" d="M4.25 17.5H3.25L3.25 23H4.25V17.5ZM3.25 16.5C2.69772 16.5 2.25 16.9477 2.25 17.5V23C2.25 23.5523 2.69772 24 3.25 24H4.25C4.80228 24 5.25 23.5523 5.25 23V17.5C5.25 16.9477 4.80228 16.5 4.25 16.5H3.25Z" fill="#020C1E"/>
    <path fill-rule="evenodd" clip-rule="evenodd" d="M12.1305 14.5002H15C15.1515 14.5002 15.3031 14.5515 15.4251 14.661C15.5372 14.7615 15.5927 14.8825 15.6214 14.974C15.6756 15.1472 15.6699 15.3335 15.6572 15.4686C15.6304 15.7565 15.5427 16.0783 15.4744 16.2834L15.4615 16.3221L14.4765 18.1917L17.7929 14.8752H20.2995L20.3481 14.885L20.25 15.3752C20.3481 14.885 20.3479 14.8849 20.3481 14.885L20.3496 14.8853L20.3514 14.8856L20.3552 14.8864L20.3648 14.8885C20.3719 14.8901 20.3806 14.8922 20.3907 14.8948C20.4107 14.9 20.4367 14.9073 20.4667 14.9173C20.5252 14.9368 20.6078 14.9693 20.6948 15.0215C20.8638 15.1229 21.125 15.3517 21.125 15.7502C21.125 16.071 20.9428 16.3718 20.7975 16.5752C20.634 16.8042 20.4249 17.0325 20.2286 17.2288L17.6129 19.8445C17.0477 20.4723 16.1856 21.4092 15.4242 22.1925C15.0424 22.5853 14.6804 22.9452 14.3917 23.2091C14.2485 23.3401 14.1147 23.4553 14.001 23.5405C13.9449 23.5826 13.8831 23.6253 13.8205 23.6598C13.7798 23.6822 13.656 23.7502 13.5 23.7502H6.37504C5.41703 23.7502 4.83917 23.1718 4.53717 22.8695C4.53185 22.8642 4.52663 22.8589 4.52148 22.8538L5.22859 22.1467C5.53112 22.4492 5.8499 22.7502 6.37504 22.7502H13.3878C13.3921 22.7472 13.3965 22.7438 13.4013 22.7403C13.4765 22.6839 13.5825 22.594 13.717 22.4711C13.9838 22.2272 14.3296 21.8839 14.7071 21.4955C15.4605 20.7204 16.3184 19.788 16.8784 19.1658L16.8872 19.156L16.8965 19.1467L16.899 19.1441L19.5215 16.5217C19.7002 16.343 19.8661 16.1588 19.9838 15.994C20.0151 15.9501 20.041 15.9105 20.0618 15.8752H18.2071L13.8536 20.2288C13.6287 20.4537 13.2734 20.5921 12.988 20.6658C12.7891 20.7172 12.5738 20.7502 12.375 20.7502C12.177 20.7502 11.9223 20.6691 11.7003 20.581C11.4535 20.483 11.1642 20.3421 10.871 20.1643C10.2988 19.8174 9.64087 19.287 9.30126 18.5957C8.97566 17.9329 8.99345 17.0573 9.05903 16.429C9.08712 16.16 9.12654 15.9153 9.16329 15.72C8.97974 15.6717 8.75251 15.6201 8.50983 15.5839C8.21438 15.5398 7.91374 15.5213 7.64905 15.5506C7.38073 15.5802 7.19304 15.6541 7.07543 15.7549C7.02161 15.801 6.97888 15.8724 6.95615 16.022C6.93363 16.1701 6.93821 16.3336 6.94419 16.5471C6.94487 16.5713 6.94556 16.5961 6.94624 16.6217C6.95194 16.8368 6.95893 17.1405 6.87059 17.4109C6.82272 17.5574 6.74312 17.709 6.61112 17.8393C6.47809 17.9705 6.31431 18.0578 6.1316 18.1076C5.99999 18.1435 5.84374 18.1538 5.72025 18.1575C5.58546 18.1616 5.44098 18.1588 5.312 18.1538C5.18201 18.1487 5.06215 18.1411 4.97508 18.1348C4.93139 18.1316 4.89559 18.1288 4.87045 18.1267L4.84101 18.1242L4.83288 18.1235L4.83058 18.1233L4.82956 18.1232L4.92054 17.1273L4.92204 17.1275L4.92813 17.128L4.95312 17.1301C4.97516 17.1319 5.00738 17.1345 5.04709 17.1374C5.1268 17.1431 5.2352 17.15 5.35114 17.1545C5.4681 17.1591 5.5872 17.1611 5.68984 17.158C5.74104 17.1564 5.78411 17.1537 5.81826 17.1501C5.8512 17.1466 5.86631 17.1433 5.8683 17.1429C5.86852 17.1428 5.86839 17.1429 5.8683 17.1429C5.89238 17.1363 5.90422 17.1302 5.90857 17.1274C5.91057 17.1242 5.91483 17.1163 5.92003 17.1004C5.94621 17.0202 5.95299 16.8897 5.94659 16.6481C5.94597 16.6247 5.94522 16.6 5.94444 16.5744C5.93835 16.3752 5.93043 16.1157 5.96751 15.8717C6.01171 15.5809 6.12685 15.2509 6.42464 14.9956C6.7518 14.7152 7.16148 14.5984 7.53906 14.5566C7.92027 14.5144 8.31403 14.5436 8.65739 14.5948C9.0035 14.6464 9.31648 14.7233 9.54177 14.7867C9.65497 14.8185 9.74741 14.8474 9.81244 14.8685C9.84499 14.8791 9.87076 14.8879 9.88893 14.8941L9.91041 14.9016L9.9167 14.9038L9.9187 14.9045L9.91969 14.9049C9.91981 14.905 9.91993 14.905 9.75004 15.3752L9.91969 14.9049L10.3507 15.0606L10.2334 15.503L10.2326 15.506L10.2292 15.5194C10.2261 15.5318 10.2214 15.551 10.2154 15.5763C10.2034 15.627 10.1864 15.7018 10.1674 15.7954C10.1294 15.9833 10.0838 16.2434 10.0536 16.5328C10.0298 16.7615 10.0174 16.9923 10.0213 17.2121L12.1305 14.5002ZM10.3551 18.4117C10.6014 18.7517 10.9823 19.0623 11.3895 19.3092C11.6361 19.4588 11.8755 19.5746 12.0693 19.6516C12.2451 19.7214 12.3427 19.7427 12.3687 19.7484C12.375 19.7498 12.3771 19.7502 12.375 19.7502C12.4205 19.7502 12.4735 19.7464 12.5312 19.7386L14.5379 15.9298C14.5786 15.802 14.6204 15.6431 14.6447 15.5002H12.6196L10.3551 18.4117ZM5.91067 17.1258C5.9107 17.1258 5.91032 17.1262 5.90941 17.1268L5.91067 17.1258ZM20.1827 15.8805C20.1827 15.8805 20.1823 15.8803 20.1817 15.8799L20.1827 15.8805ZM13.3379 22.7839C13.329 22.7888 13.3308 22.7868 13.3414 22.7819C13.3399 22.7828 13.3387 22.7835 13.3379 22.7839ZM4.92054 17.1273C4.92052 17.1273 4.92053 17.1273 4.92054 17.1273V17.1273Z" fill="#020C1E"/>
    <path d="M0.75 12.75H23.25V15.75H0.75V12.75Z" fill="#F6F6F7"/>
    <path fill-rule="evenodd" clip-rule="evenodd" d="M22.25 13.75H1.75V14.75H22.25V13.75ZM0.75 12.75V15.75H23.25V12.75H0.75Z" fill="#020C1E"/>
    <path fill-rule="evenodd" clip-rule="evenodd" d="M22.25 13.75H1.75V14.75H22.25V13.75ZM0.75 12.75V15.75H23.25V12.75H0.75Z" fill="#020C1E"/>
    <path fill-rule="evenodd" clip-rule="evenodd" d="M22.5 9.00024H2V10.0002H22.5V9.00024ZM1 8.00024V11.0002H23.5V8.00024H1Z" fill="#020C1E"/>
    <path d="M0.75 4.50024H5.25V5.25024H0.75V4.50024Z" fill="#020C1E"/>
    <path d="M6.75 4.50024H9.75V5.25024H6.75V4.50024Z" fill="#020C1E"/>
    <path d="M11.25 4.50024H18V5.25024H11.25V4.50024Z" fill="#020C1E"/>
    <path fill-rule="evenodd" clip-rule="evenodd" d="M21.75 3.75024H20.25V5.25024H21.75V3.75024ZM19.5 3.00024V6.00024H22.5V3.00024H19.5Z" fill="#020C1E"/>
</svg>
