<?xml version="1.0" encoding="utf-8"?>
<!-- Generator: Adobe Illustrator 24.0.1, SVG Export Plug-In . SVG Version: 6.00 Build 0)  -->
<svg version="1.1" id="Layer_1" xmlns="http://www.w3.org/2000/svg" xmlns:xlink="http://www.w3.org/1999/xlink" x="0px" y="0px"
	 width="24px" height="16px" viewBox="0 0 24 16" style="enable-background:new 0 0 24 16;" xml:space="preserve">
<style type="text/css">
	.st0{fill:#FFFFFF;}
</style>
<path class="st0" d="M22.8,2.6c-0.3-1-1-1.7-2-2C19,0.1,12,0.1,12,0.1s-7,0-8.8,0.5c-1,0.3-1.7,1-2,2C0.8,4.3,0.8,8,0.8,8
	s0,3.7,0.5,5.4c0.3,1,1,1.7,2,2C5,15.9,12,15.9,12,15.9s7,0,8.8-0.5c1-0.3,1.7-1,2-2c0.5-1.8,0.5-5.4,0.5-5.4S23.2,4.3,22.8,2.6z
	 M9.7,11.4V4.7L15.6,8L9.7,11.4L9.7,11.4z"/>
</svg>
