<?xml version="1.0" encoding="UTF-8"?>
<svg version="1.1" viewBox="0 0 856 856" width="150" height="150" xmlns="http://www.w3.org/2000/svg">
<path transform="translate(840,416)" d="m0 0 4 2-1 8-10 7-11 8h-2v2l2-1h21l1 3-1 6h-24l-15-1v-7l8-6 17-11 1-2-6 1h-19l-1-1v-7z" fill="#DAD1A1"/>
<path transform="translate(309,793)" d="m0 0 5 2 3 4 6 19 2 5h1l4-15 3-7h6l-1 10-8 28-5 1-4-2-4-9-5-16-2-1-2 11-3 9-5 1-2-1 1-9 8-28z" fill="#DAD1A1"/>
<path transform="translate(525,32)" d="m0 0h6l4 2 6 23 2 2 5-15 2-5h6l1 5-7 26-4 9-6-3-3-4-6-23v-2l-2 1-6 23h-6l-1-1 1-10 7-25z" fill="#DAD1A1"/>
<path transform="translate(12,420)" d="m0 0h27l12 1 1 4-3 5-17 11-6 4 25 1v8h-39l-1-1v-6l5-5 18-12 1-2h-23l-1-1v-6z" fill="#DAD1A1"/>
<path transform="translate(177,718)" d="m0 0 3 1 5 5 6 4 5 6 1 2v9l-6 10-7 6-4 2h-9l-6-3-8-9-1-6 2-4 4 1 5 10 6 3 6-1 6-5 2-4v-10l-5-4-6 1-1 2 4 5 1 3-1 2-7-1-8-8 1-4 7-9z" fill="#DAD1A1"/>
<path transform="translate(674,109)" d="m0 0h10l8 5 6 8 1 5-4 4-4-5-4-7-3-2h-7l-5 3-5 8v8l4 4 6 1 2-1-1-5-3-5 1-2 6 1 9 7-1 4-10 13-2 1-12-8-7-7-2-9 6-12 9-8z" fill="#DAD1A2"/>
<path transform="translate(47,477)" d="m0 0h7l1 7-7 2-12 2 2 7 1 9 13-2h5l2 6-1 2-17 3-12 2h-11l-1-6 6-2 8-2-1-16-15 1-1-1v-6l8-2z" fill="#DAD1A1"/>
<path transform="translate(826,356)" d="m0 0h11l1 1v5l-1 1-12 2v8l1 9 5-1h10l2 5-1 2-22 4-13 2h-5l-1-8 10-2h8l-2-11v-6l-19 1-1-6 4-2z" fill="#DAD1A1"/>
<path transform="translate(347,27)" d="m0 0h10l5 3 2 5-4 1-3-1h-11l-4 4-1 8 3 10 5 3 8-1 2-1v-6l-8-1-2-2v-3l12-3h5l2 5 3 14-2 2h-7l-7 3h-12l-6-5-4-9-1-11 3-7 5-5z" fill="#DAD1A1"/>
<path transform="translate(504,804)" d="m0 0 9 1 5 4 4 8 1 3v12l-3 6-6 5-11 2-8-2-3-5 1-3 7 2h9l5-5v-11l-3-7-2-2h-9l-4 2 1 6 8 1 1 5-6 2-9 2-3-5-3-13 1-4h8l6-3z" fill="#DAD1A2"/>
<path transform="translate(218,749)" d="m0 0 5 2 2 2-1 7v10l3 2 4-1 6-10 6 1 1 3-14 25-4 6-5 1-9-5-5-4-3-5v-7l4-5 6-2 2-12 1-7zm-4 26-3 3 1 6 6 4 4-1 3-7-4-4z" fill="#DAD1A1"/>
<path transform="translate(631,74)" d="m0 0 6 1 11 7 3 3 1 8-3 6-8 3-2 16-1 3-5-1-2-2 1-17-5-3-4 5-4 7-5-1-1-5 11-20zm4 9-4 4 1 6 4 3h6l2-3-1-7-5-3z" fill="#DAD1A1"/>
<path transform="translate(785,551)" d="m0 0 6 2 11 10 14 11 3 3-1 5-3 5h-26l-15-1-1-2 3-6 3-1h7l3-9v-5l-5-5zm11 18-2 5 1 5h13l-2-4-7-6z" fill="#DAD1A1"/>
<path transform="translate(245,60)" d="m0 0h5l3 4 8 16 6 11-1 5-5 1-5-8-3-6-13 5-2 1 2 6 5 10-2 3h-6l-16-32 1-4 4-1 4 5 3 6 5-1 9-4h2l-5-12z" fill="#DAD1A1"/>
<path transform="translate(615,762)" d="m0 0 4 1 16 32-1 4-4 1-5-6-3-6-6 2-8 4 1 6 3 9-2 2-5-1-10-18-6-12 1-5 5-1 7 13 3 1 12-6-1-5-5-12z" fill="#DAD1A1"/>
<path transform="translate(293,41)" d="m0 0 3 1 10 13 10 12 4 6v2l-7 1-6-5-10 2-3 2-2 10-7 1v-41zm-1 10 1 16 5-1 3-2-1-5-6-8z" fill="#DAD1A1"/>
<path transform="translate(584,50)" d="m0 0 5 1 18 8 1 1v5l-4 1-12-5-4 1v5l11 6 1 6-7-1-7-3-4 1-2 3v4l8 4 7 3v6l-7-1-16-7-3-2 3-9 10-24z" fill="#DAD1A1"/>
<path transform="translate(360,807)" d="m0 0 16 1 10 1 1 4-5 36-16-1-9-1-2-4 1-3h10l9 1v-9l-14-1-1-1v-5l3-1 13 1 2-9-17-2-1-1z" fill="#DAD1A1"/>
<path transform="translate(261,775)" d="m0 0 7 1 19 8-1 5-11 25-3 6-7-1-14-6-4-4 2-5 4 1 12 6h2l1-8-11-5-1-5 4-1 11 4h2l2-4v-5l-14-6-1-4z" fill="#DAD1A1"/>
<path transform="translate(568,785)" d="m0 0h2l1 13v28l-4 3-5 1-6-5-13-17-7-9 1-3h6l5 5 10-2 3-1 2-10zm-7 19-7 4 2 5 6 7 2-1v-10l-1-5z" fill="#DAD1A2"/>
<path transform="translate(42,284)" d="m0 0 40 1-1 4-3 4h-9l-2 8-1 6 6 7-1 5-5-1-14-11-10-9-5-5 3-8zm6 8 2 4 8 6 3-3 2-6-1-1z" fill="#DAD1A1"/>
<path transform="translate(474,23)" d="m0 0 17 1 9 1 1 3-1 4-16-1-3-1-1 10h9l7 1v6l-17-1-1 10 17 2 1 1v6l-16-1-9-1-2-1 1-12 3-24z" fill="#DAD1A1"/>
<path transform="translate(459,810)" d="m0 0 5 1 2 26v13l-3 1h-23v-6l1-1h17l-1-9h-16l-1-4 1-2 16-1-2-10h-18v-6l6-1z" fill="#DAD1A1"/>
<path transform="translate(798,252)" d="m0 0h4l9 20v4l-6 1-6-14v-2l-6 3-1 4 4 9v3l-6 1-6-12-5 1-3 1 2 8 3 8-1 4-3 1-5-8-7-16 6-4 16-7z" fill="#DAD1A1"/>
<path transform="translate(397,20)" d="m0 0h19v5l-1 1-17 1v9h17l1 4-2 2-15 1 1 9h18l1 1v6l-14 1h-12l-2-7-2-32z" fill="#DAD1A1"/>
<path transform="translate(113,162)" d="m0 0 4 1 2 3-9 10-1 4 4 4 5-3 6-7h4v6l-7 9 2 4 5 2 5-5 6-7 5 1-2 6-7 9-5 6-6-1-16-13-10-8 2-5 11-13z" fill="#DAD1A2"/>
<path transform="translate(75,580)" d="m0 0h5l10 20-1 4-14 7-18 8-4-1-8-19v-5h6l5 13v2l8-2-2-9-2-7 1-2 4 1 3 5 4 7 6-2 2-1-1-5-5-11z" fill="#DBD2A4"/>
<path transform="translate(727,665)" d="m0 0 4 1 13 11 11 9 2 2-1 4-8 10-6 6-5-1 4-7 5-7-1-5-4-2-9 10h-5l1-5 6-8-1-4-3-3-5 1-7 10-4 1-2-1 1-6 11-13z" fill="#DAD1A2"/>
<path transform="translate(54,532)" d="m0 0 6 1 5 4 4 8v11l-7 8-5 3-9 2-9-1-6-4-5-10v-9l4-5 4-1 1 1v5l-1 1v7l3 6 3 1h8l8-4 2-2v-8l-3-5-6-4 1-4z" fill="#DAD1A1"/>
<path transform="translate(804,302)" d="m0 0h11l7 4 5 8 1 4v7l-3 5-1 1h-5l-1-4 2-8-3-7-2-1h-11l-6 3-3 4 1 9 4 4 4 3-1 5-7-1-6-5-3-7-1-8 4-8 8-6z" fill="#DAD1A1"/>
<path transform="translate(29,329)" d="m0 0h6l1 4-3 3h-2l-2 4-1 6 3 5 8 4h10l4-5 1-4-3-7-1-4 2-3 5 2 5 7v7l-4 10-5 4-6 2h-8l-10-3-5-4-4-10 2-10z" fill="#DAD1A1"/>
<path transform="translate(805,507)" d="m0 0h14l8 4 5 6 2 4v7l-3 8-5 6-4 1-3-2 2-5 5-6v-7l-4-5-5-2h-12l-5 6 1 7 4 6-1 3h-5l-6-7v-11l3-6 7-6z" fill="#DAD1A1"/>
<path transform="translate(697,698)" d="m0 0 3 2 5 20 16 4 4 2-2 5h-7l-12-3 3 12v6l-3 2h-3l-4-18-3-3-17-4-2-1 2-4 2-2 10 2 8 2-3-14 1-7z" fill="#DBD2A3"/>
<path transform="translate(655,738)" d="m0 0 10 2 8 7 4 8 1 8-3 8-6 5-7 3h-7l-3-3v-4l11-1 5-4 1-2v-7l-4-7-5-4h-8l-4 1-2 11-4 2-4-4 1-6 3-5 5-5z" fill="#DAD1A2"/>
<path transform="translate(152,123)" d="m0 0 3 1 3 16 2 4 19 5 1 4-2 2h-7l-12-4 2 13v8l-4 1-3-6-3-15-21-6 2-4 2-2 8 1 10 3-3-10v-8z" fill="#DAD1A1"/>
<path transform="translate(192,93)" d="m0 0h10l2 5-3 2-9 1-5 5v8l5 8 5 3h6l4-2 2-4 1-7 4-1 3 2v7l-4 7-5 4-5 2h-10l-8-5-6-10-1-3v-9l4-6 6-5z" fill="#DAD1A1"/>
<path transform="translate(149,691)" d="m0 0 4 1 1 5-8 8-6 16-4 10h-3l-2-2v-7l3-12-11 2h-8l-2-2v-4l25-6z" fill="#DAD1A2"/>
<path transform="translate(720,140)" d="m0 0 4 1 1 7-4 14 9-2h11l2 2v3l-16 4-11 4-9 8-5-2v-4l5-5 4-5 8-24z" fill="#DAD1A1"/>
<path transform="translate(770,204)" d="m0 0 5 1 9 16 5 9v2l-3 1-5-3-3-5-11 6-15 9-4-1-2-4 3-3 19-12 4-3-2-5-1-7z" fill="#DAD1A1"/>
<path transform="translate(103,632)" d="m0 0 5 1 1 3-4 4-13 8-9 5 1 5 2 4v5l-3 1-5-5-12-20 1-4 5 1 5 7 14-8z" fill="#DAD1A1"/>
<path transform="translate(98,243)" d="m0 0h3l1 3-8 17-5 5-26-13-7-5v-5l5-1 28 14 2-5 5-9z" fill="#DAD1A1"/>
<path transform="translate(765,603)" d="m0 0 5 1 26 14 3 2 1 5-1 2-7-1-19-10-5-2h-2l-2 6-4 6-4 2-2-3 10-21z" fill="#DAD1A2"/>
<path transform="translate(802,474)" d="m0 0 15 1 21 2 4 2-1 7-17-1-20-2-3-1v-7z" fill="#DAD1A1"/>
<path transform="translate(15,386)" d="m0 0h10l29 3 1 3-1 5h-14l-25-3-1-1v-6z" fill="#DAD1A1"/>
<path transform="translate(440,51)" d="m0 0h6l1 1v7h-7l-2-1v-6z" fill="#DFD8B0"/>
<path transform="translate(410,812)" d="m0 0h6l1 1v6l-4 1-4-1-1-4z" fill="#E7E2C4"/>
</svg>
