<?xml version="1.0" encoding="UTF-8"?>
<svg version="1.1" viewBox="0 0 848 852" width="150" height="150" xmlns="http://www.w3.org/2000/svg">
<path transform="translate(804,409)" d="m0 0h39l1 1v7l-5 4-16 11-3 2h23l1 1v7l-1 1-39-1v-7l9-7 16-10 1-2-3 1h-22l-1-1z" fill="#171717"/>
<path transform="translate(12,412)" d="m0 0h24l15 1 1 3-3 6-24 16h26v8h-39l-1-1 1-9 22-14 1-2h-24v-7z" fill="#1A1A1A"/>
<path transform="translate(309,785)" d="m0 0 5 2 3 4 8 24h1l4-15 3-7h5l1 1-1 8-5 19-4 11-6-1-3-3-8-23-1-1-6 20-4 1-3-1 1-9 8-28z" fill="#191919"/>
<path transform="translate(526,24)" d="m0 0 7 1 3 4 5 20 2 2 5-15 2-5h6l1 5-8 28-2 6-5-1-4-3-7-25-1-2-3 9-4 14-5 1-2-1 1-10 7-25z" fill="#1E1E1E"/>
<path transform="translate(177,710)" d="m0 0 3 1 1 4 6 2 9 8 1 3v8l-5 10-8 7-5 2h-7l-7-3-7-8-2-7 3-4 3 1 5 10 6 3 6-1 6-5 3-9-2-8-4-2-4 1-3 3 5 7-1 3-7-1-8-8 1-4 9-11z" fill="#202020"/>
<path transform="translate(675,101)" d="m0 0h9l6 3 5 5 3 5v7l-4 2-7-12-3-2h-7l-5 3-5 8v8l1 3 4 2h6l1-4-4-5 1-4 5 1 10 7-1 4-9 12-5 1-6-5-5-3-6-6-2-8 3-9 5-7 7-5z" fill="#242424"/>
<path transform="translate(503,796)" d="m0 0h7l6 3 4 5 3 7v14l-4 6-5 4-7 2h-7l-5-2-3-5 1-3 8 2h7l5-3 1-2v-10l-3-8-2-2h-9l-3 1v7l8 1 1 5-6 2-7 1h-3l-2-3-3-14 1-4h8z" fill="#212121"/>
<path transform="translate(347,19)" d="m0 0h10l5 3 1 1v5l-7-1h-10l-4 4-1 9 3 9 5 3 8-1 2-1v-6l-9-2-1-4 12-3h5l3 9 1 11-1 1h-8l-6 3h-12l-6-5-4-9-1-4v-7l3-8 8-6z" fill="#1F1F1F"/>
<path transform="translate(218,742)" d="m0 0 5 1 2 2-1 8v9l3 2 4-1 6-10 6 1 1 3-13 23-6 8-3 1-10-5-5-4-3-4v-9l6-5 4-1 3-18zm-4 25-3 3 1 5 6 5 4-1 2-2 1-5-6-5z" fill="#1D1D1D"/>
<path transform="translate(631,66)" d="m0 0 6 1 11 7 4 5v7l-4 6-7 2-3 19-6-1-1-7 1-5v-7l-3-3-4 2-6 10-5-1-2-3 12-22zm4 9-4 4v5l5 4h6l2-3-1-7-5-3z" fill="#161616"/>
<path transform="translate(49,469)" d="m0 0 5 1v6l-1 1-16 3 2 15 17-1 2 3-1 5-29 5h-9l-2-6 6-2 8-2-1-16-15 1-1-1v-6l15-3z" fill="#1A1A1A"/>
<path transform="translate(615,754)" d="m0 0 4 1 16 32-1 4-4 1-4-4-3-7-7 1-7 4h-2l4 10 1 5-2 2-5-1-9-16-8-17 1-2 5-2 5 8 3 6 6-1 9-3-1-6-5-12z" fill="#1D1D1D"/>
<path transform="translate(827,348)" d="m0 0h10l1 6-1 1-12 2 1 16h15l1 7-30 5-9 1-2-7 5-2 13-1-2-18-2 1-16 1-2-5 1-2 16-3z" fill="#191919"/>
<path transform="translate(247,51)" d="m0 0 4 1 10 20 6 11-1 5-5 1-5-8-3-6-10 4-6 2 7 14-1 5-5 1-12-22-5-11 1-4 4-1 4 5 3 6 5-1 9-4h2l-5-12 1-5z" fill="#181818"/>
<path transform="translate(293,33)" d="m0 0 7 6 11 14 9 12-1 3h-6l-6-5-10 2-4 1v9l-3 3-5-1v-40zm-1 11 1 15 5-1 4-4-7-10z" fill="#292929"/>
<path transform="translate(786,543)" d="m0 0 7 4 10 9 10 8 6 5-1 4-3 6h-14l-25-1-2-1 1-5 1-2h11l2-10v-5l-5-5 1-6zm10 18-3 9 1 1h14l-2-4-8-6z" fill="#1F1F1F"/>
<path transform="translate(41,276)" d="m0 0h15l26 1-2 6-2 2h-9l-1 6-2 4 1 5 5 6-1 5-5-1-14-11-10-9-5-5 2-7zm7 8 2 4 8 6 2-1 3-8-1-1z" fill="#1C1C1C"/>
<path transform="translate(568,777)" d="m0 0 2 1 1 14v26l-4 3-5 1-7-6-10-13-9-12v-3h7l5 5 10-2 3-1 2-10zm-7 19-7 4 2 5 5 6h3l-1-15z" fill="#262626"/>
<path transform="translate(585,42)" d="m0 0 9 3 14 7v5l-3 1-12-5-5 1-1 6 9 3 4 4-1 4-6-1-10-3-3 4v4l14 7 1 5-5 1-18-8-3-2 3-9 11-25z" fill="#282828"/>
<path transform="translate(261,767)" d="m0 0 7 1 19 8-1 5-12 27-2 4-7-1-16-7-2-4 4-4 14 7h3v-8l-12-6 1-5 7 1 9 3 2-4v-5l-14-6-1-4z" fill="#202020"/>
<path transform="translate(459,802)" d="m0 0 5 1 2 25v14l-8 1h-18v-6l1-1h17l-1-9h-16l-1-4 1-2 16-1-2-10h-18v-6l6-1z" fill="#202020"/>
<path transform="translate(797,244)" d="m0 0h5l7 15 2 5v4l-6 1-6-14v-2l-7 4 1 5 3 10-6 1-6-12-5 1-2 1v6l4 10-1 4h-4l-8-16-3-7 4-3 27-12z" fill="#1D1D1D"/>
<path transform="translate(474,15)" d="m0 0 16 1 9 1 1 1v6l-16-1-3-1v9l15 2v6l-17-1-1 10 17 2 1 1v6l-15-1-11-2-1-3 4-32z" fill="#202020"/>
<path transform="translate(360,799)" d="m0 0 16 1 9 1 1 1v10l-4 28-1 1-14-1-11-2-1-4 1-2 18 1 1-9-14-1-1-1v-5l3-1 13 1 2-9-16-2-2-1z" fill="#222"/>
<path transform="translate(114,154)" d="m0 0 4 2v3l-9 11 2 5 3 1 5-4 5-6h4l1 4-9 13 8 4 5-5 6-7 5 1-1 5-8 10-6 7-6-3-13-10-12-10 2-5 11-13z" fill="#232323"/>
<path transform="translate(76,571)" d="m0 0 4 1 10 20-1 4-14 7-19 8-3-1-8-19v-5h6l5 12 1 2 8-1-5-14 1-4 4 1 3 4 4 8 7-3 1-3-6-13z" fill="#212121"/>
<path transform="translate(396,12)" d="m0 0h19l1 5-1 1-17 1v9h17v5l-1 1-15 1 1 9h17l2 2-1 5-12 1h-14l-2-20v-19z" fill="#181818"/>
<path transform="translate(727,657)" d="m0 0 5 2 17 14 8 7-1 4-7 9-5 6-4 2-2-1 1-5 7-10-1-5-5-1-8 9h-5l1-5 6-8-1-5-3-2h-5l-2 4-6 7-4 1-2-3 6-9 8-10z" fill="#222"/>
<path transform="translate(152,115)" d="m0 0 3 1 4 19 13 4 8 3-1 4-6 2-13-4 1 11v9l-4 1-3-7-3-14-21-6 3-5 1-1 8 1 9 2-2-9v-8z" fill="#212121"/>
<path transform="translate(55,524)" d="m0 0 6 2 5 5 3 6v10l-4 6-6 5-9 3h-8l-7-3-5-6-2-5v-10l4-5 4-1 1 5-1 2v7l3 6 3 1h8l8-4 3-4-1-8-5-4-4-3 1-4z" fill="#1B1B1B"/>
<path transform="translate(697,690)" d="m0 0h2l3 10 3 11 7 3 11 3 2 3-2 3h-8l-11-3 3 12-1 7-4 1-2-3-3-15-1-2-21-6 2-4 2-2 8 1 10 3-3-14 1-7z" fill="#1F1F1F"/>
<path transform="translate(804,294)" d="m0 0h11l6 3 6 9 1 11-3 5-5 1-2-4 1-3v-9l-4-4h-10l-7 3-3 4v7l3 5 6 3v5h-8l-5-4-3-5-1-4v-10l4-6 7-5z" fill="#272727"/>
<path transform="translate(655,730)" d="m0 0 8 1 6 4 6 7 3 8-1 9-4 6-8 5-3 1h-7l-3-4v-3l11-1 5-4 1-2-1-9-4-6-4-3-5-1-6 3-2 3-1 7-2 2-4-1-2-3 1-7 5-7 7-4z" fill="#262626"/>
<path transform="translate(192,85)" d="m0 0h10l2 5-2 2-10 1-5 5-1 5 5 10 6 4h6l5-4 2-9 4-1 3 2v7l-3 6-6 5-5 2h-10l-8-5-6-10-1-3v-9l3-5 7-6z" fill="#232323"/>
<path transform="translate(29,321)" d="m0 0h6l1 4-3 3h-2l-2 4-1 6 3 5 4 3 4 1h10l4-4 1-6-4-8 2-5 5 2 5 7v7l-3 8-4 5-8 3h-8l-10-3-5-4-3-6v-11l4-8z" fill="#232323"/>
<path transform="translate(805,499)" d="m0 0h14l8 4 5 6 2 4v7l-3 8-5 6-7-1 1-4 6-7v-7l-4-5-5-2h-11l-5 4-1 5 2 5 3 6-1 2h-5l-6-7v-11l3-6 5-5z" fill="#232323"/>
<path transform="translate(149,683)" d="m0 0 4 1 1 4-7 8-4 8-6 18-4 2-2-3v-7l4-13-12 3h-8l-2-2v-3l18-5 8-3z" fill="#252525"/>
<path transform="translate(720,132)" d="m0 0 4 1 1 7-4 14 17-3 5 3-1 3-15 4-11 4-9 7-5-1 1-5 4-5 4-4 8-24z" fill="#262626"/>
<path transform="translate(770,196)" d="m0 0 4 1 9 14 6 11v2h-6l-5-7-11 6-15 9-5-1-1-5 9-6 16-10v-4l-2-4z" fill="#202020"/>
<path transform="translate(105,623)" d="m0 0 4 4-2 4-23 14h-2l4 9-1 5-2 1-5-5-12-20v-3l5-1 5 7 5-1 18-11z" fill="#1C1C1C"/>
<path transform="translate(97,235)" d="m0 0h4l-1 7-8 17-3 1-26-13-7-5 1-6 7 1 25 13 2-5 5-9z" fill="#222"/>
<path transform="translate(765,595)" d="m0 0 5 1 24 13 5 3 1 5-1 2-7-1-23-12h-2l-6 11-3 3-4-2 4-10 6-12z" fill="#272727"/>
<path transform="translate(802,466)" d="m0 0 33 3 6 1v8l-16-1-20-2-3-1-1-6z" fill="#1D1D1D"/>
<path transform="translate(15,378)" d="m0 0 18 1 19 2 2 1v7h-12l-27-3-1-1v-6z" fill="#1C1C1C"/>
<path transform="translate(440,43)" d="m0 0h6l1 1v6l-1 1-7-1-1-5z" fill="#2D2D2D"/>
<path transform="translate(410,804)" d="m0 0h6l1 1v6l-5 1-3-1-1-4z" fill="#161616"/>
<path transform="translate(704,723)" d="m0 0 2 4 1 10-3 3-2-1 2-7z" fill="#E1E1E1"/>
</svg>
