<?xml version="1.0" encoding="UTF-8"?>
<svg id="Layer_1" data-name="Layer 1" xmlns="http://www.w3.org/2000/svg" width="100" height="96" viewBox="0 0 100 96">
  <defs>
    <style>
      .cls-1 {
        fill: #0db0e6;
      }
    </style>
  </defs>
  <path class="cls-1" d="M50.68,8.95c-1.23,0-2.23-.39-3-1.16-.76-.78-1.14-1.81-1.14-3.1v-.24c0-.86,.17-1.63,.5-2.31,.34-.68,.8-1.21,1.41-1.59,.6-.38,1.27-.57,2.01-.57,1.18,0,2.08,.37,2.72,1.12,.64,.75,.97,1.81,.97,3.18v.78h-5.65c.06,.71,.3,1.28,.71,1.69,.42,.41,.95,.62,1.58,.62,.89,0,1.61-.36,2.17-1.08l1.05,1c-.35,.52-.81,.92-1.39,1.2-.57,.28-1.22,.42-1.94,.42Zm-.23-7.39c-.53,0-.96,.19-1.29,.56-.32,.37-.53,.89-.62,1.56h3.7v-.14c-.04-.65-.22-1.14-.52-1.47-.3-.34-.72-.5-1.26-.5Z"/>
  <path class="cls-1" d="M39.07,7.02c0,1.23-1,2.22-2.22,2.22s-2.22-1-2.22-2.22,1-2.22,2.22-2.22,2.22,1,2.22,2.22Z"/>
  <path class="cls-1" d="M65.99,89.62c0,1.23-1,2.22-2.22,2.22s-2.22-1-2.22-2.22,1-2.22,2.22-2.22,2.22,1,2.22,2.22Z"/>
  <path class="cls-1" d="M63.91,5.2l2.44-2.19,2.05,.67-3.83,3.23,1.24,5.01-2.04-.66-.73-3.34-2.55,2.28-2.05-.67,3.95-3.32-1.19-4.86,2.04,.66,.66,3.2Z"/>
  <path class="cls-1" d="M78.98,15.34c-.79,1.08-1.66,1.76-2.62,2.05-.96,.28-1.85,.13-2.68-.47-.77-.56-1.2-1.25-1.29-2.09l-2.41,3.31-1.57-1.14,7.03-9.67,1.45,1.05-.45,.76c.87-.22,1.7-.05,2.49,.53,.85,.62,1.29,1.42,1.31,2.41,.03,.99-.37,2.04-1.19,3.17l-.07,.1Zm-1.47-1.27c.51-.7,.77-1.35,.79-1.96,.02-.61-.23-1.1-.74-1.48-.64-.47-1.3-.54-1.96-.21l-2.25,3.1c-.11,.75,.16,1.36,.8,1.83,.5,.36,1.04,.45,1.61,.25,.58-.2,1.17-.71,1.76-1.52Z"/>
  <path class="cls-1" d="M82.03,25.6c-.72-.99-1-2.03-.82-3.1,.18-1.07,.79-1.99,1.84-2.74l.19-.14c.7-.51,1.42-.82,2.16-.95,.75-.13,1.45-.06,2.11,.2,.66,.26,1.21,.7,1.64,1.29,.69,.95,.92,1.9,.69,2.86-.23,.96-.9,1.85-2.01,2.65l-.63,.46-3.32-4.56c-.54,.47-.86,.99-.95,1.57-.09,.58,.05,1.13,.43,1.64,.52,.72,1.24,1.09,2.15,1.12l-.19,1.43c-.62,.02-1.22-.11-1.79-.41-.57-.3-1.06-.74-1.48-1.32Zm5.85-4.53c-.31-.43-.72-.67-1.21-.72-.49-.04-1.03,.09-1.63,.41l2.17,2.99,.12-.08c.5-.42,.8-.84,.88-1.28,.09-.44-.02-.88-.33-1.32Z"/>
  <path class="cls-1" d="M94.77,36.53c-.04-.26-.1-.51-.18-.77-.27-.84-.78-1.31-1.53-1.39l-5.62,1.82-.6-1.84,8.22-2.67,.57,1.76-.9,.34c.86,.21,1.42,.71,1.67,1.5,.09,.26,.12,.49,.11,.69l-1.73,.55Z"/>
  <path class="cls-1" d="M100,48.7h-2.1v1.52h-1.44v-1.52h-4.82c-.33,0-.57,.06-.72,.19-.14,.13-.22,.37-.22,.7,0,.22,.03,.45,.08,.68h-1.5c-.12-.44-.18-.87-.18-1.28,0-1.49,.82-2.23,2.47-2.23h4.9v-1.42h1.44v1.42h2.1v1.94Z"/>
  <path class="cls-1" d="M87.04,61.03l.6-1.84,8.22,2.67-.6,1.84-8.22-2.67Zm10.99,1.4c.28,.09,.49,.26,.62,.49,.13,.24,.14,.53,.03,.86-.11,.33-.29,.56-.53,.68-.25,.12-.51,.14-.8,.04-.28-.09-.48-.26-.61-.5-.12-.24-.13-.53-.02-.86,.11-.33,.28-.56,.53-.68,.24-.12,.51-.13,.79-.04Z"/>
  <path class="cls-1" d="M82.71,73.73c.28,.2,.58,.24,.89,.12,.31-.12,.72-.41,1.22-.86,.5-.45,.97-.79,1.4-1.03,.95-.51,1.78-.5,2.5,.02,.6,.44,.92,1.06,.96,1.86,.04,.8-.23,1.59-.8,2.38-.61,.83-1.3,1.36-2.09,1.57-.79,.22-1.51,.09-2.17-.39l1.14-1.57c.3,.22,.63,.29,.99,.21,.37-.08,.68-.3,.95-.67,.25-.34,.38-.68,.38-1.02,0-.33-.14-.59-.4-.79-.24-.18-.5-.21-.78-.1s-.71,.42-1.3,.93c-.58,.52-1.09,.88-1.54,1.09-.44,.22-.86,.32-1.24,.29-.39-.02-.77-.16-1.14-.44-.63-.46-.95-1.09-.96-1.89,0-.8,.29-1.62,.91-2.47,.42-.57,.89-1.01,1.42-1.3,.53-.3,1.07-.44,1.61-.43,.54,.01,1.02,.17,1.44,.47l-1.11,1.52c-.39-.25-.77-.32-1.16-.2-.39,.11-.73,.38-1.04,.81-.3,.41-.45,.78-.45,1.11,0,.33,.13,.59,.39,.77Z"/>
  <path class="cls-1" d="M72.43,79.99c1-.72,2.03-1,3.1-.82,1.07,.18,1.99,.79,2.75,1.83l.14,.19c.51,.7,.83,1.42,.96,2.16,.13,.75,.06,1.45-.2,2.11-.26,.66-.7,1.21-1.29,1.64-.95,.69-1.91,.92-2.87,.69-.96-.23-1.85-.9-2.66-2.01l-.46-.63,4.57-3.32c-.47-.54-.99-.86-1.57-.95-.58-.09-1.13,.05-1.65,.42-.72,.52-1.09,1.24-1.12,2.15l-1.43-.19c-.02-.62,.11-1.22,.42-1.79,.3-.57,.74-1.06,1.32-1.48Zm4.54,5.85c.43-.31,.67-.72,.72-1.21,.04-.49-.09-1.03-.41-1.62l-2.99,2.17,.08,.12c.42,.5,.84,.79,1.28,.88,.44,.09,.88-.02,1.32-.33Z"/>
  <path class="cls-1" d="M49.32,87.05c1.23,0,2.23,.39,3,1.16,.76,.78,1.14,1.81,1.14,3.1v.24c0,.86-.17,1.63-.5,2.31-.34,.68-.8,1.21-1.41,1.59s-1.27,.57-2.01,.57c-1.18,0-2.08-.37-2.72-1.12-.64-.75-.97-1.81-.97-3.18v-.78h5.65c-.06-.71-.3-1.28-.71-1.69-.42-.41-.95-.62-1.58-.62-.89,0-1.61,.36-2.17,1.08l-1.05-1c.35-.52,.81-.92,1.39-1.2,.57-.28,1.22-.42,1.94-.42Zm.23,7.39c.53,0,.96-.19,1.29-.56,.32-.37,.53-.89,.62-1.56h-3.7v.14c.04,.65,.22,1.14,.52,1.47,.3,.33,.72,.5,1.26,.5Z"/>
  <path class="cls-1" d="M36.09,90.8l-2.44,2.19-2.05-.67,3.83-3.23-1.24-5.01,2.04,.66,.73,3.34,2.55-2.28,2.05,.67-3.95,3.32,1.19,4.86-2.04-.66-.66-3.2Z"/>
  <path class="cls-1" d="M21.02,80.66c.79-1.08,1.66-1.76,2.62-2.05,.96-.28,1.85-.13,2.68,.47,.77,.56,1.2,1.25,1.29,2.09l2.41-3.31,1.57,1.14-7.03,9.67-1.45-1.05,.45-.76c-.87,.22-1.7,.05-2.49-.53-.85-.62-1.29-1.42-1.31-2.41-.03-.99,.37-2.04,1.19-3.17l.07-.1Zm1.47,1.27c-.51,.7-.77,1.35-.79,1.96-.02,.61,.23,1.1,.74,1.48,.64,.47,1.3,.54,1.96,.21l2.25-3.1c.11-.75-.16-1.36-.8-1.83-.5-.36-1.04-.45-1.61-.25-.58,.2-1.17,.71-1.76,1.52Z"/>
  <path class="cls-1" d="M17.97,70.4c.72,.99,1,2.03,.82,3.1-.18,1.07-.79,1.99-1.84,2.74l-.19,.14c-.7,.51-1.42,.82-2.16,.95-.75,.13-1.45,.06-2.11-.2-.66-.26-1.21-.7-1.64-1.29-.69-.95-.92-1.9-.69-2.86,.23-.96,.9-1.85,2.01-2.65l.63-.46,3.32,4.56c.54-.47,.86-.99,.95-1.57,.09-.58-.05-1.13-.43-1.64-.52-.72-1.24-1.09-2.15-1.12l.19-1.43c.62-.02,1.22,.11,1.79,.41,.57,.3,1.06,.74,1.48,1.32Zm-5.85,4.53c.31,.43,.72,.67,1.21,.72,.49,.04,1.03-.09,1.63-.41l-2.17-2.99-.12,.08c-.5,.42-.8,.84-.88,1.28-.09,.44,.02,.88,.33,1.32Z"/>
  <path class="cls-1" d="M5.23,59.47c.04,.26,.1,.51,.18,.77,.27,.84,.78,1.31,1.53,1.39l5.62-1.82,.6,1.84-8.22,2.67-.57-1.76,.9-.34c-.86-.21-1.42-.71-1.67-1.5-.09-.26-.12-.49-.11-.69l1.73-.55Z"/>
  <path class="cls-1" d="M0,47.3H2.1v-1.52h1.44v1.52h4.82c.33,0,.57-.06,.72-.19,.14-.13,.22-.37,.22-.7,0-.22-.03-.45-.08-.68h1.5c.12,.44,.18,.87,.18,1.28,0,1.49-.82,2.23-2.47,2.23H3.54v1.42h-1.44v-1.42H0v-1.94Z"/>
  <path class="cls-1" d="M12.96,34.97l-.6,1.84-8.22-2.67,.6-1.84,8.22,2.67Zm-10.99-1.4c-.28-.09-.49-.26-.62-.49-.13-.24-.14-.53-.03-.86,.11-.33,.29-.56,.53-.68s.51-.14,.8-.04c.28,.09,.48,.26,.61,.5,.12,.24,.13,.53,.02,.86s-.28,.56-.53,.68c-.24,.12-.51,.13-.79,.04Z"/>
  <path class="cls-1" d="M17.29,22.27c-.28-.2-.58-.24-.89-.12-.31,.12-.72,.41-1.22,.86-.5,.45-.97,.79-1.4,1.03-.95,.51-1.78,.5-2.5-.02-.6-.44-.92-1.06-.96-1.86-.04-.8,.23-1.59,.8-2.38,.61-.83,1.3-1.36,2.09-1.57,.79-.22,1.51-.09,2.17,.39l-1.14,1.57c-.3-.22-.63-.29-.99-.21-.37,.08-.68,.3-.95,.67-.25,.34-.38,.68-.38,1.02,0,.33,.14,.59,.41,.79,.24,.18,.5,.21,.78,.1,.28-.11,.71-.42,1.3-.93,.58-.52,1.09-.88,1.54-1.09,.44-.22,.86-.32,1.24-.29,.39,.02,.77,.16,1.14,.44,.63,.46,.95,1.09,.96,1.89,0,.8-.29,1.62-.91,2.47-.42,.57-.89,1.01-1.42,1.3-.53,.3-1.07,.44-1.61,.43-.54-.01-1.02-.17-1.44-.47l1.11-1.52c.39,.25,.77,.32,1.16,.2,.39-.11,.73-.38,1.04-.81,.3-.41,.45-.78,.45-1.11,0-.33-.13-.59-.39-.77Z"/>
  <path class="cls-1" d="M27.57,16.01c-1,.72-2.03,1-3.1,.82-1.07-.18-1.99-.79-2.75-1.83l-.14-.19c-.51-.7-.83-1.42-.96-2.16-.13-.75-.06-1.45,.2-2.11,.26-.66,.7-1.21,1.3-1.64,.95-.69,1.91-.92,2.87-.69,.96,.23,1.85,.9,2.66,2.01l.46,.63-4.57,3.32c.47,.54,.99,.86,1.57,.95,.58,.09,1.13-.05,1.65-.43,.72-.52,1.09-1.24,1.12-2.15l1.43,.19c.02,.62-.11,1.22-.42,1.79-.3,.57-.74,1.06-1.32,1.48Zm-4.54-5.85c-.43,.31-.67,.72-.72,1.21-.04,.49,.09,1.03,.41,1.62l2.99-2.17-.08-.12c-.42-.5-.84-.79-1.28-.88-.44-.09-.88,.02-1.32,.33Z"/>
</svg>