<?xml version="1.0" encoding="UTF-8"?>
<svg id="Layer_1" data-name="Layer 1" xmlns="http://www.w3.org/2000/svg" width="90" height="24" viewBox="0 0 90 24">
  <defs>
    <style>
      .cls-1 {
        fill: #e12726;
      }

      .cls-2 {
        fill: #fff;
      }

      .cls-3 {
        fill: #7bb842;
      }

      .cls-4 {
        fill: #4dab47;
      }
    </style>
  </defs>
  <g>
    <path class="cls-3" d="M5.46,20.47c0-.47,.24-.89,.58-1.1h-1.57v-.5h4v.5h-.56c.33,.18,.61,.56,.61,1.1,0,.8-.62,1.41-1.54,1.41s-1.52-.61-1.52-1.41Zm.43-.09c0,.54,.4,1,1.09,1s1.11-.46,1.11-1-.41-1.01-1.1-1.01-1.1,.47-1.1,1.01Z"/>
    <path class="cls-3" d="M4.69,18.13c-.19,0-.34-.15-.34-.34,0-.18,.15-.32,.34-.32s.34,.15,.34,.32c0,.19-.15,.34-.34,.34Zm.82-.08v-.49h2.97v.49h-2.97Z"/>
    <path class="cls-3" d="M5.46,15.49c0-.54,.27-.93,.59-1.1h-.54v-.5h3.03c.82,0,1.4,.55,1.4,1.42,0,.78-.4,1.34-1.03,1.43v-.49c.36-.11,.6-.46,.6-.95,0-.52-.34-.92-.97-.92h-.62c.32,.18,.61,.56,.61,1.1,0,.8-.62,1.41-1.54,1.41s-1.52-.61-1.52-1.41Zm.43-.1c0,.54,.4,1,1.09,1s1.11-.46,1.11-1-.41-1.01-1.1-1.01-1.1,.47-1.1,1.01Z"/>
    <path class="cls-3" d="M4.69,13.14c-.19,0-.34-.15-.34-.34,0-.18,.15-.32,.34-.32s.34,.15,.34,.32c0,.19-.15,.34-.34,.34Zm.82-.08v-.49h2.97v.49h-2.97Z"/>
    <path class="cls-3" d="M5.91,11.62v.38h-.41v-.38h-.75v-.49h.75v-.77h.41v.77h1.75c.29,0,.39-.11,.39-.41v-.36h.42v.44c0,.52-.22,.82-.81,.82h-1.75Z"/>
    <path class="cls-3" d="M5.46,8.53c0-.55,.28-.93,.59-1.1h-.54v-.5h2.97v.5h-.55c.32,.18,.6,.56,.6,1.11,0,.79-.62,1.4-1.54,1.4s-1.52-.61-1.52-1.41Zm.43-.1c0,.54,.4,1,1.09,1s1.11-.46,1.11-1-.41-1.01-1.1-1.01-1.1,.47-1.1,1.01Z"/>
    <path class="cls-3" d="M4.47,6.1v-.49h4v.49H4.47Z"/>
    <path class="cls-3" d="M8.52,3.48c0,.84-.6,1.47-1.54,1.47s-1.53-.6-1.53-1.47,.61-1.42,1.42-1.42c.11,0,.19,0,.3,.02v2.37c.6-.04,.93-.46,.93-.96,0-.44-.23-.73-.55-.83v-.53c.54,.15,.96,.63,.96,1.36Zm-1.75,.96v-1.87c-.58,0-.9,.43-.9,.94,0,.48,.32,.88,.9,.94Z"/>
  </g>
  <g>
    <path class="cls-2" d="M38.41,14.01c0,1.69-.31,3.96-2.61,3.96s-2.61-2.27-2.61-3.96,.31-3.93,2.61-3.93,2.61,2.24,2.61,3.93m6.08,0c0-4.42-2.7-8.35-8.69-8.35s-8.69,3.93-8.69,8.35,2.7,8.38,8.69,8.38,8.69-3.96,8.69-8.38Zm16.38-2.12c0-3.07,.06-6.23-7.55-6.23-1.87,0-3.9,.18-5.43,.92-1.57,.74-2.67,2.06-2.76,4.3h1.69c-.15-.36-.22-.77-.21-1.19,.03-.95,.78-2.68,2.52-2.67,1.75,.02,2.14,1.72,2.14,1.72,.07-.71-.29-1.16-.29-1.16,.74-.77,3.36-.76,3.99,0,0,0-.36,.46-.29,1.16,0,0,.4-1.7,2.14-1.72,1.75-.02,2.49,1.72,2.52,2.67,.05,1.36-.86,2.67-2.34,2.46,0,0-.58,3.02-4.03,3.02-.22,0-.43-.01-.63-.04-.68-.08-1.62,.46-1.89,1.07-.18,.42-.33,1.38,.13,1.82,.46,.44,.55,.67,.4,.83-.15,.17-.81-.31-.81-.31,.28,.39,.88,.59,1.21,.79,.33,.19,.17,.62-.09,.51-.26-.1-.49-.32-.49-.32,.1,.25,.52,.54,.55,.71,.03,.17-.14,.25-.27,.2s-.81-.65-.81-.65c.11,.21,.57,.58,.73,.74,.16,.16-.04,.44-.28,.33-.24-.12-.76-.56-.76-.56,.42,.58,.55,.68,.38,.8-.17,.12-.83-.03-1.75-1.13-2.09-2.53-1.54-5.34,.62-7.18-2.64,.42-4.82,1.9-4.82,4.79,0,3.35,2.55,4.82,5.62,4.82,1.97,0,3.84-.43,5.13-1.9h.06c-.03,.43,.06,1.07,.21,1.5h6.2c-.68-1.01-.74-2.36-.74-3.56v-6.54Zm-7.9,2.84c1.45,0,1.48-2.95,0-3.72-1.48,.77-1.45,3.72,0,3.72Zm-.31-2.9c-.22,.56-.33,1.23-.33,1.86-.29-.53-.18-1.33,.33-1.86Zm1.39-.53c0,.32,.26,.59,.59,.59s.59-.26,.59-.59-.26-.59-.59-.59-.59,.26-.59,.59Zm-2.16,0c0-.32-.26-.59-.59-.59s-.59,.26-.59,.59,.26,.59,.59,.59,.59-.26,.59-.59Zm3.54-2.55c1.13-1.52,4.04,.31,2.4,2.46,2.79-1.51-.95-5.36-2.4-2.46Zm-7.33,2.46c-1.64-2.15,1.27-3.98,2.4-2.46-1.45-2.9-5.19,.95-2.4,2.46Zm13.76,10.78h6.08V1.6h-6.08V22Zm23.04-10.1c0-3.07,.06-6.23-7.55-6.23-1.87,0-3.9,.18-5.43,.92-1.57,.74-2.67,2.06-2.76,4.3h5.65c.03-.68,.4-1.63,2.27-1.63,.98,0,2,.4,2,1.47,0,1.01-.83,1.26-1.66,1.41-3.1,.58-9,.4-9,5.43,0,3.35,2.55,4.82,5.62,4.82,1.97,0,3.84-.43,5.13-1.9h.06c-.03,.43,.06,1.07,.22,1.5h6.2c-.68-1.01-.74-2.36-.74-3.56v-6.54Zm-5.83,4.42c-.09,1.66-1.17,2.49-2.55,2.49-1.11,0-1.9-.74-1.9-1.47,0-1.07,.71-1.41,2.06-1.72,.83-.18,1.66-.4,2.4-.77v1.47ZM10.98,22h6.08v-4.61l1.07-1.17,3.25,5.77h7.31l-6.57-9.92,5.68-6.02h-6.88l-3.87,4.61V1.6h-6.08V22Z"/>
    <g>
      <path class="cls-3" d="M50.67,15.88c.12-.12,.25-.24,.38-.34-.15,.1-.28,.22-.38,.34Z"/>
      <path class="cls-1" d="M50.33,21.23c-.11,.05-.22,.09-.34,.13,.11-.04,.23-.08,.34-.13Z"/>
      <path class="cls-1" d="M50.66,21.07c-.07,.04-.15,.08-.22,.11,.07-.04,.15-.07,.22-.11Z"/>
      <path class="cls-1" d="M50.98,20.87c-.07,.05-.14,.09-.21,.14,.07-.04,.14-.09,.21-.14Z"/>
      <path class="cls-3" d="M52.86,15.18c-.06-.15-.12-.3-.19-.44-.57,.13-1.12,.4-1.62,.8-.13,.11-.26,.22-.38,.34-.09,.11-.17,.22-.22,.34-.1,.23-.19,.63-.18,1.01,1.11-.08,2.05,.17,2.75,.55-.06,.32-.19,.67-.32,1.02,.58-1.24,.55-2.55,.15-3.62Z"/>
      <path class="cls-4" d="M50.28,17.23c.01,.31,.1,.61,.31,.81,.46,.44,.55,.67,.4,.83-.15,.17-.81-.31-.81-.31,.28,.39,.88,.59,1.21,.79,.33,.19,.17,.62-.09,.51-.26-.1-.49-.32-.49-.32,.1,.25,.52,.54,.55,.71,.03,.17-.14,.25-.27,.2-.13-.05-.81-.65-.81-.65,.11,.21,.57,.58,.73,.74,.16,.16-.04,.44-.28,.33-.24-.12-.76-.56-.76-.56,.42,.58,.55,.68,.38,.8-.12,.08-.47,.04-.97-.35,.07,.25,.17,.49,.28,.71,.11-.03,.23-.06,.34-.1,.11-.04,.23-.08,.34-.13,.04-.02,.07-.03,.11-.05,.07-.04,.15-.07,.22-.11,.04-.02,.07-.04,.11-.06,.07-.04,.14-.09,.21-.14,.14-.1,.28-.2,.41-.31,.07-.06,.13-.12,.2-.18s.13-.12,.19-.19c.37-.39,.69-.86,.94-1.39,.13-.35,.26-.69,.32-1.02-.7-.38-1.64-.64-2.75-.55Z"/>
    </g>
  </g>
</svg>