<svg width="24" height="16" viewBox="0 0 24 16" fill="none" xmlns="http://www.w3.org/2000/svg">
<mask id="mask0" mask-type="alpha" maskUnits="userSpaceOnUse" x="0" y="0" width="24" height="16">
<rect width="24" height="16" fill="#C4C4C4"/>
</mask>
<g mask="url(#mask0)">
<path d="M27.4481 18.4831H-3.44825C-3.75294 18.4831 -4 18.236 -4 17.9313V-1.93067C-4 -2.23536 -3.75294 -2.48242 -3.44825 -2.48242H27.4482C27.7529 -2.48242 27.9999 -2.23536 27.9999 -1.93067V17.9313C27.9999 18.236 27.7528 18.4831 27.4481 18.4831Z" fill="#41479B"/>
<path d="M27.9999 -1.93067C27.9999 -2.23536 27.7528 -2.48242 27.4481 -2.48242H24.9797L14.7585 4.21424V-2.48242H9.24126V4.21424L-0.979887 -2.48242H-3.44825C-3.75294 -2.48242 -4 -2.23536 -4 -1.93067V-0.503742L4.76928 5.24167H-4V10.7589H4.76928L-4 16.5044V17.9313C-4 18.236 -3.75294 18.4831 -3.44825 18.4831H-0.979824L9.24139 11.7864V18.4831H14.7586V11.7864L24.9798 18.4831H27.4483C27.7529 18.4831 28 18.236 28 17.9313V16.5044L19.2307 10.759H27.9999V5.24174H19.2306L27.9999 -0.503742V-1.93067Z" fill="#F5F5F5"/>
<path d="M27.9999 6.34517H13.6551V-2.48242H10.3448V6.34517H-4V9.65547H10.3448V18.4831H13.6551V9.65547H27.9999V6.34517Z" fill="#FF4B55"/>
<path d="M7.18421 10.7588L-3.98438 18.0086C-3.94531 18.275 -3.72563 18.4829 -3.44831 18.4829H-2.68838L9.21095 10.7589H7.18421V10.7588Z" fill="#FF4B55"/>
<path d="M17.6492 10.7588H15.6224L27.5045 18.4715C27.7814 18.442 28 18.2159 28 17.9311V17.4775L17.6492 10.7588Z" fill="#FF4B55"/>
<path d="M-4 -1.32172L6.11115 5.24163H8.13789L-3.67856 -2.42871C-3.86731 -2.34102 -4 -2.15259 -4 -1.93078V-1.32172Z" fill="#FF4B55"/>
<path d="M16.7852 5.24167L27.9806 -2.02561C27.9341 -2.28324 27.7191 -2.48242 27.448 -2.48242H26.6576L14.7584 5.24167H16.7852Z" fill="#FF4B55"/>
</g>
</svg>
