<?xml version="1.0" encoding="utf-8"?>
<!-- Generator: Adobe Illustrator 24.0.1, SVG Export Plug-In . SVG Version: 6.00 Build 0)  -->
<svg version="1.1" id="Layer_1" xmlns="http://www.w3.org/2000/svg" xmlns:xlink="http://www.w3.org/1999/xlink" x="0px" y="0px"
	 width="24px" height="16px" viewBox="0 0 24 16" style="enable-background:new 0 0 24 16;" xml:space="preserve">
<style type="text/css">
	.st0{fill:#FFFFFF;}
</style>
<path class="st0" d="M12,4C9.8,4,8,5.8,8,8s1.8,4,4,4s4-1.8,4-4S14.2,4,12,4z M12,10.6c-1.4,0-2.6-1.2-2.6-2.6s1.2-2.6,2.6-2.6
	s2.6,1.2,2.6,2.6S13.4,10.6,12,10.6L12,10.6z M17.1,3.8c0,0.5-0.4,0.9-0.9,0.9c-0.5,0-0.9-0.4-0.9-0.9s0.4-0.9,0.9-0.9
	C16.7,2.9,17.1,3.3,17.1,3.8z M19.8,4.8c-0.1-1.3-0.3-2.4-1.3-3.3c-0.9-0.9-2-1.2-3.3-1.3c-1.3-0.1-5.2-0.1-6.4,0
	C7.5,0.3,6.4,0.6,5.5,1.5s-1.2,2-1.3,3.3c-0.1,1.3-0.1,5.2,0,6.4c0.1,1.3,0.3,2.4,1.3,3.3c0.9,0.9,2,1.2,3.3,1.3
	c1.3,0.1,5.2,0.1,6.4,0c1.3-0.1,2.4-0.3,3.3-1.3c0.9-0.9,1.2-2,1.3-3.3C19.8,9.9,19.8,6.1,19.8,4.8L19.8,4.8z M18.1,12.6
	c-0.3,0.7-0.8,1.2-1.5,1.5c-1,0.4-3.5,0.3-4.6,0.3s-3.6,0.1-4.6-0.3c-0.7-0.3-1.2-0.8-1.5-1.5c-0.4-1-0.3-3.5-0.3-4.6
	S5.5,4.4,5.9,3.4c0.3-0.7,0.8-1.2,1.5-1.5c1-0.4,3.5-0.3,4.6-0.3s3.6-0.1,4.6,0.3c0.7,0.3,1.2,0.8,1.5,1.5c0.4,1,0.3,3.5,0.3,4.6
	S18.5,11.6,18.1,12.6z"/>
</svg>
