<?xml version="1.0" encoding="utf-8"?>
<!-- Generator: Adobe Illustrator 24.0.1, SVG Export Plug-In . SVG Version: 6.00 Build 0)  -->
<svg version="1.1" id="Layer_1" xmlns="http://www.w3.org/2000/svg" xmlns:xlink="http://www.w3.org/1999/xlink" x="0px" y="0px"
	 width="107px" height="105px" viewBox="0 0 107 105" style="enable-background:new 0 0 107 105;" xml:space="preserve">
<style type="text/css">
	.st0{opacity:0.65;enable-background:new    ;}
	.st1{opacity:0.65;fill:#F6F6F7;}
</style>
<g class="st0">
	<path class="st1" d="M30.3,7.6c0-0.1,0.1-0.1,0.1-0.2l1.8-1c0.1,0,0.1,0,0.2,0c0.1,0,0.1,0.1,0.2,0.1l5.4,9.4c0,0.1,0,0.1,0,0.2
		c0,0.1-0.1,0.1-0.1,0.2l-1.8,1c-0.1,0-0.1,0-0.2,0c-0.1,0-0.1-0.1-0.2-0.1l-0.4-0.6c0,0,0-0.1-0.1-0.1c0,0-0.1,0-0.1,0.1
		c-0.1,1-0.7,1.8-1.8,2.4c-1,0.6-2,0.8-3,0.6c-1-0.2-1.8-0.8-2.4-1.8l-3.7-6.5c0-0.1,0-0.1,0-0.2c0-0.1,0.1-0.1,0.1-0.2l1.8-1
		c0.1,0,0.1,0,0.2,0c0.1,0,0.1,0.1,0.2,0.1l3.4,5.9c0.3,0.6,0.8,1,1.3,1.2c0.5,0.2,1.1,0.1,1.6-0.2c0.6-0.3,0.9-0.8,1.1-1.3
		c0.1-0.6,0-1.1-0.3-1.7l-3.4-5.9C30.3,7.8,30.2,7.7,30.3,7.6z"/>
	<path class="st1" d="M50.3,7.5c0.2,1,0.2,2,0.1,2.7c-0.1,1-0.5,1.9-1.1,2.5c-0.6,0.7-1.5,1.1-2.5,1.3c-1,0.2-1.9,0-2.7-0.6
		c0,0-0.1,0-0.1,0c0,0,0,0.1,0,0.1l0.9,4.8c0,0.1,0,0.1,0,0.2c0,0.1-0.1,0.1-0.2,0.1l-2,0.4c-0.1,0-0.1,0-0.2,0
		c-0.1,0-0.1-0.1-0.1-0.2L39.6,3.9c0-0.1,0-0.1,0-0.2c0-0.1,0.1-0.1,0.2-0.1l2-0.4c0.1,0,0.1,0,0.2,0c0.1,0,0.1,0.1,0.1,0.2l0.1,0.7
		c0,0,0,0.1,0.1,0.1c0,0,0.1,0,0.1-0.1c0.5-0.9,1.3-1.4,2.3-1.6c1-0.2,2-0.1,2.8,0.3c0.8,0.4,1.5,1.1,2,2
		C49.8,5.5,50.1,6.4,50.3,7.5z M47.7,7.9c-0.2-1.1-0.5-1.9-1-2.4c-0.5-0.6-1.2-0.9-2.1-0.7c-0.8,0.1-1.3,0.6-1.5,1.4
		c-0.2,0.6-0.2,1.5,0,2.6c0.2,1.2,0.6,2,1,2.5c0.5,0.6,1.1,0.8,1.8,0.7c0.8-0.1,1.3-0.6,1.6-1.2C47.9,9.9,48,9,47.7,7.9z"/>
	<path class="st1" d="M56.6,12.6c-0.7-0.7-1.2-1.6-1.4-2.6c-0.1-0.7-0.1-1.6,0-2.7c0.2-1.1,0.4-1.9,0.7-2.6c0.4-0.9,1.1-1.6,2-2.1
		c0.9-0.4,1.9-0.6,3.1-0.4c1.1,0.2,2.1,0.6,2.9,1.3c0.8,0.7,1.2,1.5,1.4,2.4c0,0.2,0.1,0.5,0.1,0.7l0,0c0,0.1-0.1,0.2-0.3,0.2l-2,0
		l0,0c-0.1,0-0.2-0.1-0.2-0.3c0-0.1,0-0.1,0-0.2c0-0.1,0-0.2,0-0.3c-0.1-0.4-0.3-0.8-0.6-1.1s-0.8-0.5-1.4-0.6
		c-0.6-0.1-1.1,0-1.5,0.2c-0.4,0.2-0.7,0.6-1,1.1c-0.2,0.4-0.4,1.1-0.5,1.9c-0.1,0.8-0.1,1.5-0.1,2c0.1,0.5,0.3,1,0.6,1.3
		c0.3,0.4,0.8,0.6,1.4,0.7c0.6,0.1,1.1,0,1.5-0.2c0.4-0.2,0.8-0.6,0.9-1c0,0,0-0.1,0-0.1c0,0,0,0,0-0.1c0.1-0.2,0.2-0.2,0.3-0.2
		l1.9,0.6c0.1,0,0.1,0.1,0.2,0.1c0,0.1,0.1,0.1,0,0.2c-0.1,0.2-0.1,0.4-0.2,0.5c-0.4,0.9-1.1,1.6-2,2c-0.9,0.4-2,0.6-3.1,0.4
		C58.3,13.8,57.3,13.3,56.6,12.6z"/>
	<path class="st1" d="M69.1,15.6c-0.5-0.9-0.6-1.9-0.4-3c0.1-0.8,0.4-1.6,0.8-2.4c0.4-0.8,0.9-1.5,1.5-2.1c0.8-0.8,1.7-1.2,2.7-1.3
		c1-0.1,2.1,0.1,3.1,0.6c1,0.5,1.7,1.2,2.2,2.1c0.5,0.9,0.6,1.9,0.5,2.9c-0.1,0.8-0.4,1.6-0.8,2.4c-0.4,0.8-0.9,1.5-1.5,2.1
		c-0.8,0.8-1.7,1.3-2.7,1.4c-1,0.2-2,0-3-0.6C70.4,17.2,69.6,16.5,69.1,15.6z M73.9,16c0.5-0.1,0.9-0.4,1.4-0.8
		c0.4-0.4,0.7-0.9,1.1-1.6c0.4-0.7,0.6-1.3,0.7-1.8c0.1-0.6,0.1-1.1-0.2-1.5s-0.6-0.8-1.1-1.1c-0.5-0.3-1-0.3-1.5-0.2
		c-0.5,0.1-1,0.3-1.4,0.8c-0.4,0.4-0.7,0.9-1.1,1.6c-0.3,0.6-0.6,1.2-0.7,1.8c-0.1,0.6-0.1,1.1,0.2,1.6c0.2,0.5,0.6,0.8,1.1,1.1
		C72.9,16,73.4,16.1,73.9,16z"/>
	<path class="st1" d="M96.5,26.3c-0.1,0.9-0.7,1.8-1.6,2.6l-5.7,4.7c-0.1,0-0.1,0.1-0.2,0.1c-0.1,0-0.1,0-0.2-0.1L87.5,32
		c0-0.1-0.1-0.1-0.1-0.2c0-0.1,0-0.1,0.1-0.2l5.3-4.4c0.5-0.4,0.8-0.9,0.9-1.5c0.1-0.5-0.1-1-0.5-1.5c-0.4-0.5-0.9-0.7-1.4-0.8
		c-0.6,0-1.1,0.1-1.6,0.6l-5.3,4.4c-0.1,0-0.1,0.1-0.2,0.1c-0.1,0-0.1,0-0.2-0.1l-1.3-1.6c0-0.1-0.1-0.1-0.1-0.2
		c0-0.1,0-0.1,0.1-0.2l5.3-4.4c0.5-0.4,0.8-0.9,0.9-1.5c0.1-0.5-0.1-1-0.5-1.5c-0.4-0.4-0.8-0.7-1.3-0.8c-0.5-0.1-1,0-1.4,0.4
		l-5.6,4.6c-0.1,0-0.1,0.1-0.2,0.1c-0.1,0-0.1,0-0.2-0.1L79,21.7c0-0.1-0.1-0.1-0.1-0.2c0-0.1,0-0.1,0.1-0.2l8.4-6.9
		c0.1,0,0.1-0.1,0.2-0.1c0.1,0,0.1,0,0.2,0.1l1.3,1.6c0,0.1,0.1,0.1,0.1,0.2c0,0.1,0,0.1-0.1,0.2l-0.6,0.5c0,0,0,0.1,0,0.1
		c0,0,0,0,0.1,0c0.5,0,1,0.1,1.5,0.3c0.5,0.2,0.9,0.6,1.3,1.1c0.5,0.6,0.8,1.1,0.9,1.8c0.1,0.6,0.1,1.2-0.2,1.8c0,0.1,0,0.1,0.1,0.1
		c0.7-0.1,1.3-0.1,1.9,0.2c0.6,0.3,1.1,0.7,1.6,1.2C96.3,24.4,96.6,25.4,96.5,26.3z"/>
	<path class="st1" d="M90,37.6c0-0.1,0.1-0.1,0.2-0.1l10.2-3.8c0.1,0,0.1,0,0.2,0c0.1,0,0.1,0.1,0.1,0.1l0.7,1.9c0,0.1,0,0.1,0,0.2
		c0,0.1-0.1,0.1-0.2,0.1L91,39.9c-0.1,0-0.1,0-0.2,0c-0.1,0-0.1-0.1-0.1-0.2L90,37.8C89.9,37.7,89.9,37.6,90,37.6z M102.5,33
		c0.2-0.4,0.5-0.7,0.9-0.8c0.4-0.2,0.8-0.2,1.2,0c0.4,0.2,0.7,0.5,0.8,0.9s0.2,0.8,0,1.2c-0.2,0.4-0.5,0.7-0.9,0.8
		c-0.4,0.2-0.8,0.2-1.2,0c-0.4-0.2-0.7-0.5-0.8-0.9S102.3,33.4,102.5,33z"/>
	<path class="st1" d="M103.4,51.1c-0.6,0.8-1.6,1.2-2.8,1.4l-7.3,0.7c-0.1,0-0.1,0-0.2-0.1c-0.1,0-0.1-0.1-0.1-0.2l-0.2-2
		c0-0.1,0-0.1,0.1-0.2c0-0.1,0.1-0.1,0.2-0.1l6.7-0.7c0.7-0.1,1.2-0.3,1.6-0.7c0.4-0.4,0.5-1,0.5-1.6c-0.1-0.6-0.3-1.1-0.8-1.5
		c-0.5-0.3-1-0.5-1.7-0.4l-6.8,0.7c-0.1,0-0.1,0-0.2-0.1c-0.1,0-0.1-0.1-0.1-0.2l-0.2-2c0-0.1,0-0.1,0.1-0.2c0-0.1,0.1-0.1,0.2-0.1
		l10.8-1.1c0.1,0,0.1,0,0.2,0.1c0.1,0,0.1,0.1,0.1,0.2l0.2,2c0,0.1,0,0.1-0.1,0.2s-0.1,0.1-0.2,0.1l-0.7,0.1c0,0-0.1,0-0.1,0.1
		c0,0,0,0.1,0.1,0.1c0.9,0.5,1.4,1.4,1.5,2.6C104.3,49.3,104.1,50.3,103.4,51.1z"/>
	<path class="st1" d="M102.3,66.3c0,0.1,0,0.1,0,0.2l-0.5,2c0,0.1-0.1,0.1-0.1,0.2c-0.1,0-0.1,0-0.2,0l-10.1-2.4
		c-1.8-0.4-3-1.2-3.5-2.5c-0.5-1.2-0.6-2.7-0.2-4.3c0.1-0.4,0.2-0.9,0.4-1.3c0.1-0.2,0.2-0.2,0.3-0.2l1.8,0.5c0.2,0,0.2,0.2,0.2,0.4
		c-0.1,0.4-0.3,0.8-0.3,1.1c-0.3,1.1-0.2,1.9,0.1,2.5c0.3,0.6,1,1,2,1.3l0.2,0c0,0,0.1,0,0.1,0c0,0,0-0.1,0-0.1
		c-0.5-0.7-0.6-1.7-0.4-2.7c0.2-0.9,0.7-1.7,1.3-2.4s1.5-1,2.6-1.1c0.7,0,1.6,0.1,2.7,0.3c1.2,0.3,2.1,0.6,2.7,1
		c0.8,0.5,1.4,1.2,1.8,2c0.4,0.8,0.4,1.7,0.2,2.7c-0.3,1.1-0.8,2-1.6,2.4c0,0-0.1,0-0.1,0.1c0,0,0,0.1,0.1,0.1l0.5,0.1
		C102.2,66.2,102.2,66.3,102.3,66.3z M95.7,64.7c0.2,0.1,0.7,0.2,1.2,0.3c0.6,0.1,0.9,0.2,1.2,0.2c0.2,0,0.5,0,0.7,0
		c0.5,0,0.9-0.1,1.3-0.4c0.4-0.3,0.6-0.7,0.8-1.3c0.1-0.5,0.1-1-0.1-1.4c-0.2-0.4-0.5-0.8-1-1.1c-0.4-0.3-1-0.5-1.8-0.7
		c-0.9-0.2-1.5-0.3-1.9-0.2c-0.5,0-0.9,0.2-1.3,0.5C94.3,61,94,61.4,93.9,62c-0.1,0.6-0.1,1.1,0.1,1.5c0.2,0.4,0.5,0.7,1,1
		C95.2,64.5,95.4,64.6,95.7,64.7z"/>
	<path class="st1" d="M86,75.4c0.4-0.1,0.8,0.1,1.2,0.3c0.4,0.3,0.6,0.6,0.6,1c0.1,0.4-0.1,0.8-0.3,1.2c-0.3,0.4-0.6,0.6-1,0.6
		c-0.4,0.1-0.8-0.1-1.2-0.3c-0.4-0.3-0.6-0.6-0.6-1c-0.1-0.4,0-0.8,0.3-1.2C85.2,75.7,85.6,75.5,86,75.4z"/>
	<path class="st1" d="M76.4,97.7c0,0.1-0.1,0.1-0.1,0.2l-1.8,1c-0.1,0-0.1,0-0.2,0c-0.1,0-0.1-0.1-0.2-0.1l-5.3-9.5
		c0-0.1,0-0.1,0-0.2c0-0.1,0.1-0.1,0.1-0.2l1.8-1c0.1,0,0.1,0,0.2,0c0.1,0,0.1,0.1,0.2,0.1l0.3,0.6c0,0,0,0.1,0.1,0.1
		c0,0,0.1,0,0.1-0.1c0.1-1,0.7-1.8,1.8-2.4c1-0.6,2-0.7,3-0.5c1,0.2,1.8,0.8,2.4,1.9l3.7,6.5c0,0.1,0,0.1,0,0.2
		c0,0.1-0.1,0.1-0.1,0.2l-1.8,1c-0.1,0-0.1,0-0.2,0c-0.1,0-0.1-0.1-0.2-0.1l-3.3-5.9c-0.3-0.6-0.8-1-1.3-1.2
		c-0.5-0.2-1.1-0.1-1.6,0.2c-0.6,0.3-0.9,0.8-1.1,1.3c-0.1,0.6,0,1.1,0.3,1.8l3.3,5.9C76.5,97.5,76.5,97.6,76.4,97.7z"/>
	<path class="st1" d="M56.4,97.6c-0.2-1-0.2-2-0.1-2.7c0.2-1,0.5-1.9,1.1-2.5c0.6-0.7,1.5-1.1,2.5-1.3c1-0.2,1.9,0,2.7,0.7
		c0,0,0.1,0,0.1,0c0,0,0-0.1,0-0.1l-0.8-4.8c0-0.1,0-0.1,0-0.2c0-0.1,0.1-0.1,0.2-0.1l2-0.4c0.1,0,0.1,0,0.2,0
		c0.1,0,0.1,0.1,0.1,0.2l2.6,14.8c0,0.1,0,0.1,0,0.2c0,0.1-0.1,0.1-0.2,0.1l-2,0.4c-0.1,0-0.1,0-0.2,0c-0.1,0-0.1-0.1-0.1-0.2
		l-0.1-0.7c0,0,0-0.1-0.1-0.1c0,0-0.1,0-0.1,0.1c-0.5,0.9-1.3,1.4-2.3,1.6c-1,0.2-2,0.1-2.8-0.3c-0.8-0.4-1.5-1.1-2-2
		C56.9,99.6,56.6,98.7,56.4,97.6z M59,97.2c0.2,1.1,0.5,1.9,1,2.4c0.5,0.6,1.2,0.9,2.1,0.7c0.8-0.1,1.3-0.6,1.5-1.4
		c0.2-0.6,0.3-1.5,0.1-2.6c-0.2-1.2-0.5-2-1-2.5c-0.5-0.6-1.1-0.8-1.8-0.7c-0.8,0.1-1.3,0.5-1.6,1.2C58.8,95.2,58.8,96.1,59,97.2z"
		/>
	<path class="st1" d="M50.1,92.4c0.7,0.7,1.2,1.6,1.4,2.6c0.1,0.7,0.1,1.6-0.1,2.7c-0.2,1.1-0.4,1.9-0.8,2.5c-0.5,0.9-1.1,1.6-2.1,2
		c-0.9,0.4-1.9,0.6-3.1,0.4c-1.1-0.2-2.1-0.6-2.9-1.3c-0.8-0.7-1.2-1.5-1.4-2.4c0-0.2-0.1-0.5,0-0.7l0,0c0-0.1,0.1-0.2,0.3-0.2l2,0
		l0,0c0.1,0,0.2,0.1,0.2,0.3c0,0.1,0,0.1,0,0.2c0,0.1,0,0.2,0,0.3c0.1,0.4,0.3,0.8,0.6,1.1c0.4,0.3,0.8,0.5,1.3,0.6
		c0.6,0.1,1.1,0,1.5-0.2c0.4-0.2,0.8-0.6,1-1.1c0.2-0.4,0.4-1.1,0.5-1.9c0.1-0.8,0.2-1.5,0.1-2c-0.1-0.5-0.3-1-0.6-1.3
		c-0.3-0.4-0.8-0.6-1.4-0.7c-0.6-0.1-1.1,0-1.5,0.2c-0.4,0.2-0.8,0.6-1,1c0,0,0,0.1,0,0.1c0,0,0,0,0,0.1c-0.1,0.2-0.2,0.2-0.3,0.2
		l-1.9-0.6c-0.1,0-0.1-0.1-0.2-0.1c0-0.1-0.1-0.1,0-0.2c0.1-0.2,0.1-0.4,0.2-0.5c0.4-0.9,1.1-1.6,2-2c0.9-0.4,2-0.5,3.1-0.4
		C48.5,91.3,49.4,91.7,50.1,92.4z"/>
	<path class="st1" d="M37.7,89.3c0.5,0.9,0.6,1.9,0.4,3c-0.2,0.8-0.4,1.6-0.8,2.4c-0.4,0.8-0.9,1.5-1.5,2.1C34.9,97.6,34,98,33,98.1
		c-1,0.1-2.1-0.1-3.1-0.7c-1-0.5-1.7-1.2-2.2-2.1c-0.5-0.9-0.6-1.9-0.4-2.9c0.1-0.8,0.4-1.6,0.8-2.4c0.4-0.8,0.9-1.5,1.5-2.1
		c0.8-0.8,1.7-1.2,2.7-1.4c1-0.1,2,0,3,0.6C36.4,87.6,37.2,88.4,37.7,89.3z M32.9,88.8c-0.5,0.1-1,0.3-1.4,0.8
		c-0.4,0.4-0.7,0.9-1.1,1.6c-0.4,0.7-0.6,1.3-0.7,1.8c-0.1,0.6-0.1,1.1,0.1,1.5c0.2,0.5,0.6,0.8,1.1,1.1c0.5,0.3,1,0.3,1.5,0.3
		c0.5-0.1,1-0.3,1.4-0.7c0.4-0.4,0.7-0.9,1.1-1.6c0.3-0.6,0.6-1.2,0.7-1.8c0.1-0.6,0.1-1.1-0.1-1.6c-0.2-0.5-0.6-0.8-1.1-1.1
		C33.9,88.8,33.4,88.7,32.9,88.8z"/>
	<path class="st1" d="M10.5,78.3c0.1-0.9,0.7-1.8,1.6-2.6l5.7-4.6c0.1,0,0.1-0.1,0.2-0.1c0.1,0,0.1,0,0.2,0.1l1.3,1.6
		c0,0.1,0.1,0.1,0.1,0.2c0,0.1,0,0.1-0.1,0.2l-5.3,4.3c-0.5,0.4-0.8,0.9-0.9,1.4c-0.1,0.5,0.1,1,0.4,1.5c0.4,0.5,0.9,0.7,1.4,0.8
		c0.6,0,1.1-0.1,1.6-0.6l5.3-4.3c0.1,0,0.1-0.1,0.2-0.1c0.1,0,0.1,0,0.2,0.1l1.3,1.6c0,0.1,0.1,0.1,0.1,0.2c0,0.1,0,0.1-0.1,0.2
		l-5.3,4.3c-0.5,0.4-0.8,0.9-0.9,1.5c-0.1,0.5,0.1,1,0.5,1.5c0.4,0.4,0.8,0.7,1.3,0.8c0.5,0.1,1,0,1.4-0.3l5.6-4.6
		c0.1,0,0.1-0.1,0.2-0.1c0.1,0,0.1,0,0.2,0.1l1.3,1.6c0,0.1,0.1,0.1,0.1,0.2c0,0.1,0,0.1-0.1,0.2l-8.4,6.8c-0.1,0-0.1,0.1-0.2,0.1
		c-0.1,0-0.1,0-0.2-0.1l-1.3-1.6c0-0.1-0.1-0.1-0.1-0.2c0-0.1,0-0.1,0.1-0.2l0.6-0.5c0,0,0-0.1,0-0.1c0,0,0,0-0.1,0
		c-0.5,0-1-0.1-1.5-0.4c-0.5-0.2-0.9-0.6-1.2-1.1c-0.5-0.6-0.7-1.2-0.9-1.8c-0.1-0.6,0-1.2,0.2-1.8c0-0.1,0-0.1-0.1-0.1
		c-0.7,0.1-1.3,0-1.9-0.2c-0.6-0.3-1.1-0.7-1.5-1.2C10.6,80.2,10.3,79.3,10.5,78.3z"/>
	<path class="st1" d="M4.5,71.6C4.3,72,4,72.2,3.6,72.4c-0.4,0.2-0.8,0.1-1.2,0c-0.4-0.2-0.6-0.5-0.8-0.9c-0.2-0.4-0.1-0.8,0-1.2
		c0.2-0.4,0.5-0.7,0.9-0.8c0.4-0.2,0.8-0.1,1.2,0c0.4,0.2,0.6,0.5,0.8,0.9C4.7,70.8,4.7,71.2,4.5,71.6z M17.1,67.1
		c0,0.1-0.1,0.1-0.2,0.1L6.7,71c-0.1,0-0.1,0-0.2,0c-0.1,0-0.1-0.1-0.1-0.2l-0.7-1.9c0-0.1,0-0.1,0-0.2c0-0.1,0.1-0.1,0.2-0.1
		L16,64.8c0.1,0,0.1,0,0.2,0c0.1,0,0.1,0.1,0.1,0.2l0.7,1.9C17.1,67,17.1,67.1,17.1,67.1z"/>
	<path class="st1" d="M3.7,53.4c0.6-0.8,1.6-1.2,2.8-1.3l7.3-0.7c0.1,0,0.1,0,0.2,0.1c0.1,0,0.1,0.1,0.1,0.2l0.2,2
		c0,0.1,0,0.1-0.1,0.2c0,0.1-0.1,0.1-0.2,0.1l-6.7,0.6c-0.7,0.1-1.2,0.3-1.6,0.7c-0.4,0.4-0.6,1-0.5,1.6c0.1,0.6,0.3,1.1,0.8,1.5
		c0.5,0.4,1,0.5,1.7,0.4l6.8-0.6c0.1,0,0.1,0,0.2,0.1c0.1,0,0.1,0.1,0.1,0.2l0.2,2c0,0.1,0,0.1-0.1,0.2c0,0.1-0.1,0.1-0.2,0.1
		l-10.8,1c-0.1,0-0.1,0-0.2-0.1c-0.1,0-0.1-0.1-0.1-0.2l-0.2-2c0-0.1,0-0.1,0.1-0.2c0-0.1,0.1-0.1,0.2-0.1l0.7-0.1
		c0,0,0.1,0,0.1-0.1c0,0,0-0.1-0.1-0.1c-0.9-0.5-1.3-1.4-1.4-2.6C2.8,55.2,3.1,54.2,3.7,53.4z"/>
	<path class="st1" d="M5.1,38.2c0-0.1,0-0.1,0-0.2l0.5-2c0-0.1,0.1-0.1,0.1-0.2c0.1,0,0.1,0,0.2,0l10.1,2.5c1.8,0.4,3,1.3,3.5,2.5
		c0.5,1.2,0.6,2.7,0.2,4.3c-0.1,0.4-0.2,0.9-0.4,1.3c-0.1,0.2-0.2,0.2-0.3,0.2l-1.8-0.5c-0.2,0-0.2-0.2-0.2-0.4
		c0.1-0.4,0.3-0.8,0.3-1.1c0.3-1.1,0.2-1.9-0.1-2.5c-0.3-0.6-1-1-2-1.3l-0.2,0c0,0-0.1,0-0.1,0c0,0,0,0.1,0,0.1
		c0.5,0.7,0.6,1.7,0.3,2.7c-0.2,0.9-0.7,1.7-1.3,2.4c-0.7,0.7-1.5,1-2.6,1.1c-0.7,0-1.6-0.1-2.7-0.4c-1.2-0.3-2.1-0.6-2.7-1
		c-0.8-0.5-1.4-1.2-1.7-2C3.9,42.9,3.9,42,4.1,41c0.3-1.1,0.8-1.9,1.6-2.4c0,0,0.1,0,0.1-0.1c0,0,0-0.1-0.1-0.1l-0.5-0.1
		C5.1,38.3,5.1,38.3,5.1,38.2z M11.6,40c-0.2-0.1-0.7-0.2-1.2-0.3c-0.5-0.1-0.9-0.2-1.2-0.3c-0.2,0-0.5,0-0.7,0
		c-0.5,0-0.9,0.1-1.3,0.4C6.8,40,6.5,40.5,6.4,41c-0.1,0.5-0.1,1,0.1,1.4c0.2,0.4,0.5,0.8,1,1.1c0.4,0.3,1,0.5,1.8,0.7
		c0.9,0.2,1.5,0.3,1.9,0.2c0.5,0,0.9-0.2,1.3-0.5c0.4-0.3,0.6-0.7,0.8-1.3c0.1-0.6,0.1-1.1-0.1-1.5c-0.2-0.4-0.5-0.7-1-1
		C12.1,40.1,11.9,40,11.6,40z"/>
	<path class="st1" d="M21.5,29.3c-0.4,0.1-0.8-0.1-1.2-0.3s-0.6-0.6-0.6-1c-0.1-0.4,0.1-0.8,0.3-1.2c0.3-0.4,0.6-0.6,1-0.6
		c0.4,0,0.8,0.1,1.2,0.4c0.4,0.3,0.6,0.6,0.6,1c0.1,0.4-0.1,0.8-0.3,1.2C22.2,29,21.9,29.3,21.5,29.3z"/>
</g>
</svg>
