<?xml version="1.0" encoding="UTF-8"?>
<svg id="Layer_1" data-name="Layer 1" xmlns="http://www.w3.org/2000/svg" width="120" height="128" viewBox="0 0 120 128">
  <defs>
    <style>
      .cls-1 {
        fill: #0db0e6;
      }
    </style>
  </defs>
  <path class="cls-1" d="M34.72,18.38c-.74-.04-1.43-.27-2.06-.7-.63-.43-1.14-1.03-1.53-1.81-.39-.77-.56-1.54-.52-2.31s.28-1.46,.7-2.08c.43-.62,1-1.11,1.73-1.47s1.46-.53,2.21-.5c.75,.03,1.44,.25,2.08,.68,.64,.43,1.15,1.03,1.54,1.8,.39,.77,.56,1.55,.5,2.32-.05,.77-.29,1.47-.73,2.1-.44,.63-1.02,1.12-1.75,1.49-.72,.36-1.45,.52-2.19,.48Zm2.5-2.71c.26-.37,.4-.8,.43-1.3,.03-.5-.1-1.02-.37-1.57s-.62-.97-1.02-1.24-.83-.42-1.27-.44-.87,.07-1.28,.28-.73,.49-.98,.85c-.25,.37-.38,.79-.39,1.27s.12,1,.4,1.55c.41,.82,.94,1.35,1.58,1.58,.64,.24,1.28,.2,1.92-.12,.4-.2,.74-.49,.99-.86Z"/>
  <path class="cls-1" d="M47.07,5.1l2.32,8.18-1.69,.48-.27-.96c-.17,.41-.44,.78-.82,1.09-.38,.31-.81,.54-1.29,.68-.64,.18-1.26,.21-1.84,.09-.59-.12-1.1-.4-1.54-.85-.44-.44-.77-1.03-.98-1.78l-1.37-4.81,1.68-.48,1.29,4.56c.21,.73,.55,1.24,1.03,1.53,.48,.29,1.03,.34,1.67,.16,.63-.18,1.08-.52,1.34-1.01,.26-.5,.29-1.11,.08-1.84l-1.29-4.56,1.69-.48Z"/>
  <path class="cls-1" d="M53.06,4.48c.39-.29,.88-.48,1.46-.55l.23,1.81-.44,.06c-.68,.09-1.18,.33-1.49,.72-.31,.39-.41,1.02-.3,1.87l.56,4.44-1.75,.22-1.07-8.43,1.75-.22,.15,1.22c.2-.46,.5-.84,.89-1.13Z"/>
  <path class="cls-1" d="M61.26,5.73c.42-.62,.95-1.08,1.6-1.38,.65-.3,1.34-.42,2.07-.34,.67,.07,1.23,.26,1.7,.57,.47,.31,.83,.68,1.09,1.1l.12-1.23,1.77,.18-.86,8.46-1.76-.18,.13-1.26c-.34,.37-.78,.66-1.31,.87-.54,.21-1.14,.29-1.79,.22-.73-.07-1.37-.33-1.94-.76-.57-.43-.99-1.01-1.28-1.71s-.38-1.48-.3-2.33c.09-.85,.34-1.58,.76-2.2Zm5.96,1.38c-.2-.45-.48-.81-.84-1.08s-.77-.42-1.22-.47c-.45-.05-.88,.02-1.29,.2-.41,.18-.76,.47-1.04,.87-.28,.4-.46,.89-.51,1.48-.06,.58,0,1.11,.2,1.57,.2,.46,.48,.83,.85,1.1,.37,.27,.78,.43,1.22,.47,.45,.05,.88-.02,1.29-.21,.41-.19,.76-.48,1.04-.89,.28-.41,.46-.91,.52-1.49,.06-.58,0-1.1-.21-1.56Z"/>
  <path class="cls-1" d="M75.82,6.45c.57-.1,1.17-.06,1.79,.13,.71,.22,1.3,.59,1.78,1.12,.48,.53,.79,1.16,.93,1.89s.08,1.51-.17,2.32c-.25,.82-.64,1.49-1.18,2.04-.53,.54-1.15,.9-1.84,1.08s-1.4,.16-2.1-.06c-.62-.19-1.13-.49-1.54-.88s-.7-.83-.89-1.3l-1.55,5.04-1.68-.52,3.69-11.99,1.68,.52-.37,1.19c.4-.29,.88-.48,1.46-.58Zm2.71,3.38c-.11-.48-.31-.88-.63-1.21s-.69-.56-1.12-.69c-.42-.13-.86-.15-1.3-.05-.45,.1-.85,.32-1.21,.66-.36,.34-.62,.79-.8,1.35-.17,.56-.21,1.08-.11,1.57,.1,.49,.31,.9,.62,1.23,.31,.33,.68,.56,1.1,.69,.43,.13,.87,.15,1.32,.04s.85-.33,1.21-.68,.63-.81,.8-1.37c.17-.56,.21-1.08,.1-1.56Z"/>
  <path class="cls-1" d="M86.57,10.73c.58,0,1.15,.17,1.72,.48,.65,.35,1.16,.84,1.52,1.45,.36,.61,.54,1.29,.54,2.04,0,.75-.21,1.49-.62,2.24-.41,.75-.93,1.34-1.55,1.76-.63,.43-1.3,.66-2.02,.7s-1.4-.12-2.05-.47c-.57-.31-1.01-.7-1.33-1.17-.32-.47-.52-.95-.62-1.45l-2.52,4.64-1.55-.84,5.98-11.03,1.55,.84-.6,1.1c.45-.2,.96-.3,1.54-.29Zm2,3.85c0-.49-.13-.93-.38-1.31-.24-.38-.56-.68-.96-.9-.39-.21-.81-.31-1.27-.3-.46,.01-.89,.15-1.31,.41-.42,.26-.77,.65-1.05,1.17-.28,.52-.42,1.02-.41,1.52,0,.5,.13,.94,.37,1.33s.55,.69,.94,.9c.4,.22,.83,.32,1.29,.3,.46-.01,.9-.16,1.32-.43,.42-.27,.77-.67,1.05-1.18,.28-.52,.42-1.02,.41-1.51Z"/>
  <path class="cls-1" d="M95.91,16.71c.49,.07,.96,.28,1.43,.63l-1.1,1.45-.36-.27c-.55-.42-1.07-.59-1.56-.53s-1,.44-1.53,1.13l-2.71,3.56-1.4-1.06,5.15-6.77,1.4,1.06-.75,.98c.47-.19,.94-.25,1.43-.18Z"/>
  <path class="cls-1" d="M94.46,25.78c-.19-.72-.18-1.44,.04-2.17,.22-.73,.64-1.4,1.26-2.01,.62-.6,1.3-1,2.04-1.2s1.48-.18,2.19,.04c.72,.22,1.36,.62,1.93,1.2,.57,.58,.95,1.23,1.15,1.96,.2,.72,.2,1.45-.02,2.19s-.63,1.41-1.25,2.01c-.62,.6-1.3,1-2.06,1.19s-1.49,.17-2.22-.06c-.73-.23-1.38-.63-1.95-1.21-.56-.57-.94-1.22-1.13-1.94Zm3.34,1.56c.43,.13,.89,.14,1.37,.01,.48-.12,.94-.4,1.38-.83,.44-.43,.73-.88,.87-1.35,.14-.47,.15-.92,.03-1.35-.12-.43-.33-.81-.65-1.13-.32-.32-.69-.55-1.11-.67-.42-.12-.87-.12-1.33,.02-.46,.14-.92,.42-1.36,.85-.66,.64-1,1.3-1.03,1.98-.03,.68,.2,1.28,.7,1.79,.32,.32,.69,.55,1.12,.69Z"/>
  <path class="cls-1" d="M105,28.14c.75-.07,1.44,.06,2.08,.37,.64,.31,1.17,.77,1.57,1.39,.37,.56,.58,1.12,.63,1.68s0,1.07-.16,1.54l1.03-.68,.98,1.48-7.1,4.68-.98-1.48,1.06-.7c-.5-.03-1-.18-1.51-.47-.51-.28-.94-.7-1.3-1.25-.4-.61-.61-1.27-.63-1.98s.15-1.4,.52-2.07,.91-1.24,1.62-1.71c.71-.47,1.44-.74,2.19-.8Zm2.69,5.49c.23-.44,.33-.88,.3-1.34-.03-.45-.16-.87-.41-1.24s-.57-.67-.97-.87c-.4-.21-.84-.29-1.33-.26-.49,.03-.98,.21-1.47,.53-.49,.32-.85,.71-1.09,1.15-.24,.44-.34,.9-.32,1.35s.16,.87,.4,1.24c.25,.38,.58,.67,.98,.87s.86,.28,1.35,.25,.99-.22,1.48-.54c.49-.32,.85-.7,1.08-1.14Z"/>
  <path class="cls-1" d="M110.89,37.67c.75,.07,1.41,.33,1.99,.77,.57,.44,1.02,1.03,1.33,1.78,.4,.95,.5,1.83,.31,2.64-.19,.81-.66,1.5-1.4,2.07l-.73-1.75c.33-.31,.54-.66,.62-1.06,.09-.4,.03-.84-.17-1.32-.28-.66-.74-1.09-1.37-1.29-.63-.2-1.37-.12-2.22,.24s-1.42,.83-1.73,1.42-.33,1.22-.05,1.88c.39,.94,1.07,1.39,2.02,1.35l.73,1.75c-.89,.11-1.7-.06-2.44-.48-.73-.43-1.29-1.11-1.68-2.04-.31-.75-.42-1.48-.33-2.2,.09-.72,.38-1.37,.85-1.96,.47-.58,1.12-1.04,1.92-1.38s1.58-.47,2.33-.4Z"/>
  <path class="cls-1" d="M117.47,52.66c-.16,.56-.48,1.04-.95,1.44-.47,.4-1.08,.69-1.84,.85l-4.9,1.07-.37-1.7,4.64-1.01c.74-.16,1.27-.47,1.59-.93,.32-.46,.4-1.01,.26-1.65-.14-.64-.45-1.11-.93-1.4-.48-.29-1.09-.35-1.83-.19l-4.64,1.01-.37-1.72,11.16-2.43,.37,1.72-3.81,.83c.42,.21,.77,.53,1.06,.93,.29,.41,.49,.87,.61,1.41,.14,.63,.12,1.23-.04,1.78Z"/>
  <path class="cls-1" d="M110.3,61.61c.21-.22,.48-.33,.8-.34,.32,0,.59,.1,.81,.31,.22,.21,.33,.48,.34,.8,0,.31-.1,.57-.31,.79-.21,.22-.48,.33-.8,.34s-.59-.1-.81-.31-.33-.47-.34-.78c0-.32,.1-.59,.31-.81Z"/>
  <path class="cls-1" d="M110.01,70.52c.48-.57,1.08-.97,1.81-1.21s1.51-.27,2.37-.11c.85,.17,1.56,.5,2.15,1,.58,.5,.99,1.11,1.22,1.82,.23,.71,.26,1.47,.11,2.27s-.47,1.49-.95,2.06-1.08,.99-1.81,1.24c-.73,.25-1.52,.29-2.37,.12s-1.56-.5-2.15-1.01-.99-1.13-1.22-1.86c-.23-.73-.27-1.5-.11-2.29,.15-.79,.47-1.47,.95-2.03Zm.62,3.63c.14,.43,.39,.81,.77,1.13,.38,.33,.87,.55,1.48,.66,.61,.12,1.14,.1,1.6-.05s.84-.4,1.13-.74c.29-.34,.47-.74,.56-1.18,.09-.45,.06-.88-.08-1.3-.14-.42-.4-.78-.77-1.08-.38-.3-.87-.51-1.47-.63-.9-.17-1.64-.08-2.22,.29-.58,.37-.94,.9-1.07,1.59-.09,.44-.06,.88,.08,1.31Z"/>
  <path class="cls-1" d="M112.99,88.43l-7.9-3.15,.65-1.63,.93,.37c-.22-.39-.34-.83-.36-1.32-.02-.49,.06-.97,.25-1.44,.25-.62,.6-1.13,1.05-1.52,.46-.39,.99-.62,1.61-.7,.62-.08,1.29,.02,2,.31l4.64,1.85-.65,1.62-4.4-1.75c-.71-.28-1.32-.32-1.84-.12-.52,.2-.9,.61-1.14,1.22s-.25,1.17-.01,1.68c.24,.51,.71,.9,1.41,1.19l4.4,1.75-.65,1.63Z"/>
  <path class="cls-1" d="M109.85,93.53c0,.49-.16,.99-.46,1.49l-1.57-.92,.23-.39c.35-.59,.46-1.13,.34-1.62-.12-.48-.56-.94-1.3-1.38l-3.86-2.26,.89-1.52,7.34,4.3-.89,1.52-1.07-.62c.24,.44,.36,.91,.35,1.4Z"/>
  <path class="cls-1" d="M103.84,99.28c.23,.71,.27,1.41,.12,2.11-.16,.7-.49,1.31-1,1.85-.46,.49-.96,.82-1.49,1-.53,.18-1.04,.25-1.53,.19l.9,.85-1.22,1.29-6.17-5.85,1.22-1.29,.92,.87c-.09-.49-.05-1.02,.11-1.57,.16-.56,.47-1.08,.92-1.55,.5-.53,1.1-.89,1.79-1.07,.69-.18,1.4-.17,2.13,.04,.73,.21,1.41,.6,2.03,1.19,.62,.59,1.05,1.24,1.28,1.95Zm-4.73,3.87c.48,.12,.94,.12,1.37,0,.43-.13,.81-.36,1.12-.69,.31-.33,.52-.71,.63-1.15,.11-.44,.09-.89-.05-1.36-.14-.47-.43-.91-.85-1.31s-.88-.67-1.37-.8-.95-.13-1.39,0-.81,.35-1.12,.67c-.31,.33-.52,.71-.62,1.15-.1,.44-.08,.9,.07,1.37,.15,.48,.44,.92,.87,1.32s.88,.67,1.36,.79Z"/>
  <path class="cls-1" d="M94.4,110.36c-.26,.52-.66,.96-1.19,1.33-.6,.43-1.26,.67-1.97,.73-.71,.06-1.4-.08-2.07-.42s-1.25-.85-1.74-1.55c-.49-.7-.79-1.42-.9-2.17s-.01-1.46,.27-2.12c.28-.66,.73-1.2,1.33-1.63,.53-.38,1.07-.6,1.64-.68,.56-.08,1.09-.05,1.57,.08l-3.05-4.3,1.43-1.02,7.25,10.23-1.44,1.02-.72-1.02c-.02,.49-.16,.99-.42,1.51Zm-4.33,.09c.44,.21,.89,.29,1.34,.24,.45-.05,.86-.2,1.23-.46,.36-.26,.64-.59,.83-1,.19-.41,.26-.87,.21-1.36-.05-.49-.25-.98-.59-1.46-.34-.48-.73-.83-1.18-1.04-.45-.22-.9-.3-1.36-.26-.45,.04-.86,.19-1.22,.45-.37,.26-.65,.6-.84,1.02-.19,.42-.25,.88-.2,1.38,.06,.5,.26,.99,.6,1.47s.73,.82,1.17,1.03Z"/>
  <path class="cls-1" d="M84.45,116.27c-.36,.45-.84,.81-1.43,1.08-.68,.3-1.37,.41-2.08,.33-.71-.08-1.36-.36-1.94-.81-.59-.46-1.06-1.08-1.4-1.86-.35-.78-.5-1.55-.45-2.31,.04-.76,.27-1.43,.68-2.03s.95-1.04,1.62-1.34c.59-.26,1.17-.38,1.74-.34,.57,.04,1.08,.17,1.53,.39l-2.15-4.82,1.61-.72,5.11,11.46-1.61,.72-.51-1.14c-.11,.48-.35,.94-.71,1.4Zm-4.27-.76c.39,.29,.82,.46,1.27,.5,.45,.04,.88-.03,1.3-.22,.4-.18,.74-.45,1.01-.82,.27-.37,.43-.8,.47-1.29,.05-.49-.05-1.01-.29-1.54-.24-.54-.56-.95-.96-1.25-.4-.3-.83-.47-1.28-.52-.45-.05-.88,.02-1.29,.2-.41,.18-.75,.46-1.02,.83-.27,.37-.42,.81-.46,1.31-.04,.5,.06,1.02,.3,1.56,.24,.54,.56,.95,.95,1.24Z"/>
  <path class="cls-1" d="M73.99,120.05c-.35,.34-.81,.59-1.37,.75l-.48-1.76,.43-.12c.67-.18,1.12-.49,1.37-.92,.25-.43,.26-1.06,.04-1.9l-1.17-4.32,1.7-.46,2.22,8.21-1.7,.46-.32-1.19c-.13,.48-.38,.9-.73,1.24Z"/>
  <path class="cls-1" d="M67.7,113.36c.69,.29,1.25,.74,1.7,1.36s.72,1.36,.82,2.23c.1,.86,0,1.64-.3,2.35-.3,.71-.76,1.28-1.37,1.71-.61,.43-1.32,.7-2.13,.79-.81,.09-1.56,0-2.25-.28-.7-.28-1.27-.73-1.73-1.35-.45-.62-.73-1.36-.83-2.22-.1-.86,0-1.64,.32-2.35,.31-.71,.78-1.28,1.41-1.72,.63-.44,1.34-.71,2.15-.8,.8-.09,1.54,0,2.22,.29Zm-3.28,1.69c-.37,.26-.65,.62-.85,1.08-.2,.46-.26,.99-.19,1.61,.07,.61,.25,1.12,.53,1.51,.28,.4,.63,.68,1.05,.85,.41,.17,.84,.23,1.29,.18,.45-.05,.85-.21,1.21-.47s.63-.61,.8-1.06c.18-.45,.23-.98,.16-1.59-.11-.91-.42-1.58-.94-2.03-.52-.44-1.14-.62-1.84-.54-.45,.05-.86,.21-1.23,.47Z"/>
  <path class="cls-1" d="M59.45,120.23c-.4,.64-.92,1.12-1.57,1.44-.65,.32-1.38,.46-2.19,.4-1.03-.06-1.86-.36-2.5-.89-.64-.53-1.05-1.25-1.23-2.17l1.89,.12c.13,.43,.35,.77,.68,1.03,.32,.26,.74,.4,1.26,.43,.72,.04,1.31-.17,1.76-.66,.46-.48,.71-1.18,.77-2.09,.06-.91-.11-1.64-.51-2.18-.39-.54-.95-.83-1.67-.88-1.02-.06-1.72,.34-2.1,1.21l-1.89-.12c.3-.85,.8-1.5,1.51-1.97,.71-.47,1.57-.67,2.57-.61,.81,.05,1.52,.28,2.12,.68s1.06,.95,1.38,1.63c.31,.68,.44,1.46,.39,2.33-.05,.87-.28,1.63-.67,2.27Z"/>
  <path class="cls-1" d="M43.11,119.5c-.43-.39-.72-.89-.87-1.49-.15-.6-.14-1.27,.05-2.02l1.21-4.87,1.69,.42-1.14,4.61c-.18,.74-.14,1.35,.13,1.84,.27,.49,.73,.81,1.37,.97,.64,.16,1.19,.09,1.67-.21,.47-.3,.8-.82,.98-1.56l1.14-4.61,1.71,.42-2.75,11.08-1.71-.42,.94-3.79c-.38,.28-.81,.46-1.3,.54-.49,.08-1,.05-1.53-.08-.63-.16-1.16-.43-1.58-.82Z"/>
  <path class="cls-1" d="M38.21,109.1c.1,.29,.08,.58-.06,.86s-.35,.48-.64,.58c-.29,.1-.58,.08-.86-.06-.28-.13-.47-.35-.57-.63-.1-.29-.08-.58,.06-.86,.14-.29,.35-.48,.64-.58,.29-.1,.57-.08,.85,.05,.29,.14,.48,.35,.58,.64Z"/>
  <path class="cls-1" d="M30.39,104.88c.29,.68,.39,1.4,.28,2.15-.11,.75-.43,1.48-.96,2.17-.52,.69-1.14,1.18-1.85,1.48-.71,.3-1.43,.39-2.17,.28-.74-.11-1.44-.42-2.08-.91s-1.12-1.08-1.43-1.77c-.3-.69-.4-1.41-.3-2.17,.1-.76,.42-1.49,.94-2.17,.52-.69,1.15-1.18,1.86-1.47s1.45-.38,2.21-.26c.76,.12,1.46,.42,2.1,.92,.64,.49,1.1,1.07,1.4,1.76Zm-3.53-1.06c-.45-.07-.9,0-1.36,.19-.46,.19-.88,.54-1.25,1.03-.38,.49-.6,.98-.67,1.46-.07,.48-.02,.93,.16,1.34,.18,.41,.45,.75,.81,1.03,.36,.27,.76,.44,1.2,.51s.88,0,1.31-.21c.44-.2,.85-.55,1.22-1.04,.56-.73,.8-1.43,.73-2.11-.07-.68-.39-1.24-.95-1.67-.36-.27-.76-.45-1.21-.52Z"/>
  <path class="cls-1" d="M13.02,99.61l6.32-5.69,1.18,1.31-.75,.67c.45-.03,.89,.06,1.34,.26s.84,.49,1.18,.86c.45,.5,.74,1.04,.89,1.61,.15,.58,.12,1.17-.08,1.75-.2,.59-.59,1.14-1.16,1.66l-3.72,3.34-1.17-1.3,3.52-3.17c.57-.51,.87-1.04,.92-1.6,.05-.55-.15-1.08-.59-1.57-.44-.49-.94-.74-1.5-.76-.56-.02-1.12,.23-1.69,.74l-3.52,3.17-1.18-1.31Z"/>
  <path class="cls-1" d="M9.85,94.56c-.44-.22-.82-.58-1.14-1.07l1.52-1,.25,.37c.38,.58,.81,.92,1.3,1.02,.49,.1,1.09-.08,1.81-.56l3.73-2.47,.97,1.47-7.09,4.68-.97-1.47,1.03-.68c-.5,.02-.97-.08-1.41-.3Z"/>
  <path class="cls-1" d="M7.34,86.62c-.74-.1-1.39-.38-1.94-.83-.55-.45-.96-1.02-1.22-1.71-.23-.63-.31-1.22-.24-1.78,.07-.56,.24-1.05,.51-1.46l-1.16,.43-.61-1.67,7.98-2.94,.61,1.67-1.19,.44c.48,.14,.93,.41,1.36,.8,.43,.39,.76,.89,.98,1.51,.25,.69,.31,1.38,.17,2.08-.14,.7-.47,1.33-.98,1.9s-1.16,1-1.97,1.29c-.8,.3-1.57,.39-2.31,.29Zm-1.37-5.96c-.32,.38-.52,.79-.6,1.23-.08,.45-.04,.88,.12,1.3,.16,.42,.41,.78,.75,1.07,.34,.29,.76,.47,1.24,.55,.48,.08,1,.02,1.55-.19,.55-.2,.99-.49,1.32-.87,.33-.38,.54-.8,.62-1.25,.08-.45,.04-.88-.11-1.3-.16-.42-.41-.78-.76-1.07-.35-.29-.77-.47-1.26-.55-.49-.08-1.02-.01-1.57,.19-.55,.2-.99,.49-1.31,.87Z"/>
  <path class="cls-1" d="M1.6,73.22c-.34-.47-.57-1.02-.67-1.66-.11-.73-.04-1.43,.23-2.09s.7-1.22,1.29-1.66c.6-.45,1.32-.74,2.16-.87,.84-.13,1.62-.08,2.34,.16s1.31,.64,1.78,1.18c.47,.55,.76,1.19,.87,1.92,.1,.64,.06,1.23-.12,1.77-.18,.54-.44,1-.78,1.37l5.21-.82,.27,1.74-12.39,1.94-.27-1.74,1.23-.19c-.43-.23-.82-.58-1.16-1.05Zm1.85-3.92c-.38,.3-.66,.67-.81,1.09-.16,.43-.2,.86-.13,1.31,.07,.44,.25,.83,.53,1.19,.29,.36,.66,.62,1.12,.79s.99,.21,1.57,.12c.58-.09,1.07-.29,1.46-.6,.4-.31,.67-.67,.84-1.1,.16-.43,.21-.86,.14-1.29-.07-.45-.25-.85-.54-1.2-.29-.36-.67-.62-1.15-.79-.47-.17-1-.21-1.58-.12-.58,.09-1.06,.29-1.45,.59Z"/>
  <path class="cls-1" d="M.72,61.72c-.25-.52-.36-1.11-.33-1.76,.03-.74,.24-1.41,.63-2.01,.39-.6,.92-1.06,1.59-1.38,.67-.32,1.43-.47,2.29-.43,.85,.03,1.61,.24,2.27,.61,.66,.38,1.16,.88,1.52,1.5,.35,.63,.51,1.31,.48,2.05-.03,.65-.18,1.22-.46,1.71-.28,.49-.62,.89-1.03,1.19l5.27,.21-.07,1.76-12.53-.5,.07-1.76,1.25,.05c-.38-.31-.69-.73-.94-1.26Zm2.57-3.49c-.44,.23-.77,.53-1.01,.92-.24,.39-.36,.81-.38,1.26-.02,.44,.08,.87,.29,1.27,.21,.4,.53,.74,.95,1,.42,.26,.93,.4,1.51,.42,.59,.02,1.1-.08,1.55-.3s.79-.53,1.03-.92,.37-.8,.39-1.24c.02-.45-.08-.88-.3-1.29-.22-.4-.54-.74-.97-1-.43-.26-.94-.4-1.53-.42-.59-.02-1.1,.08-1.53,.3Z"/>
  <path class="cls-1" d="M1.97,50.66c-.16-.47-.18-.99-.06-1.56l1.79,.35-.09,.44c-.13,.68-.06,1.22,.21,1.64,.27,.42,.84,.71,1.68,.87l4.39,.86-.34,1.73-8.34-1.63,.34-1.73,1.21,.24c-.38-.33-.64-.74-.79-1.2Z"/>
  <path class="cls-1" d="M10.74,47.98c-.56,.49-1.22,.79-1.97,.92-.75,.13-1.54,.04-2.36-.25-.81-.29-1.47-.73-1.97-1.31-.5-.58-.81-1.25-.93-1.99-.12-.74-.04-1.49,.23-2.26,.27-.77,.69-1.4,1.25-1.9s1.22-.82,1.98-.95c.76-.13,1.54-.06,2.36,.23,.81,.29,1.47,.73,1.97,1.32s.81,1.27,.92,2.02c.12,.76,.04,1.52-.23,2.28-.27,.76-.69,1.38-1.25,1.87Zm-.07-3.69c-.07-.45-.27-.86-.59-1.23-.32-.38-.78-.67-1.36-.88-.58-.21-1.11-.27-1.59-.19s-.89,.27-1.22,.56c-.33,.3-.58,.66-.73,1.08s-.19,.86-.12,1.29c.07,.44,.27,.83,.6,1.19s.78,.64,1.36,.85c.86,.31,1.61,.32,2.23,.05,.63-.27,1.06-.74,1.3-1.41,.15-.43,.19-.86,.12-1.31Z"/>
  <path class="cls-1" d="M8.25,37.52c-.4-.64-.59-1.32-.59-2.04,0-.72,.21-1.44,.61-2.14,.51-.89,1.15-1.51,1.91-1.85,.76-.34,1.59-.38,2.49-.14l-.95,1.64c-.44-.08-.85-.03-1.23,.15-.37,.18-.69,.49-.95,.93-.36,.62-.43,1.25-.2,1.87,.23,.62,.74,1.17,1.53,1.62,.79,.46,1.52,.63,2.18,.52s1.17-.48,1.53-1.1c.51-.88,.46-1.69-.15-2.42l.95-1.64c.62,.65,.99,1.39,1.09,2.23,.1,.84-.1,1.7-.6,2.57-.41,.7-.92,1.24-1.55,1.6s-1.32,.53-2.07,.5c-.75-.02-1.51-.25-2.26-.69-.76-.44-1.33-.98-1.73-1.61Z"/>
  <path class="cls-1" d="M16.18,23.2c.54-.21,1.11-.25,1.72-.12,.61,.13,1.2,.44,1.79,.94l3.82,3.25-1.13,1.33-3.62-3.08c-.58-.49-1.15-.73-1.7-.7-.56,.03-1.05,.29-1.47,.79-.43,.5-.61,1.03-.55,1.59s.38,1.08,.96,1.57l3.62,3.08-1.14,1.34-8.7-7.39,1.14-1.34,2.98,2.53c-.08-.46-.05-.93,.1-1.4,.15-.48,.4-.92,.75-1.34,.42-.49,.9-.84,1.44-1.05Z"/>
  <path class="cls-1" d="M27.65,23.43c-.3-.04-.55-.18-.75-.43s-.28-.53-.24-.83c.04-.3,.18-.55,.43-.75,.24-.19,.52-.27,.82-.23s.55,.18,.75,.43c.2,.25,.28,.53,.24,.83s-.18,.55-.42,.74c-.25,.2-.53,.28-.83,.24Z"/>
</svg>