<?xml version="1.0" encoding="UTF-8"?><svg id="a" xmlns="http://www.w3.org/2000/svg" width="130.2" height="130.8" viewBox="0 0 130.2 130.8"><defs><style>.b{fill:#111f29;}</style></defs><g><path class="b" d="M35.2,118h-2.7l1.4-3.8,1.3,3.8Zm-2.1-7.2l-4.2,11.4h2.1l.8-2.4h4l.8,2.4h2.1l-4.2-11.4h-1.4Z"/><polygon class="b" points="43.2 110.8 41.2 110.8 41.2 122.2 48.6 122.2 48.6 120.3 43.2 120.3 43.2 110.8"/><g><path class="b" d="M57.6,116.4c0,.9,0,1.7-.1,2.2s-.2,.8-.4,1.1c-.2,.2-.5,.4-.8,.5s-.6,.2-1,.2h-1.9v-7.6h1.9c.4,0,.7,.1,1,.2s.5,.3,.7,.5,.4,.6,.5,1c.1,.3,.1,1,.1,1.9m.8-4.5c-.7-.7-1.7-1.1-3-1.1h-4v11.4h4c1.2,0,2.2-.4,3-1.1,.5-.5,.8-1.1,1-1.9,.1-.7,.2-1.6,.2-2.8,0-1.1-.1-2-.2-2.6-.1-.8-.5-1.4-1-1.9"/><path class="b" d="M69.2,114.2c0,.5-.1,.9-.4,1.1-.3,.3-.7,.4-1.2,.4h-2.4v-3h2.4c.5,0,.9,.1,1.2,.4,.2,.2,.4,.6,.4,1.1m1.2,2.1c.5-.6,.7-1.3,.7-2.1,0-1-.3-1.8-1-2.5-.7-.6-1.5-.9-2.5-.9h-4.5v11.4h2v-4.7h1.8l2.4,4.7h2.3l-2.6-4.9c.6-.2,1.1-.6,1.4-1"/></g><rect class="b" x="74.6" y="110.8" width="2" height="11.4"/><path class="b" d="M82.2,114.2h0c0-.2,.1-.4,.2-.6,.1-.1,.2-.3,.3-.4,.2-.2,.4-.3,.7-.4,.3-.1,.5-.2,.8-.2,.5,0,1,.2,1.3,.5,.4,.3,.6,.8,.7,1.3l.1,.3h2l-.1-.5c-.2-1.1-.7-1.9-1.4-2.6-.7-.6-1.6-.9-2.7-.9-.6,0-1.1,.1-1.6,.3-.5,.2-1,.5-1.4,.9-.3,.3-.5,.6-.6,.9-.2,.3-.3,.6-.3,1-.1,.3-.1,.7-.1,1.1v3.2c0,.4,.1,.8,.1,1.1,.1,.4,.2,.7,.3,1,.2,.3,.4,.6,.6,.9,.4,.4,.9,.7,1.4,.9,.5,.2,1.1,.3,1.6,.3,1,0,1.9-.3,2.7-.9,.7-.6,1.2-1.5,1.4-2.6l.1-.5h-2l-.1,.3c-.1,.6-.4,1-.7,1.3-.4,.3-.8,.5-1.4,.5-.3,0-.6-.1-.8-.2-.3-.1-.5-.3-.7-.4-.1-.1-.2-.3-.3-.4-.1-.1-.1-.3-.2-.6,0-.2-.1-.5-.1-.9v-2.8c.1-.4,.2-.7,.2-.9"/><polygon class="b" points="97.8 110.8 97.8 115.5 93.7 115.5 93.7 110.8 91.7 110.8 91.7 122.2 93.7 122.2 93.7 117.4 97.8 117.4 97.8 122.2 99.8 122.2 99.8 110.8 97.8 110.8"/><rect class="b" x="40.8" y="91.2" width="1.9" height="2"/><rect class="b" x="42.1" y="94.1" width="1.9" height="2.1"/><rect class="b" x="39.4" y="94.1" width="1.9" height="2.1"/><rect class="b" x="55.4" y="94.1" width="1.9" height="2.1"/><rect class="b" x="58.3" y="94.1" width="1.9" height="2.1"/><rect class="b" x="63.7" y="105.1" width="1.9" height="2.1"/><path class="b" d="M70.2,103.2h0c.4-.5,.6-1.1,.6-1.8v-4.3h-1.9v4.3c0,.2,0,.4-.2,.6-.1,.1-.4,.2-.5,.2h-8.4c-.2,0-.4-.1-.6-.3-.2-.3-.4-.6-.4-1.1v-3.6h-1.9v4.2c0,.2-.1,.4-.3,.5s-.4,.2-.6,.2h-8.3c-.2,0-.4-.1-.6-.3-.3-.2-.4-.5-.4-.9v-3.9h-1.9v4.4c0,.3-.1,.5-.2,.6-.1,.1-.3,.2-.5,.2-.4,0-.8-.1-1.1-.4s-.4-.6-.5-1.1v-3.3h-1.9v4c0,.3-.1,.8-.7,.8-1,0-1.5-.4-1.5-1.5v-3.2h-1.8v4.7c0,.9-.3,1.6-.8,2.2-.6,.6-1.2,.9-1.9,.9-.8,0-1.4-.3-1.9-.9-.6-.6-.8-1.3-.8-2.2v-3.8h-1.9v3.7c0,1.4,.4,2.5,1.3,3.5s2,1.5,3.3,1.5,2.4-.5,3.2-1.5c.6-.7,1-1.4,1.2-2.3,.4,.3,1,.5,1.7,.5,.8,0,1.5-.3,2-.9,.5,.6,1.2,.9,2.2,.9,.8,0,1.5-.3,2-.9,0,0,0,.1,.1,.1,.4,.4,.9,.7,1.5,.7h8.4c.5,0,1-.1,1.4-.4,.2-.1,.4-.3,.6-.5q.1,.1,.2,.2c.4,.4,1,.7,1.5,.7h8.5c.8,.3,1.4,0,1.8-.5"/><rect class="b" x="66.4" y="105.1" width="1.9" height="2.1"/><g><path class="b" d="M72.9,97.2v5c0,1-.3,1.8-.8,2.4-.6,.7-1.3,1-2.1,1.1h-.7l.3,.7c.1,.3,.3,.6,.4,.8l.2,.3h.3c1.3-.1,2.4-.7,3.2-1.7,.8-1,1.2-2.2,1.2-3.7v-4.8h-2v-.1Z"/><path class="b" d="M96.8,93.2v-.5h-1.9v8.7c0,.6-.2,.7-.7,.7h-12.2c-.1-1.4-.5-2.6-1.1-3.5s-1.4-1.4-2.3-1.5h-.6v1.7l.4,.1c.4,.1,.8,.4,1.1,1,.4,.6,.6,1.4,.7,2.2h-4.2l-.6,1.8h18.9c.8,0,1.4-.2,1.9-.7,.4-.5,.6-1.1,.6-1.8v-8.2"/><path class="b" d="M99.1,88.8c0-.1,0-.3,.1-.4,0-.1,.1-.2,.3-.2,.4-.1,.6,.2,.6,.2l.2,.3,1.1-1.1-.2-.2s-.8-1.2-2.3-.9c-1,.2-1.4,1.3-1.3,2.1,0,.1,.1,.3,.1,.6h-.7l-.7,1.5h4.4v-1.5h-1.1c-.3,.1-.5-.3-.5-.4"/></g><polygon class="b" points="97.8 92.7 97.9 104 99.8 104 99.7 92.7 97.8 92.7"/></g><g><path class="b" d="M101.3,65.25c-1.3,.1-2.5,.2-3.8,.3-.3,0-.6,.1-.8,.1-13.1,2-24.6,10-30.7,15.2h.4c6.4-4.8,19.6-12.9,34.9-13.7v-1.9Z"/><path class="b" d="M101.3,75.25c-12.6-.7-24.2,2.6-31.9,5.6h31.9v-5.6Z"/><path class="b" d="M98,62.15l-2.3-4c1.1-.3,2.1-.7,3.3-1l2.3,4.1V8.45H28.9v60.5c13.1,.8,24.4,7.6,30.2,11.9h2.4c-1.7-1.3-4.2-3.2-7.5-5.1V37.05l.1-.1,7.5-3.9v47.8h1.2c.7-18,21.8-30.2,21.8-30.2l-9.9-17.1c-5.8,2.6-9.6,5.7-11.5,9,3.2-7.3,11.2-11.8,12.8-12.6l4.1,6.8,.4,.7,5.4,8.9,.4,.7,2.5,4.2,.3,.4c-16.1,7.4-24.3,20-25.9,29.1h.8c5.6-13.2,18.8-22.4,29.9-26.1l-9.2-16.4c-.7,.3-1.4,.7-2.1,1l-1.4-2.3c2.6-1.8,4.3-2.4,5-2.6l5.7,9.8,6.9,12h-.1c-1.7,.5-3.3,1-4.9,1.6-.3,.1-.5,.2-.8,.3-16.5,6.3-24.9,16.9-28.5,22.8h.6c7.5-8.9,21.2-16.5,32.9-18.7Zm-55.7,8.2c-2.4-.8-4.9-1.5-7.6-2v-5.9l7.6-3v10.9Zm9.6,4.3c-2.3-1.2-4.8-2.5-7.6-3.5v-22.3l7.6-2.7v28.5Z"/><path class="b" d="M28.9,76.15v4.7h27.1c-6.7-2.5-16.5-5.1-27.1-4.7Z"/></g></svg>