<?xml version="1.0" encoding="UTF-8"?>
<svg id="Layer_1" data-name="Layer 1" xmlns="http://www.w3.org/2000/svg" width="156" height="212" viewBox="0 0 156 212">
  <defs>
    <style>
      .cls-1 {
        fill: #f6f6f7;
      }
    </style>
  </defs>
  <path class="cls-1" d="M152.96,174.47c-4.03-.07-7.97,.18-11.82,.68-.54,.07-1.09,.13-1.63,.21-30.66,4.56-56.66,26.18-65.58,34.92,13.3-19.53,43.04-37.13,68.11-41.84l-4.43-7.88c2.06-.68,4.18-1.33,6.37-1.94l8.97,15.85Z"/>
  <path class="cls-1" d="M56.41,119.62l.19-.18,14.55-7.62v93.31c-3.27-2.56-8.31-6.22-14.74-10.02V119.62Z"/>
  <path class="cls-1" d="M37.59,142.61l14.74-5.26v55.45c-4.43-2.41-9.38-4.8-14.74-6.88v-43.31Z"/>
  <path class="cls-1" d="M18.93,168.93l14.74-5.94v21.48c-4.66-1.63-9.58-3-14.74-3.98v-11.56Z"/>
  <path class="cls-1" d="M72.95,210.46c-11.49-5.64-39.96-17.37-71.48-14.25v-1.01l4.86-13.41c33.17,1.66,60.68,23.18,66.84,28.66h-.22Z"/>
  <path class="cls-1" d="M73.6,210.46c-3.14-38.02,42.31-64.22,42.31-64.22l-19.24-33.27c-11.27,5.06-18.75,11.06-22.46,17.56,6.18-14.12,21.74-23.03,24.88-24.53l8,13.29,.82,1.36,10.42,17.32,.83,1.38,4.94,8.2,.51,.85c-34.64,16.03-50.5,44.28-51,62.06h-.01Z"/>
  <path class="cls-1" d="M73.66,210.46c9.33-28.75,37.14-48.59,60.22-56.34l-17.9-31.91c-1.4,.63-2.77,1.31-4.08,2.04l-2.7-4.49c5.07-3.47,8.41-4.75,9.65-5.15l11,19.1,13.53,23.46c-.07,.02-.12,.04-.19,.06-3.3,.92-6.45,1.94-9.47,3.02-.49,.18-.99,.36-1.48,.54-35.04,13.1-51.43,36.68-57.26,47.22-.08,.15-.17,.3-.25,.44-.41,.75-.75,1.42-1.05,2.02h-.03Z"/>
  <path class="cls-1" d="M73.96,210.46h-.22c6.83-6.1,37.69-30.29,74.92-32.14l5.87,16.19c-35.54-3.66-67.68,9.62-80.57,15.95Z"/>
</svg>