<?xml version="1.0" encoding="utf-8"?>
<!-- Generator: Adobe Illustrator 26.5.0, SVG Export Plug-In . SVG Version: 6.00 Build 0)  -->
<svg version="1.1" id="Layer_1" xmlns="http://www.w3.org/2000/svg" xmlns:xlink="http://www.w3.org/1999/xlink" x="0px" y="0px"
	 viewBox="0 0 130.2 130.8" style="enable-background:new 0 0 130.2 130.8;" xml:space="preserve">
<style type="text/css">
	.st0{fill:#FFFFFF;}
	.st1{fill:none;}
	.st2{fill:url(#SVGID_1_);}
</style>
<g>
	<g>
		<g>
			<g>
				<path class="st0" d="M35.2,117.9h-2.7l1.4-3.8L35.2,117.9z M33.1,110.8l-4.2,11.4H31l0.8-2.4h4l0.8,2.4h2.1l-4.2-11.4H33.1z"/>
				<polygon class="st0" points="43.2,110.8 41.2,110.8 41.2,122.2 48.6,122.2 48.6,120.3 43.2,120.3 				"/>
				<g>
					<path class="st0" d="M57.6,116.4c0,0.9,0,1.7-0.1,2.2c-0.1,0.5-0.2,0.8-0.4,1.1c-0.2,0.2-0.5,0.4-0.8,0.5
						c-0.3,0.1-0.6,0.2-1,0.2h-1.9v-7.6h1.9c0.4,0,0.7,0.1,1,0.2c0.3,0.1,0.5,0.3,0.7,0.5c0.2,0.2,0.4,0.6,0.5,1
						C57.6,114.8,57.6,115.5,57.6,116.4 M58.4,111.9c-0.7-0.7-1.7-1.1-3-1.1h-4v11.4h4c1.2,0,2.2-0.4,3-1.1c0.5-0.5,0.8-1.1,1-1.9
						c0.1-0.7,0.2-1.6,0.2-2.8c0-1.1-0.1-2-0.2-2.6C59.3,113,58.9,112.4,58.4,111.9"/>
					<path class="st0" d="M69.2,114.2c0,0.5-0.1,0.9-0.4,1.1c-0.3,0.3-0.7,0.4-1.2,0.4h-2.4v-3h2.4c0.5,0,0.9,0.1,1.2,0.4
						C69,113.3,69.2,113.7,69.2,114.2 M70.4,116.3c0.5-0.6,0.7-1.3,0.7-2.1c0-1-0.3-1.8-1-2.5c-0.7-0.6-1.5-0.9-2.5-0.9h-4.5v11.4h2
						v-4.7h1.8l2.4,4.7l2.3,0l-2.6-4.9C69.6,117,70.1,116.7,70.4,116.3"/>
				</g>
				<rect x="74.6" y="110.8" class="st0" width="2" height="11.4"/>
				<g>
					<path class="st0" d="M82.2,114.2L82.2,114.2c0-0.2,0.1-0.4,0.2-0.6c0.1-0.1,0.2-0.3,0.3-0.4c0.2-0.2,0.4-0.3,0.7-0.4
						c0.3-0.1,0.5-0.2,0.8-0.2c0.5,0,1,0.2,1.3,0.5c0.4,0.3,0.6,0.8,0.7,1.3l0.1,0.3h2l-0.1-0.5c-0.2-1.1-0.7-1.9-1.4-2.6
						c-0.7-0.6-1.6-0.9-2.7-0.9c-0.6,0-1.1,0.1-1.6,0.3c-0.5,0.2-1,0.5-1.4,0.9c-0.3,0.3-0.5,0.6-0.6,0.9c-0.2,0.3-0.3,0.6-0.3,1
						c-0.1,0.3-0.1,0.7-0.1,1.1c0,0.4,0,0.9,0,1.6c0,0.7,0,1.2,0,1.6c0,0.4,0.1,0.8,0.1,1.1c0.1,0.4,0.2,0.7,0.3,1
						c0.2,0.3,0.4,0.6,0.6,0.9c0.4,0.4,0.9,0.7,1.4,0.9c0.5,0.2,1.1,0.3,1.6,0.3c1,0,1.9-0.3,2.7-0.9c0.7-0.6,1.2-1.5,1.4-2.6
						l0.1-0.5h-2l-0.1,0.3c-0.1,0.6-0.4,1-0.7,1.3c-0.4,0.3-0.8,0.5-1.4,0.5c-0.3,0-0.6-0.1-0.8-0.2c-0.3-0.1-0.5-0.3-0.7-0.4
						c-0.1-0.1-0.2-0.3-0.3-0.4c-0.1-0.1-0.1-0.3-0.2-0.5c0-0.2-0.1-0.5-0.1-0.9c0-0.3,0-0.8,0-1.4c0-0.6,0-1.1,0-1.4
						C82.1,114.7,82.2,114.4,82.2,114.2"/>
				</g>
				<polygon class="st0" points="97.8,110.8 97.8,115.5 93.7,115.5 93.7,110.8 91.7,110.8 91.7,122.2 93.7,122.2 93.7,117.4 
					97.8,117.4 97.8,122.2 99.8,122.2 99.8,110.8 				"/>
				<rect x="40.8" y="91.2" class="st0" width="1.9" height="2"/>
				<rect x="42.2" y="94.1" class="st0" width="1.9" height="2.1"/>
				<rect x="39.4" y="94.1" class="st0" width="1.9" height="2.1"/>
				<rect x="55.4" y="94.1" class="st0" width="1.9" height="2.1"/>
				<rect x="58.3" y="94.1" class="st0" width="1.9" height="2.1"/>
				<rect x="63.7" y="105.1" class="st0" width="1.9" height="2.1"/>
				<g>
					<path class="st0" d="M70.2,103.2L70.2,103.2c0.4-0.5,0.6-1.1,0.6-1.8l0-4.3h-1.9l0,2c0,1,0,1.8,0,2.3c0,0.2,0,0.4-0.2,0.6
						c-0.1,0.1-0.4,0.2-0.5,0.2l-8.4,0c-0.2,0-0.4-0.1-0.6-0.3c-0.2-0.3-0.4-0.6-0.4-1.1c0-1,0-2,0-3.1v-0.5h-1.9l0,0.5
						c0,0.5,0,1,0,1.5l0,0.3c0,0.7,0,1.3,0,1.9c0,0.2-0.1,0.4-0.3,0.5c-0.2,0.1-0.4,0.2-0.6,0.2h-8.3c-0.2,0-0.4-0.1-0.6-0.3
						c-0.3-0.2-0.4-0.5-0.4-0.9l0-0.8c0-1.2,0-2,0-2.6l0-0.5h-1.9l0,3.3c0,0.6,0,1,0,1.1c0,0.3-0.1,0.5-0.2,0.6
						c-0.1,0.1-0.3,0.2-0.5,0.2c-0.4,0-0.8-0.1-1.1-0.4c-0.3-0.3-0.4-0.6-0.5-1.1l0-0.5c0-1,0-1.7,0-2.2l0-0.5h-1.9l0,2.7
						c0,0.6,0,1,0,1.3c0,0.3-0.1,0.8-0.7,0.8c-1,0-1.5-0.4-1.5-1.5c0-1.8,0-2.7,0-2.7v-0.5h-1.8v4.7c0,0.9-0.3,1.6-0.8,2.2
						c-0.6,0.6-1.2,0.9-1.9,0.9c-0.8,0-1.4-0.3-1.9-0.9c-0.5-0.6-0.8-1.3-0.8-2.2l0-3.8h-1.9l0,0.5c0,1.8,0,2.9,0,3.2
						c0,1.4,0.4,2.5,1.3,3.5c0.9,1,2,1.5,3.3,1.5c1.3,0,2.3-0.5,3.2-1.5c0.6-0.7,1-1.4,1.2-2.3c0.4,0.3,1,0.5,1.7,0.5
						c0.8,0,1.5-0.3,2-0.9c0.5,0.6,1.2,0.9,2.2,0.9c0.8,0,1.5-0.3,2-0.9c0,0,0,0.1,0.1,0.1c0.4,0.4,0.9,0.7,1.5,0.7h8.3
						c0.5,0,1-0.1,1.4-0.4c0.2-0.1,0.4-0.3,0.6-0.5c0.1,0.1,0.1,0.1,0.2,0.2c0.4,0.4,1,0.7,1.5,0.7h8.5
						C69.1,103.9,69.8,103.7,70.2,103.2"/>
				</g>
				<rect x="66.4" y="105.1" class="st0" width="1.9" height="2.1"/>
				<g>
					<path class="st0" d="M72.9,97.1l0,5c0,1-0.3,1.8-0.8,2.4c-0.6,0.7-1.3,1-2.1,1.1l-0.7,0l0.3,0.7c0.1,0.3,0.3,0.6,0.4,0.8
						l0.2,0.3l0.3,0c1.3-0.1,2.4-0.7,3.2-1.7c0.8-1,1.2-2.2,1.2-3.7l0-4.8H72.9z"/>
					<path class="st0" d="M96.8,93.2v-0.5h-1.9l0,1.8c0,2.7,0,5,0,6.9c0,0.6-0.2,0.7-0.7,0.7H82c-0.1-1.4-0.5-2.6-1.1-3.5
						c-0.6-0.9-1.4-1.4-2.3-1.5L78,97.1v1.7l0.4,0.1c0.4,0.1,0.8,0.4,1.1,1c0.4,0.6,0.6,1.4,0.7,2.2H76l-0.6,1.8h18.9
						c0.8,0,1.4-0.2,1.9-0.7c0.4-0.5,0.6-1.1,0.6-1.8l0-2.1C96.8,96.9,96.8,94.9,96.8,93.2"/>
					<path class="st0" d="M99.1,88.8c0-0.1,0-0.3,0.1-0.4c0-0.1,0.1-0.2,0.3-0.2c0.4-0.1,0.6,0.2,0.6,0.2l0.2,0.3l1.1-1.1l-0.2-0.2
						c0,0-0.8-1.2-2.3-0.9c-1,0.2-1.4,1.3-1.3,2.1c0,0.1,0.1,0.3,0.1,0.6H97l-0.7,1.5h4.4v-1.5h-1.1C99.2,89.3,99.1,88.9,99.1,88.8"
						/>
				</g>
				<polygon class="st0" points="97.8,92.7 97.9,103.9 99.8,103.9 99.7,92.7 				"/>
			</g>
		</g>
	</g>
	<g>
		<g>
			<path class="st1" d="M92.9,58.2c0.2-0.1,0.5-0.2,0.8-0.3c1.6-0.6,3.2-1.1,4.9-1.6c0,0,0.1,0,0.1,0l-6.9-12l-5.6-9.8
				c-0.6,0.2-2.4,0.9-5,2.6l1.4,2.3c0.7-0.4,1.4-0.7,2.1-1l9.2,16.4c-11.1,3.7-24.3,12.9-29.9,26.1h0.5C68.1,75,76.5,64.4,92.9,58.2
				z"/>
			<path class="st1" d="M34.8,68.3c2.6,0.5,5.2,1.2,7.6,2v-11l-7.6,3V68.3z"/>
			<path class="st1" d="M89,51.9l-0.3-0.4l-2.5-4.2l-0.4-0.7l-5.3-8.9L80,36.9l-4.1-6.8c-1.6,0.8-9.6,5.3-12.8,12.6
				c1.9-3.3,5.7-6.4,11.5-9l9.9,17.1c0,0-21.1,12.2-21.8,30.1h0.4C64.8,71.8,73,59.3,89,51.9z"/>
			<path class="st1" d="M44.4,71.1c2.8,1.1,5.3,2.3,7.6,3.5V46.2l-7.6,2.7V71.1z"/>
			<path class="st1" d="M54.1,37L54.1,37L54,75.9c3.2,1.9,5.8,3.8,7.5,5.1h0.1V33.1L54.1,37z"/>
			<linearGradient id="SVGID_1_" gradientUnits="userSpaceOnUse" x1="9.0492" y1="28.4289" x2="81.4105" y2="100.7902">
				<stop  offset="0" style="stop-color:#284895"/>
				<stop  offset="0.3296" style="stop-color:#284A96"/>
				<stop  offset="0.4255" style="stop-color:#274F9A"/>
				<stop  offset="0.5338" style="stop-color:#235CA4"/>
				<stop  offset="0.6481" style="stop-color:#1D73B6"/>
				<stop  offset="0.7657" style="stop-color:#1592CF"/>
				<stop  offset="0.8574" style="stop-color:#0DB0E6"/>
			</linearGradient>
			<path class="st2" d="M61.6,81L61.6,81L61.6,81C61.5,80.9,61.6,81,61.6,81z"/>
			<path class="st0" d="M101.3,65.3c-1.3,0.1-2.5,0.2-3.8,0.3c-0.3,0-0.6,0.1-0.8,0.1c-13.1,2-24.6,10-30.7,15.2h0.4
				C72.8,76.1,86,68,101.3,67.2V65.3z"/>
			<path class="st0" d="M101.3,75.3c-12.6-0.7-24.2,2.6-31.8,5.6h31.8V75.3z"/>
			<path class="st0" d="M98,62.2l-2.3-4c1.1-0.3,2.1-0.7,3.3-1l2.3,4.1V8.6H28.9v60.5c13.1,0.8,24.4,7.6,30.2,11.9h2.4
				c-1.7-1.3-4.2-3.2-7.5-5.1V37.1l0.1-0.1l7.5-3.9v47.8h1.2c0.7-18,21.8-30.1,21.8-30.1l-9.9-17.1c-5.8,2.6-9.6,5.7-11.5,9
				c3.2-7.2,11.2-11.8,12.8-12.6l4.1,6.8l0.4,0.7l5.3,8.9l0.4,0.7l2.5,4.2l0.3,0.4c-16,7.4-24.2,20-25.9,29h0.8
				c5.6-13.2,18.8-22.4,29.9-26.1l-9.2-16.4c-0.7,0.3-1.4,0.7-2.1,1l-1.4-2.3c2.6-1.8,4.3-2.4,5-2.6l5.6,9.8l6.9,12c0,0-0.1,0-0.1,0
				c-1.7,0.5-3.3,1-4.9,1.6c-0.3,0.1-0.5,0.2-0.8,0.3C76.5,64.4,68.1,75,64.5,80.9h0.6C72.6,72,86.3,64.4,98,62.2z M42.4,70.4
				c-2.4-0.8-4.9-1.5-7.6-2v-5.9l7.6-3V70.4z M51.9,74.7c-2.3-1.2-4.8-2.5-7.6-3.5V48.9l7.6-2.7V74.7z"/>
			<path class="st0" d="M28.9,76.2v4.7H56C49.3,78.4,39.6,75.8,28.9,76.2z"/>
		</g>
	</g>
</g>
</svg>
