<?xml version="1.0" encoding="utf-8"?>
<!-- Generator: Adobe Illustrator 24.0.1, SVG Export Plug-In . SVG Version: 6.00 Build 0)  -->
<svg version="1.1" id="Layer_1" xmlns="http://www.w3.org/2000/svg" xmlns:xlink="http://www.w3.org/1999/xlink" x="0px" y="0px"
	 viewBox="0 0 210.7 135.9" style="enable-background:new 0 0 210.7 135.9;" xml:space="preserve">
<style type="text/css">
	.st0{fill:#FFFFFF;}
</style>
<g>
	<path class="st0" d="M37.7,19.4c0,0-9.5,20.5-17.4,28.4c0,0-11,13.1-16.1,27.6s3.5,31.7,9,35.7c0,0-12.3-16.4-0.7-37
		S39.5,52.5,37.7,19.4z"/>
	<path class="st0" d="M42.5,23.5c0,0,6.9,14.4,21.3,31.5s16.6,43.3,1.3,56c0,0,15.3-19.4-2.2-41.1S41.1,41.8,42.5,23.5z"/>
	<g>
		<g>
			<path class="st0" d="M100.3,39.2h7.8v26H103V47.6c0-0.5,0-1.2,0-2.1c0-0.9,0-1.6,0-2.1l-4.9,21.8h-5.3L88,43.3c0,0.5,0,1.2,0,2.1
				c0,0.9,0,1.6,0,2.1v17.6H83v-26h7.9l4.7,20.4L100.3,39.2z"/>
			<path class="st0" d="M131,43.8h-13.7v5.5h12.6v4.5h-12.6v6.7h14.4v4.7H112v-26h19V43.8z"/>
			<path class="st0" d="M137.1,41.9c2.1-2.1,4.8-3.2,8-3.2c4.3,0,7.5,1.4,9.5,4.3c1.1,1.6,1.7,3.2,1.8,4.8h-5.4
				c-0.3-1.2-0.8-2.2-1.3-2.8c-1-1.1-2.4-1.7-4.3-1.7c-1.9,0-3.5,0.8-4.6,2.4c-1.1,1.6-1.7,3.8-1.7,6.8c0,2.9,0.6,5.1,1.8,6.5
				c1.2,1.5,2.7,2.2,4.5,2.2c1.9,0,3.3-0.6,4.3-1.9c0.5-0.7,1-1.7,1.3-3h5.4c-0.5,2.8-1.7,5.1-3.6,6.9c-1.9,1.8-4.4,2.7-7.3,2.7
				c-3.7,0-6.6-1.2-8.7-3.6c-2.1-2.4-3.2-5.7-3.2-9.9C133.5,47.8,134.7,44.3,137.1,41.9z"/>
			<path class="st0" d="M179.4,62.8c-2,2-4.8,3-8.5,3c-3.7,0-6.5-1-8.5-3c-2.6-2.5-3.9-6-3.9-10.7c0-4.8,1.3-8.3,3.9-10.7
				c2-2,4.8-3,8.5-3c3.7,0,6.5,1,8.5,3c2.6,2.4,3.9,6,3.9,10.7C183.4,56.8,182.1,60.3,179.4,62.8z M176,58.9
				c1.3-1.6,1.9-3.8,1.9-6.8c0-2.9-0.6-5.2-1.9-6.8c-1.3-1.6-3-2.4-5.1-2.4c-2.1,0-3.9,0.8-5.1,2.4c-1.3,1.6-1.9,3.8-1.9,6.8
				c0,2.9,0.6,5.2,1.9,6.8c1.3,1.6,3,2.4,5.1,2.4C173.1,61.2,174.8,60.5,176,58.9z"/>
			<path class="st0" d="M188.7,41.9c2.1-2.1,4.8-3.2,8-3.2c4.3,0,7.5,1.4,9.5,4.3c1.1,1.6,1.7,3.2,1.8,4.8h-5.4
				c-0.3-1.2-0.8-2.2-1.3-2.8c-1-1.1-2.4-1.7-4.3-1.7c-1.9,0-3.5,0.8-4.6,2.4c-1.1,1.6-1.7,3.8-1.7,6.8c0,2.9,0.6,5.1,1.8,6.5
				c1.2,1.5,2.7,2.2,4.5,2.2c1.9,0,3.3-0.6,4.3-1.9c0.5-0.7,1-1.7,1.3-3h5.4c-0.5,2.8-1.7,5.1-3.6,6.9c-1.9,1.8-4.4,2.7-7.3,2.7
				c-3.7,0-6.6-1.2-8.7-3.6c-2.1-2.4-3.2-5.7-3.2-9.9C185.1,47.8,186.3,44.3,188.7,41.9z"/>
		</g>
		<g>
			<path class="st0" d="M94.5,71.6c1.6,0.8,2.8,2,3.6,3.5c0.8,1.5,1.3,3.3,1.3,5.4c0,2.1-0.4,3.9-1.3,5.4c-0.8,1.5-2.1,2.7-3.6,3.4
				C93,90,91,90.4,88.8,90.4h-5.9V70.3h5.9C91,70.3,93,70.8,94.5,71.6z M95.2,86.6c1.5-1.5,2.2-3.5,2.2-6.1c0-2.6-0.7-4.7-2.2-6.2
				c-1.5-1.5-3.6-2.2-6.4-2.2h-3.9v16.7h3.9C91.6,88.8,93.8,88,95.2,86.6z"/>
			<path class="st0" d="M105.7,70.3V83c0,2,0.5,3.5,1.4,4.4c0.9,1,2.2,1.4,3.9,1.4c1.6,0,2.9-0.5,3.9-1.4c0.9-0.9,1.4-2.4,1.4-4.4
				V70.3h2V83c0,2.5-0.7,4.5-2,5.7c-1.4,1.3-3.1,1.9-5.3,1.9c-2.2,0-3.9-0.6-5.3-1.9c-1.3-1.3-2-3.2-2-5.7V70.3H105.7z"/>
			<path class="st0" d="M135.6,81.8c0.8,0.9,1.2,2,1.2,3.3c0,1-0.3,1.9-0.8,2.7c-0.5,0.8-1.2,1.5-2.2,1.9c-1,0.5-2.1,0.7-3.5,0.7h-7
				V70.3h6.8c2,0,3.6,0.5,4.6,1.4c1.1,0.9,1.6,2.2,1.6,3.6c0,1.2-0.3,2.3-1,3c-0.7,0.8-1.5,1.3-2.6,1.6
				C133.8,80.3,134.8,80.8,135.6,81.8z M125.3,79.2h4.7c1.4,0,2.4-0.3,3.1-1c0.7-0.6,1.1-1.5,1.1-2.7c0-1.1-0.4-2-1.1-2.6
				c-0.7-0.6-1.8-0.9-3.2-0.9h-4.6V79.2z M133.5,87.7c0.8-0.7,1.2-1.6,1.2-2.8s-0.4-2.2-1.3-2.9c-0.9-0.7-2-1.1-3.4-1.1h-4.7v7.8
				h4.8C131.6,88.7,132.7,88.4,133.5,87.7z"/>
			<path class="st0" d="M152.7,85.7h-9.1l-1.8,4.8h-2.1l7.3-19.8h2.3l7.3,19.8h-2.1L152.7,85.7z M152.1,84l-4-10.9l-4,10.9H152.1z"
				/>
			<path class="st0" d="M162.3,70.3v20.1h-2V70.3H162.3z"/>
			<path class="st0" d="M84.8,96.2v12.6c0,2,0.5,3.5,1.4,4.4c0.9,1,2.2,1.4,3.9,1.4c1.6,0,2.9-0.5,3.9-1.4c0.9-0.9,1.4-2.4,1.4-4.4
				V96.2h2v12.6c0,2.5-0.7,4.5-2,5.7c-1.4,1.3-3.1,1.9-5.3,1.9c-2.2,0-3.9-0.6-5.3-1.9c-1.3-1.3-2-3.2-2-5.7V96.2H84.8z"/>
			<path class="st0" d="M114.1,111.5h-9.1l-1.8,4.8h-2.1l7.3-19.8h2.3l7.3,19.8h-2.1L114.1,111.5z M113.5,109.8l-4-10.9l-4,10.9
				H113.5z"/>
			<path class="st0" d="M123.8,97.8v7.5h7.6v1.7h-7.6v7.6h8.5v1.7h-10.5V96.2h10.5v1.7H123.8z"/>
		</g>
	</g>
	<g>
		<path class="st0" d="M59,75.2C48.9,61.9,43.6,56.7,39.2,44.1c0,0-4.8,12.2-11.1,19.4c-3,3.4-8.6,9.8-11.8,17.5
			c-0.5,1.1-0.9,2.3-1.2,3.5c-0.6,2.1-0.9,4.3-0.9,6.5c0,13.8,11.2,25,25,25c4.2,0,8.2-1,11.7-2.9c2.8-1.6,5-3.5,6.7-5.1
			c1.3-1.4,2.5-3,3.4-4.7c1.2-2.5,3.1-7.1,3.2-12.6C64.3,86.1,63.1,80.7,59,75.2z M18.9,90.2c0,0,4.6,16.2,23.1,19.9
			C42.1,110.1,20.7,111.9,18.9,90.2z"/>
	</g>
</g>
</svg>
