<?xml version="1.0" encoding="utf-8"?>
<!-- Generator: Adobe Illustrator 24.0.1, SVG Export Plug-In . SVG Version: 6.00 Build 0)  -->
<svg version="1.1" id="Layer_1" xmlns="http://www.w3.org/2000/svg" xmlns:xlink="http://www.w3.org/1999/xlink" x="0px" y="0px"
	 width="210.7px" height="135.9px" viewBox="0 0 210.7 135.9" style="enable-background:new 0 0 210.7 135.9;" xml:space="preserve"
	>
<style type="text/css">
	.st0{fill:#FFFFFF;}
	.st1{fill:none;}
	.st2{fill:none;stroke:#FFFFFF;stroke-miterlimit:10;}
	.st3{fill:#D3D3D3;}
	.st4{fill:#E8E8E8;}
	.st5{clip-path:url(#SVGID_18_);}
	.st6{clip-path:url(#SVGID_20_);}
	.st7{clip-path:url(#SVGID_24_);fill:#FFFFFF;}
	.st8{clip-path:url(#SVGID_26_);fill:#FFFFFF;}
	.st9{clip-path:url(#SVGID_28_);fill:#FFFFFF;}
	.st10{clip-path:url(#SVGID_30_);fill:#FFFFFF;}
	.st11{clip-path:url(#SVGID_32_);fill:#FFFFFF;}
	.st12{fill:#D9D9D9;}
	.st13{fill:#999999;}
	.st14{fill:#B3B3B3;}
	.st15{fill:#E3E3E3;}
	.st16{fill:#CCCCCC;}
	.st17{fill:#B7B7B7;}
</style>
<g>
	<path class="st15" d="M4.9,45.9c0-6.9,5.6-12.5,12.5-12.5S30,39,30,45.9c0,5-3,9.6-7.7,11.5l0.2,3.9c8.5-2.8,13.2-12,10.3-20.6
		c-2.8-8.5-12-13.2-20.6-10.3S-0.9,42.5,2,51c1.7,5,5.6,8.9,10.7,10.4l0.1-4C8,55.6,4.9,51,4.9,45.9z"/>
	<path class="st16" d="M30,45.9c0-6.9-5.6-12.5-12.5-12.5c-6.9,0-12.5,5.6-12.5,12.5c0,5.1,3.1,9.7,7.8,11.6l0.1-4.6
		c-3.9-2.5-4.9-7.7-2.4-11.5s7.7-4.9,11.5-2.4s4.9,7.7,2.4,11.5c-0.6,0.9-1.4,1.7-2.3,2.4l0.2,4.6C26.9,55.5,30,50.9,30,45.9z"/>
	<path class="st17" d="M13.4,43.4c0.2-0.2,0.4-0.3,0.7-0.3h7c0.1,0,0.3,0.1,0.3,0.1c0.1,0.1,0.1,0.2,0.1,0.3l0.5,9.2
		c3.8-2.6,4.9-7.7,2.3-11.6s-7.7-4.9-11.6-2.3c-3.8,2.6-4.9,7.7-2.3,11.6c0.6,0.9,1.4,1.7,2.4,2.4l0.3-9
		C13.2,43.7,13.3,43.6,13.4,43.4z"/>
	<path class="st0" d="M11.9,84.6h3.4c0.1-7.5,0.2-15,0.4-22.5c-1-0.1-2-0.3-3-0.6L11.9,84.6z"/>
	<path class="st0" d="M49.6,62.2h-0.5l-5.2,5.2l-5.5-5.2l-5.4,5.2l-5.5-5.2l-3.8,3.5l-0.7,0.7v-0.7l-0.3-4.3
		c-0.9,0.3-1.8,0.5-2.7,0.6c0.2,4.2,0.4,7.3,0.4,7.6c0,0.1,0,0.2,0,0.2c0,0.2,0.1,0.3,0.3,0.4l1.3,1.2l5.5-5.2c0,0,5.5,5.2,5.6,5.2
		c0.1,0,3.6-3.5,5.4-5.2l5.2,5.2h0.6l5.2-5.2l3.4,3.4v33H8.6V66c0,0,0-0.1,0-0.1c0,0-0.1-0.1-0.1,0c0,0-2.8,0-3.3,0.1
		c0,0-0.1,0-0.1,0.1c0,0,0,0.1,0,0.1V105c0,0.3,0.1,0.6,0.2,0.8c0.2,0.3,0.6,0.5,1,0.4h49c0.3,0,0.7-0.2,0.9-0.4
		c0.2-0.2,0.4-0.6,0.4-0.9V69L49.6,62.2z"/>
	<path class="st15" d="M12.7,57.5l-0.1,4c1,0.3,2,0.5,3,0.6c0.1-1.3,0.1-2.5,0.1-3.8C14.7,58.1,13.7,57.9,12.7,57.5z"/>
	<path class="st0" d="M12.7,57.5l-0.1,4c1,0.3,2,0.5,3,0.6c0.1-1.3,0.1-2.5,0.1-3.8C14.7,58.1,13.7,57.9,12.7,57.5z"/>
	<path class="st15" d="M22.3,57.4c-0.8,0.4-1.7,0.6-2.6,0.8l0.2,3.8c0.9-0.1,1.8-0.4,2.7-0.6L22.3,57.4z"/>
	<path class="st0" d="M22.3,57.4c-0.8,0.4-1.7,0.6-2.6,0.8l0.2,3.8c0.9-0.1,1.8-0.4,2.7-0.6L22.3,57.4z"/>
	<path class="st16" d="M19.5,54l0.2,4.3c0.9-0.2,1.8-0.4,2.6-0.8l-0.2-4.6C21.3,53.3,20.4,53.7,19.5,54z"/>
	<path class="st0" d="M19.5,54l0.2,4.3c0.9-0.2,1.8-0.4,2.6-0.8l-0.2-4.6C21.3,53.3,20.4,53.7,19.5,54z"/>
	<path class="st16" d="M12.9,52.9l-0.1,4.6c0.9,0.4,1.9,0.6,2.9,0.8l0.1-4.2C14.7,53.8,13.7,53.4,12.9,52.9z"/>
	<path class="st0" d="M12.9,52.9l-0.1,4.6c0.9,0.4,1.9,0.6,2.9,0.8l0.1-4.2C14.7,53.8,13.7,53.4,12.9,52.9z"/>
	<path class="st17" d="M15.9,46.3h3.2l0.4,7.6c0.9-0.2,1.8-0.6,2.6-1.1l-0.5-9.2c0-0.1-0.1-0.2-0.1-0.3c-0.1-0.1-0.2-0.1-0.3-0.1h-7
		c-0.3,0-0.5,0.1-0.7,0.3c-0.1,0.1-0.2,0.3-0.2,0.5l-0.3,9c0.9,0.6,1.8,1,2.9,1.2C15.8,51.5,15.8,48.9,15.9,46.3z"/>
	<path class="st0" d="M15.9,46.3h3.2c0.1,2.6,0.3,5.1,0.4,7.6c0.9-0.2,1.8-0.6,2.6-1.1l-0.5-9.2c0-0.1-0.1-0.2-0.1-0.3
		c-0.1-0.1-0.2-0.1-0.3-0.1h-7c-0.3,0-0.5,0.1-0.7,0.3c-0.1,0.1-0.2,0.3-0.2,0.5l-0.3,9c0.9,0.6,1.8,1,2.9,1.2
		c0-0.4,0.1-7.2,0.1-7.6L15.9,46.3z"/>
	<g>
		<path class="st0" d="M74.3,62.3v16h-2.4v-11l-2.3,11h-1.7l-2.3-11v11h-2.3v-16h3.4l2.1,10.2l2-10.2H74.3z"/>
		<path class="st0" d="M77.4,62.3h2.4v16h-2.4V62.3z"/>
		<path class="st0" d="M82.9,62.3h3.8c1,0,2,0.3,2.7,1c0.7,0.7,1.1,1.7,1,2.7v8.3c0.1,1-0.3,2-1,2.8c-0.7,0.7-1.7,1.1-2.7,1h-3.8
			V62.3z M86.5,76c0.4,0,0.8-0.1,1.1-0.4c0.3-0.3,0.4-0.7,0.4-1.1v-8.4c0.1-0.7-0.5-1.4-1.2-1.5c-0.1,0-0.2,0-0.3,0h-1.2V76L86.5,76
			z"/>
		<path class="st0" d="M93.3,62.3h3.8c1,0,2,0.3,2.7,1c0.7,0.7,1.1,1.7,1,2.7v8.3c0.1,1-0.3,2-1,2.8c-0.7,0.7-1.7,1.1-2.7,1h-3.8
			V62.3z M97,76c0.7,0.1,1.4-0.5,1.5-1.2c0-0.1,0-0.2,0-0.3v-8.4c0.1-0.7-0.5-1.4-1.2-1.5c-0.1,0-0.2,0-0.3,0h-1.2V76L97,76z"/>
		<path class="st0" d="M103.8,62.3h2.4V76h4.3v2.3h-6.7V62.3z"/>
		<path class="st0" d="M112.8,62.3h6.9v2.3h-4.4V69h3.5v2.4h-3.5V76h4.4v2.3h-6.9L112.8,62.3z"/>
		<path class="st0" d="M127.2,62.3h6.9v2.3h-4.4V69h3.5v2.4h-3.5V76h4.4v2.3h-6.9V62.3z"/>
		<path class="st0" d="M141.6,74.7H139l-0.5,3.5H136l2.7-16h3.2l2.7,16h-2.5L141.6,74.7z M141.3,72.4l-1-6.7l-1,6.7H141.3z"/>
		<path class="st0" d="M148.2,78c-0.6-0.3-1.1-0.8-1.4-1.4c-0.3-0.6-0.5-1.3-0.5-2V74l2.3-0.2v0.6c0,0.5,0.1,1,0.4,1.4
			c0.3,0.3,0.7,0.5,1.1,0.5c0.4,0,0.8-0.1,1.1-0.4c0.3-0.3,0.4-0.7,0.4-1.1c0-0.5-0.2-1.1-0.5-1.5c-0.5-0.7-1.1-1.4-1.8-2
			c-0.9-0.8-1.7-1.8-2.4-2.8c-0.4-0.7-0.7-1.6-0.7-2.4c-0.1-1,0.3-2.1,1-2.9c1.5-1.4,3.9-1.4,5.4,0c0.7,0.8,1,1.8,1,2.9v0.4
			l-2.3,0.3v-0.5c0-0.5-0.1-1-0.3-1.4c-0.2-0.3-0.6-0.5-1-0.5c-0.4,0-0.7,0.1-1,0.4c-0.3,0.3-0.4,0.7-0.3,1.1c0,0.5,0.2,1,0.5,1.4
			c0.5,0.7,1.1,1.4,1.8,2c0.9,0.9,1.7,1.8,2.4,2.9c0.4,0.7,0.7,1.5,0.6,2.4c0,0.7-0.2,1.4-0.5,2c-0.3,0.6-0.8,1.1-1.4,1.4
			C151,78.6,149.4,78.6,148.2,78L148.2,78z"/>
		<path class="st0" d="M155.8,62.3h7.7v2.3h-2.7v13.7h-2.4V64.6h-2.6V62.3z"/>
		<path class="st0" d="M63.3,89.7h3.8c1,0,2,0.3,2.7,1c0.7,0.7,1.1,1.7,1,2.8v8.4c0,1-0.3,2-1,2.8c-0.7,0.7-1.7,1.1-2.7,1h-3.8V89.7
			z M66.9,103.4c0.7,0.1,1.4-0.5,1.5-1.2c0-0.1,0-0.2,0-0.3v-8.4c0.1-0.7-0.4-1.4-1.2-1.5c-0.1,0-0.2,0-0.3,0h-1.2v11.4H66.9z"/>
		<path class="st0" d="M73.7,89.7h2.4v16h-2.4V89.7z"/>
		<path class="st0" d="M84.4,94.7v-1.3c0-0.4-0.1-0.8-0.4-1.2c-0.3-0.3-0.7-0.4-1.1-0.4c-0.4,0-0.8,0.1-1.1,0.4
			c-0.3,0.3-0.4,0.7-0.4,1.2v8.7c0,0.4,0.1,0.8,0.4,1.2c0.3,0.3,0.7,0.4,1.1,0.4c0.4,0,0.8-0.1,1.1-0.4c0.3-0.3,0.4-0.7,0.4-1.2
			v-2.8h-1.5v-2.3h3.9v5.1c0,1-0.3,2.1-1.1,2.8c-1.6,1.4-4,1.4-5.6,0c-0.7-0.7-1.1-1.8-1.1-2.8v-8.7c-0.1-2,1.4-3.7,3.4-3.9
			c0.2,0,0.3,0,0.5,0c1,0,2.1,0.3,2.8,1.1c0.7,0.7,1.1,1.8,1.1,2.8v1.3L84.4,94.7z"/>
		<path class="st0" d="M89.6,89.7H92v16h-2.4V89.7z"/>
		<path class="st0" d="M94.3,89.7h7.7V92h-2.7v13.7H97V92h-2.6L94.3,89.7z"/>
		<path class="st0" d="M108.2,102.1h-2.6l-0.5,3.5h-2.4l2.7-16h3.2l2.7,16h-2.5L108.2,102.1z M107.9,99.8l-1-6.7l-1,6.7H107.9z"/>
		<path class="st0" d="M113.5,89.7h2.4v13.7h4.3v2.3h-6.7V89.7z"/>
		<path class="st0" d="M133,105.7l-1.8-6.6H130v6.6h-2.4v-16h3.8c1,0,2,0.3,2.7,1c0.7,0.7,1.1,1.7,1,2.8v1.8c0,0.7-0.1,1.3-0.4,1.9
			c-0.3,0.6-0.7,1-1.2,1.3l2.1,7.1H133z M130,96.8h1.3c0.7,0.1,1.4-0.5,1.5-1.2c0-0.1,0-0.2,0-0.3v-1.8c0.1-0.7-0.4-1.4-1.2-1.5
			c-0.1,0-0.2,0-0.3,0H130V96.8z"/>
		<path class="st0" d="M138,89.7h6.9V92h-4.4v4.4h3.5v2.3h-3.5v4.7h4.4v2.3H138V89.7z"/>
		<path class="st0" d="M147.3,89.7h6.8V92h-4.3v4.7h3.4v2.3h-3.4v6.7h-2.4V89.7z"/>
		<path class="st0" d="M156.4,89.7h2.4v16h-2.4V89.7z"/>
		<path class="st0" d="M161.9,89.7h2.7l3.1,10.7V89.7h2.4v16h-2.5l-3.2-10.2v10.2h-2.4L161.9,89.7z"/>
		<path class="st0" d="M173.2,89.7h6.9V92h-4.4v4.4h3.5v2.3h-3.5v4.7h4.4v2.3h-6.9L173.2,89.7z"/>
		<path class="st0" d="M187.9,105.7l-1.8-6.6h-1.3v6.6h-2.4v-16h3.8c1,0,2,0.3,2.7,1c0.7,0.7,1.1,1.7,1,2.8v1.8
			c0,0.7-0.1,1.3-0.4,1.9c-0.3,0.6-0.7,1-1.2,1.3l2,7.1H187.9z M184.9,96.8h1.3c0.7,0.1,1.4-0.5,1.5-1.2c0-0.1,0-0.2,0-0.3v-1.8
			c0.1-0.7-0.4-1.4-1.2-1.5c-0.1,0-0.2,0-0.3,0h-1.3V96.8z"/>
		<path class="st0" d="M200.5,89.7l-3.2,9.3v6.7h-2.4V99l-3.2-9.3h2.6l1.9,6.1l1.9-6.1H200.5z"/>
		<path class="st0" d="M203.6,105.4c-0.6-0.3-1.1-0.8-1.4-1.4c-0.3-0.6-0.5-1.3-0.5-2v-0.6l2.3-0.2v0.6c0,0.5,0.1,1,0.5,1.4
			c0.3,0.3,0.7,0.5,1.1,0.5c0.4,0,0.8-0.1,1.1-0.4c0.3-0.3,0.4-0.7,0.4-1.1c0-0.5-0.2-1-0.4-1.5c-0.5-0.7-1.1-1.4-1.8-2
			c-0.9-0.8-1.7-1.8-2.4-2.8c-0.4-0.7-0.7-1.6-0.6-2.4c-0.1-1,0.3-2.1,1-2.9c1.5-1.4,3.9-1.4,5.4,0c0.7,0.8,1,1.8,1,2.9v0.4
			l-2.3,0.3v-0.5c0-0.5-0.1-1-0.3-1.4c-0.2-0.3-0.6-0.5-1-0.5c-0.4,0-0.7,0.1-1,0.4c-0.2,0.3-0.4,0.7-0.3,1.1c0,0.5,0.2,1,0.5,1.4
			c0.5,0.7,1.1,1.4,1.8,2c0.9,0.9,1.7,1.8,2.4,2.9c0.4,0.7,0.7,1.5,0.7,2.4c0,0.7-0.2,1.4-0.5,2c-0.3,0.6-0.8,1.1-1.4,1.4
			C206.4,106.1,204.9,106.1,203.6,105.4L203.6,105.4z"/>
	</g>
</g>
</svg>
