<?xml version="1.0" encoding="utf-8"?>
<!-- Generator: Adobe Illustrator 24.0.1, SVG Export Plug-In . SVG Version: 6.00 Build 0)  -->
<svg version="1.1" id="Layer_1" xmlns="http://www.w3.org/2000/svg" xmlns:xlink="http://www.w3.org/1999/xlink" x="0px" y="0px"
	 width="210.7px" height="135.9px" viewBox="0 0 210.7 135.9" style="enable-background:new 0 0 210.7 135.9;" xml:space="preserve"
	>
<style type="text/css">
	.st0{fill:#FFFFFF;}
	.st1{fill:none;}
	.st2{fill:none;stroke:#FFFFFF;stroke-miterlimit:10;}
	.st3{fill:#D3D3D3;}
	.st4{fill:#E8E8E8;}
	.st5{clip-path:url(#SVGID_18_);}
	.st6{clip-path:url(#SVGID_20_);}
	.st7{clip-path:url(#SVGID_24_);fill:#FFFFFF;}
	.st8{clip-path:url(#SVGID_26_);fill:#FFFFFF;}
	.st9{clip-path:url(#SVGID_28_);fill:#FFFFFF;}
	.st10{clip-path:url(#SVGID_30_);fill:#FFFFFF;}
	.st11{clip-path:url(#SVGID_32_);fill:#FFFFFF;}
	.st12{fill:#D9D9D9;}
	.st13{fill:#999999;}
	.st14{fill:#B3B3B3;}
	.st15{fill:#E3E3E3;}
	.st16{fill:#CCCCCC;}
	.st17{fill:#B7B7B7;}
</style>
<g>
	<polygon class="st0" points="61.9,52.4 61.9,60.7 59,60.7 59,46 62,46 67.8,57.4 73.6,46 76.6,46 76.6,60.7 73.6,60.7 73.6,52.4 
		69.4,60.7 69.4,60.7 66.1,60.7 	"/>
	<path class="st0" d="M79.5,46h14.7V49H79.5V46z M79.5,51.9h14.7v2.9H79.5V51.9z M79.5,57.8h14.7v2.9H79.5V57.8z"/>
	<path class="st0" d="M99.9,46h14.7V49H99.9V46z M99.9,51.9h14.7l0,2.9H99.9V51.9z"/>
	<path class="st0" d="M131.4,46h2.9v9.8c0,3.3-1.6,4.9-4.9,4.9h-6.7c-3.3,0-4.9-1.6-4.9-4.9V46h2.9v9.4c0,1.6,0.8,2.4,2.3,2.4h5.9
		c1.6,0,2.4-0.8,2.4-2.4V46z"/>
	<polygon class="st0" points="143.1,49 137.3,49 137.3,46 151.9,46 151.9,49 146.1,49 146.1,60.7 143.1,60.7 	"/>
	<path class="st0" d="M178.4,54.8h-4.4v-2.9h9.3c1.6,0,2.4-0.5,2.4-1.5c0-1-0.8-1.5-2.4-1.5h-9.3V46h9.8c3.3,0,4.9,1.5,4.9,4.4
		c0,2.9-1.6,4.4-4.9,4.4h-0.9l6.9,5.9h-4.5L178.4,54.8z"/>
	<path class="st0" d="M191.9,46h14.7V49h-14.7V46z M191.9,51.9h14.7v2.9h-14.7V51.9z M191.9,57.8h14.7v2.9h-14.7V57.8z"/>
	<polygon class="st0" points="73,80.3 67.7,68.9 62.5,80.3 59,80.3 66,65.1 69.5,65.1 76.5,80.3 	"/>
	<rect x="79.4" y="65.1" class="st0" width="3.4" height="15.2"/>
	<path class="st0" d="M91.5,74.2h-3.6v-3h9.3c1.9,0,2.8-0.5,2.8-1.5c0-1-0.9-1.5-2.8-1.5h-9.3v-3h9.9c3.8,0,5.6,1.5,5.6,4.6
		c0,3-1.9,4.6-5.6,4.6h-1l6.7,6.1h-5.2L91.5,74.2z"/>
	<path class="st0" d="M120,65.1H111v0h-3.4v15.2h3.4v-6.1h9.1c3.8,0,5.6-1.5,5.6-4.6C125.7,66.6,123.8,65.1,120,65.1 M119.5,71.2
		H111v-3h8.5c1.9,0,2.8,0.5,2.8,1.5C122.3,70.7,121.4,71.2,119.5,71.2"/>
	<path class="st0" d="M143.5,80.5l-8.7,0v0c-3.8,0-5.6-1.7-5.6-5.1v-5.1c0-3.4,1.9-5.1,5.6-5.1h8.7c3.8,0,5.6,1.7,5.6,5.1v5.1
		C149.1,78.8,147.2,80.5,143.5,80.5 M142.9,77.5c1.9,0,2.8-0.8,2.8-2.5v-4c0-1.7-0.9-2.5-2.8-2.5h-8.2c-1.5,0-2.3,0.8-2.3,2.5v4
		c0,1.7,0.9,2.5,2.8,2.5H142.9z"/>
	<polygon class="st0" points="177.3,68.1 170.6,68.1 170.6,65.1 187.4,65.1 187.4,68.1 180.7,68.1 180.7,80.3 177.3,80.3 	"/>
	<path class="st0" d="M196,74.2c-3.8,0-5.6-1.5-5.6-4.6c0-3,1.9-4.6,5.6-4.6h10.3v3h-9.8c-1.9,0-2.8,0.5-2.8,1.5
		c0,1,0.9,1.5,2.8,1.5h5.1c3.8,0,5.6,1.5,5.6,4.6c0,3-1.9,4.6-5.6,4.6H191v-3h10.1c1.9,0,2.8-0.5,2.8-1.5c0-1-0.9-1.5-2.8-1.5H196z"
		/>
	<path class="st0" d="M155.7,74.2h-3.6v-3h9.3c1.9,0,2.8-0.5,2.8-1.5c0-1-0.9-1.5-2.8-1.5h-9.3v-3h9.9c3.8,0,5.6,1.5,5.6,4.6
		c0,3-1.9,4.6-5.6,4.6h-1l6.7,6.1h-5.2L155.7,74.2z"/>
	<path class="st0" d="M168.3,46h2.9v9.8c0,3.3-1.6,4.9-4.9,4.9h-6.7c-3.3,0-4.9-1.6-4.9-4.9V46h2.9v9.4c0,1.6,0.8,2.4,2.3,2.4h5.9
		c1.6,0,2.4-0.8,2.4-2.4V46z"/>
	<polyline class="st12" points="3.4,89.9 3.4,89.9 3.4,89.9 3.4,89.9 	"/>
	<path class="st12" d="M28.4,57.4c-0.6,0-1.6,0.1-2.8,0.7c-1.1,0.5-1.8,1.1-2.5,1.8c-0.7,0.6-1.6,1.6-2.5,3L4.9,87.5
		c-0.4,0.8-0.9,1.6-1.5,2.3l0,0l23.8-21.1l13.5,0l1.1-8.1l0.4-3.3H28.4z"/>
	<polygon class="st13" points="27.2,68.7 3.4,89.9 3.4,89.9 3.4,89.9 27.7,72 33.4,72 33.8,68.7 	"/>
	<polygon class="st14" points="27.7,72 3.4,89.9 3.4,89.9 25.4,80.1 32.3,80.1 33.3,72 	"/>
	<path class="st0" d="M50.6,46.1H29.9c-4.1-0.1-7.1,1-8.8,1.8c-2.1,1-3.2,1.9-3.6,2.2c0,0-1.1,1-1.9,2.3c-3.3,5-12.2,37.5-12.2,37.5
		l17.2-27c0.9-1.4,1.8-2.4,2.5-3c0.7-0.6,1.4-1.3,2.5-1.8c1.1-0.5,2.2-0.6,2.8-0.7h20.8L50.6,46.1z"/>
	<polyline class="st14" points="3.4,89.9 3.4,89.9 3.4,89.9 3.4,89.9 	"/>
	<path class="st14" d="M28.4,57.4c-0.6,0-1.6,0.1-2.8,0.7c-1.1,0.5-1.8,1.1-2.5,1.8c-0.7,0.6-1.6,1.6-2.5,3l-17.2,27
		c0.3-0.4,10.8-14.1,16-21.1c0,0,0.7-1,2.6-3.1c2.5-2.9,3.5-3.6,4.5-4.1c1.3-0.6,2.4-0.8,3.1-0.8h12.1l0.4-3.3v0H28.4z"/>
</g>
</svg>
