<?xml version="1.0" encoding="UTF-8"?><svg id="a" xmlns="http://www.w3.org/2000/svg" xmlns:xlink="http://www.w3.org/1999/xlink" viewBox="0 0 210.7 135.9"><defs><style>.c{fill:#fff;}.d{clip-path:url(#b);}</style><clipPath id="b"><path class="c" d="M17.52,45.42c.15,.54,.22,1.09,.22,1.63,0,1.04-.28,2.08-.84,3.02-1.13,1.93-3.16,3.15-5.31,3.19-1.03,.02-2.03-.23-2.95-.73-1.72,2.08-3.11,4.36-4.15,6.81,1.83,1.24,2.6,3.21,2.6,5.05,0,.41-.04,.8-.11,1.19-.4,2.17-2,4.38-4.73,4.92,0,2.52,.44,5.29,1.21,7.87,.17-.02,.34-.03,.5-.03h.12c2.53,0,4.76,1.6,5.69,4.1,.28,.75,.41,1.51,.41,2.25,0,1.32-.44,2.59-1.27,3.65,1.73,2.04,3.75,3.81,6.01,5.28,1.11-1.12,2.56-1.76,4.15-1.79,1.91-.04,3.77,.8,5,2.24,.88,1.04,1.36,2.31,1.4,3.66,.18,.03,.37,.06,.55,.09h.01l.13,.02c1.04,.15,2.1,.23,3.15,.26h.09c.17,0,.35,.01,.52,.01h.75c.93-.02,1.87-.08,2.79-.2,.11-1.27,.59-2.44,1.4-3.4,1.16-1.35,2.93-2.18,4.74-2.21h.07s.06,0,.06,0c1.76,0,3.33,.71,4.47,1.99,2.31-1.36,4.41-3.03,6.25-4.99-.72-1.03-1.1-2.22-1.1-3.44,0-.73,.13-1.47,.41-2.2,.9-2.41,3.17-4.06,5.62-4.11h.12c.28,0,.57,.02,.86,.07,.91-2.55,1.47-5.3,1.59-7.82-2.66-.67-4.16-2.91-4.48-5.08-.05-.32-.07-.65-.07-.98,0-1.92,.86-3.97,2.84-5.18-.93-2.51-2.21-4.85-3.82-7.01-.78,.38-1.61,.58-2.46,.6h-.11c-2.18,0-4.31-1.25-5.45-3.21-.56-.96-.83-2-.83-3.04,0-.62,.11-1.25,.32-1.86-1.87-1.07-3.86-1.9-5.95-2.51,.88,2.23,2.55,4.64,4.41,7.32,3.77,5.44,8.47,12.21,8.64,21.11v.46c0,12.88-10.52,18.96-20.41,19.15h-.51c-5.23,0-10.15-1.58-13.87-4.49-4.4-3.43-6.78-8.38-6.9-14.31,0-.19,0-.37,0-.55,0-9.21,4.64-15.52,9.13-21.63,.56-.76,1.18-1.55,1.78-2.31,1.33-1.69,2.69-3.42,3.6-5.14-2.19,.51-4.3,1.27-6.3,2.3"/></clipPath></defs><g><polygon class="c" points="95.38 63.19 102.16 52.14 102.16 84 95.38 63.19"/><polygon class="c" points="95.38 83.99 102.16 83.99 95.38 63.19 95.38 83.99"/><polygon class="c" points="94.8 52.13 95.38 63.19 102.17 52.13 94.8 52.13"/><polygon class="c" points="86.63 65.61 86.45 76.8 86.63 76.8 95.38 63.19 86.63 65.61"/><polygon class="c" points="94.8 52.13 95.38 63.19 86.63 65.61 94.8 52.13"/><polygon class="c" points="78.47 52.13 77.8 63.33 86.46 76.8 78.47 52.13"/><polygon class="c" points="86.63 65.61 78.47 52.13 86.45 76.8 86.63 65.61"/><polygon class="c" points="71.1 52.13 77.8 63.33 78.47 52.13 71.1 52.13"/><polygon class="c" points="77.8 83.99 71.1 83.99 77.8 63.33 77.8 83.99"/><polygon class="c" points="71.1 52.13 71.1 83.99 77.8 63.33 71.1 52.13"/><polygon class="c" points="107.18 52.13 113.97 64.83 113.97 58.37 113.97 52.13 107.18 52.13"/><polygon class="c" points="107.18 84 113.97 64.83 113.97 71.07 113.97 77.76 113.97 84 107.18 84"/><polygon class="c" points="107.18 52.13 107.18 84 113.97 64.83 107.18 52.13"/><polygon class="c" points="130.62 52.13 113.97 58.37 113.97 52.13 130.62 52.13"/><polygon class="c" points="130.62 58.37 113.97 58.37 130.62 52.13 130.62 58.37"/><polygon class="c" points="128.62 64.83 121.11 71.07 113.98 64.83 128.62 64.83"/><polygon class="c" points="128.62 71.07 128.62 64.83 121.11 71.07 128.62 71.07"/><polygon class="c" points="113.98 71.07 113.98 64.83 121.11 71.07 113.98 71.07"/><polygon class="c" points="113.98 77.76 130.84 83.99 113.98 83.99 113.98 77.76"/><polygon class="c" points="130.84 77.76 130.84 83.99 113.98 77.76 130.84 77.76"/><polygon class="c" points="142.56 52.67 135.86 70.61 135.86 52.67 142.56 52.67"/><polygon class="c" points="142.56 83.92 142.56 52.67 135.86 70.61 142.56 83.92"/><polygon class="c" points="135.86 83.92 142.56 83.92 135.86 70.61 135.86 83.92"/><path class="c" d="M163.43,58.13c.51,0,1,.04,1.47,.11l10.59-1.63c-2.18-2.2-4.72-3.86-8.38-4.51l-5.41,6.21c.55-.11,1.13-.17,1.72-.17"/><path class="c" d="M171.22,61.66l4.27-5.04-10.59,1.63c2.37,.36,4.36,1.59,6.32,3.42"/><path class="c" d="M156.77,74.54l-5.74,3.76c2.6,3.29,6.48,5.46,11.04,5.77l-4.15-8.33c-.42-.36-.8-.76-1.15-1.2"/><path class="c" d="M153.76,54.98l1.69,8.6c1.03-2.41,2.94-4.27,5.37-5.05l-6.56-3.92-.5,.36"/><path class="c" d="M163.47,51.79c-3.55,0-6.69,1.05-9.22,2.83l6.57,3.92c.29-.09,.58-.17,.88-.23l5.41-6.21c-1.1-.2-2.31-.31-3.64-.31"/><path class="c" d="M163.21,84.11c3.42,0,6.03-.73,8.23-2.01v-7.99l-8.59,9.99h.36"/><path class="c" d="M175.7,78.53l-4.27-4.42v7.99c1.58-.92,2.95-2.13,4.27-3.57"/><path class="c" d="M157.93,75.74l4.15,8.32c.26,.02,.51,.03,.78,.04l8.59-9.99c-2.4,2.23-4.53,3.66-8.01,3.66-2.15,0-4.04-.76-5.5-2.03"/><path class="c" d="M155.45,63.58l-1.69-8.6-.31,.26-2.7,15.93,3.89-4.3c.1-1.17,.38-2.27,.82-3.28"/><path class="c" d="M156.77,74.54c-.18-.23-.36-.47-.52-.72l-5.52-2.65-1.46,4.34c.49,1,1.08,1.94,1.75,2.8l5.74-3.76Z"/><path class="c" d="M154.59,67.86c0-.34,.01-.67,.04-1l-3.89,4.3,5.52,2.65c-1.07-1.65-1.67-3.68-1.67-5.87v-.09Z"/><path class="c" d="M147.59,68.52c.07,2.52,.66,4.89,1.69,6.98l1.46-4.34-3.15-2.65Z"/><path class="c" d="M147.58,67.95v.57s3.16,2.65,3.16,2.65l2.7-15.93c-3.66,2.97-5.86,7.57-5.86,12.72"/><polygon class="c" points="190.69 52.55 193.7 60.81 196.87 52.55 190.69 52.55"/><polygon class="c" points="209.93 84.03 196.87 52.55 193.69 60.81 209.93 84.03"/><polygon class="c" points="200.14 77.02 209.93 84.03 202.92 84.03 200.14 77.02"/><polygon class="c" points="193.69 60.81 197.74 70.95 200.14 77.02 209.93 84.03 193.69 60.81"/><polygon class="c" points="190.69 52.55 193.7 60.81 177.63 84.03 190.69 52.55"/><polygon class="c" points="184.47 84.03 187.25 77.02 189.98 70.11 193.69 60.81 177.63 84.03 184.47 84.03"/><polygon class="c" points="197.74 70.95 200.14 77.02 187.25 77.02 197.74 70.95"/><polygon class="c" points="189.65 70.95 187.25 77.02 197.74 70.95 189.65 70.95"/></g><g><path class="c" d="M29.83,99.51v-.09c-1.54-.02-3.08-.15-4.57-.4l-1.05-.18-.03-1.07c-.04-1.06-.42-2.05-1.1-2.85-.95-1.11-2.4-1.78-3.88-1.78h-.1s0,0,0,0h0c-1.22,.02-2.37,.52-3.24,1.4l-.74,.75-.89-.58c-2.36-1.53-4.47-3.39-6.29-5.53l-.69-.82,.66-.84c.65-.83,.99-1.83,.99-2.85,0-.58-.11-1.18-.33-1.77-.73-1.97-2.49-3.24-4.47-3.24h-.1l-.38,.03-1.07,.11-.31-1.03c-.81-2.69-1.27-5.62-1.27-8.26v-1.08s1.05-.21,1.05-.21c2.29-.46,3.43-2.37,3.71-3.88,.05-.28,.08-.6,.08-.92,0-1.35-.51-2.97-2.02-3.99l-.89-.61,.43-1c1.09-2.56,2.56-4.97,4.35-7.14l.69-.83,.94,.51c.69,.38,1.44,.57,2.2,.57h.09s0,0,0,0c1.7-.04,3.32-1.01,4.21-2.54,.43-.74,.65-1.56,.65-2.38,0-.42-.06-.84-.17-1.25l-.29-1.04,.96-.49c2.09-1.07,4.32-1.88,6.6-2.41l2.79-.64-1.35,2.54c-.96,1.81-2.36,3.6-3.72,5.32-.6,.76-1.2,1.53-1.75,2.28-4.35,5.93-8.88,12.08-8.88,20.88,0,.16,0,.33,0,.5,.11,5.51,2.31,10.12,6.39,13.29,3.49,2.72,8.14,4.22,13.08,4.22h.49s0,0,0,0c9.25-.18,19.12-5.85,19.12-17.85v-.42c-.17-8.5-4.74-15.09-8.41-20.38-1.86-2.68-3.62-5.21-4.56-7.59l-.98-2.49,2.56,.74c2.18,.63,4.27,1.52,6.23,2.63l.94,.53-.34,1.03c-.16,.48-.24,.98-.24,1.47,0,.81,.22,1.61,.65,2.35,.9,1.56,2.6,2.56,4.32,2.56h.09c.65-.01,1.3-.17,1.91-.47l.96-.47,.65,.86c1.69,2.25,3.03,4.72,4,7.34l.38,1.02-.92,.56c-1.65,1.01-2.21,2.71-2.21,4.11,0,.26,.02,.51,.05,.74,.22,1.49,1.27,3.44,3.51,4l1.04,.26-.05,1.08c-.13,2.64-.72,5.55-1.67,8.2l-.36,1.01-1.05-.16c-.22-.03-.45-.05-.68-.05h-.1s0,0,0,0h0c-1.92,.04-3.69,1.35-4.42,3.26-.21,.57-.32,1.15-.32,1.72,0,.95,.29,1.88,.86,2.69l.62,.87-.73,.78c-1.93,2.06-4.13,3.81-6.54,5.23l-.92,.54-.71-.79c-.89-1-2.14-1.56-3.5-1.56h-.11c-1.44,.03-2.84,.68-3.77,1.75-.63,.74-1.01,1.66-1.09,2.65l-.09,1.07-1.06,.13c-.73,.09-1.48,.15-2.23,.18h-.09v.02h-1.17v0h-.32s0,0,0,0v.09s0,.09,0,.09h.32s1.26,0,1.26,0h.09v-.11h-.09v.09c.76-.03,1.51-.09,2.25-.18l1.13-.13h.07s.1-1.23,.1-1.23c.08-.95,.44-1.83,1.05-2.55,.88-1.03,2.25-1.66,3.63-1.69h.11s0-.09,0-.09v.09c1.31,0,2.5,.53,3.36,1.5l.76,.85,.05,.05,1.05-.61c2.43-1.42,4.65-3.2,6.59-5.26l.78-.84,.05-.06-.7-1c-.55-.78-.82-1.67-.83-2.59,0-.55,.1-1.11,.31-1.66,.69-1.84,2.41-3.11,4.25-3.14v-.09s0,.09,0,.09h.1c.22,0,.44,.01,.65,.05l1.13,.17h.08s.41-1.14,.41-1.14c.95-2.67,1.55-5.6,1.68-8.26l.05-1.15v-.08s-1.18-.3-1.18-.3c-2.14-.53-3.15-2.41-3.37-3.85-.03-.22-.05-.47-.05-.71,0-1.35,.54-2.99,2.12-3.96l.98-.6,.07-.04-.43-1.15c-.98-2.63-2.33-5.12-4.03-7.39l-.69-.92-.04-.06-1.1,.53c-.59,.29-1.21,.44-1.83,.45h-.09c-1.66,0-3.3-.97-4.16-2.47-.41-.71-.62-1.48-.62-2.26,0-.47,.08-.94,.23-1.41l.37-1.1,.02-.07-1.07-.61c-1.97-1.12-4.08-2.01-6.27-2.65l-2.91-.85,1.12,2.84c.95,2.41,2.72,4.94,4.58,7.63,3.67,5.29,8.21,11.84,8.37,20.28v.42c0,11.88-9.75,17.48-18.94,17.67v.09s0-.09,0-.09h-.49c-4.91,0-9.51-1.48-12.97-4.18-4.03-3.15-6.21-7.69-6.32-13.15,0-.17,0-.33,0-.49,0-8.74,4.48-14.84,8.84-20.78,.55-.75,1.15-1.51,1.75-2.28,1.36-1.73,2.77-3.51,3.74-5.35l1.53-2.89-3.17,.73c-2.3,.53-4.54,1.34-6.64,2.42l-1.02,.52-.07,.03,.33,1.18c.11,.4,.17,.8,.17,1.21,0,.79-.21,1.57-.63,2.29-.86,1.48-2.42,2.41-4.06,2.45v.09s0-.09,0-.09h-.09c-.74,0-1.45-.18-2.12-.55l-1-.55-.07-.04-.78,.94c-1.81,2.18-3.28,4.6-4.38,7.18l-.46,1.07-.03,.07,1.02,.69c1.45,.98,1.94,2.53,1.94,3.84,0,.31-.03,.61-.08,.89-.27,1.45-1.37,3.29-3.56,3.73l-1.13,.22h-.07s0,1.24,0,1.24c0,2.66,.46,5.61,1.28,8.31l.34,1.1,.02,.07,1.22-.12,.38-.03h.09c1.9,0,3.59,1.22,4.3,3.13,.21,.57,.32,1.15,.32,1.71,0,.99-.32,1.94-.95,2.74l-.71,.9-.05,.06,.79,.93c1.83,2.15,3.96,4.02,6.33,5.56l.95,.62,.06,.04,.85-.86c.83-.84,1.95-1.32,3.12-1.35v-.09s0,.09,0,.09h.1c1.43,0,2.83,.64,3.74,1.71,.65,.77,1.02,1.72,1.05,2.74l.04,1.15v.08s1.2,.2,1.2,.2c1.5,.25,3.04,.39,4.6,.4v-.09"/><g><path class="c" d="M17.52,45.42c.15,.54,.22,1.09,.22,1.63,0,1.04-.28,2.08-.84,3.02-1.13,1.93-3.16,3.15-5.31,3.19-1.03,.02-2.03-.23-2.95-.73-1.72,2.08-3.11,4.36-4.15,6.81,1.83,1.24,2.6,3.21,2.6,5.05,0,.41-.04,.8-.11,1.19-.4,2.17-2,4.38-4.73,4.92,0,2.52,.44,5.29,1.21,7.87,.17-.02,.34-.03,.5-.03h.12c2.53,0,4.76,1.6,5.69,4.1,.28,.75,.41,1.51,.41,2.25,0,1.32-.44,2.59-1.27,3.65,1.73,2.04,3.75,3.81,6.01,5.28,1.11-1.12,2.56-1.76,4.15-1.79,1.91-.04,3.77,.8,5,2.24,.88,1.04,1.36,2.31,1.4,3.66,.18,.03,.37,.06,.55,.09h.01l.13,.02c1.04,.15,2.1,.23,3.15,.26h.09c.17,0,.35,.01,.52,.01h.75c.93-.02,1.87-.08,2.79-.2,.11-1.27,.59-2.44,1.4-3.4,1.16-1.35,2.93-2.18,4.74-2.21h.07s.06,0,.06,0c1.76,0,3.33,.71,4.47,1.99,2.31-1.36,4.41-3.03,6.25-4.99-.72-1.03-1.1-2.22-1.1-3.44,0-.73,.13-1.47,.41-2.2,.9-2.41,3.17-4.06,5.62-4.11h.12c.28,0,.57,.02,.86,.07,.91-2.55,1.47-5.3,1.59-7.82-2.66-.67-4.16-2.91-4.48-5.08-.05-.32-.07-.65-.07-.98,0-1.92,.86-3.97,2.84-5.18-.93-2.51-2.21-4.85-3.82-7.01-.78,.38-1.61,.58-2.46,.6h-.11c-2.18,0-4.31-1.25-5.45-3.21-.56-.96-.83-2-.83-3.04,0-.62,.11-1.25,.32-1.86-1.87-1.07-3.86-1.9-5.95-2.51,.88,2.23,2.55,4.64,4.41,7.32,3.77,5.44,8.47,12.21,8.64,21.11v.46c0,12.88-10.52,18.96-20.41,19.15h-.51c-5.23,0-10.15-1.58-13.87-4.49-4.4-3.43-6.78-8.38-6.9-14.31,0-.19,0-.37,0-.55,0-9.21,4.64-15.52,9.13-21.63,.56-.76,1.18-1.55,1.78-2.31,1.33-1.69,2.69-3.42,3.6-5.14-2.19,.51-4.3,1.27-6.3,2.3"/><g class="d"><rect class="c" x=".56" y="42.02" width="58.99" height="57.23"/></g></g><path class="c" d="M41.72,58.38l-1.26-1.41c-2.92-3.31-5.09-6.38-6.51-9.23-1.42-2.84-2.7-6.65-3.82-11.44-1.1,4.79-2.36,8.6-3.78,11.44-1.43,2.84-3.6,5.92-6.51,9.23l-1.26,1.41c-3.8,4.27-5.7,8.55-5.7,12.82,0,4.72,1.7,8.77,5.09,12.15,3.4,3.38,7.45,5.07,12.17,5.07s8.81-1.69,12.2-5.07c3.34-3.32,5.04-7.29,5.09-11.91v-.45c-.06-4.2-1.97-8.41-5.71-12.61Zm-13.11,11.82c-5.92,2.29-10.47,1.74-13.44,.71v-.04c.25-3.41,1.95-6.91,5.09-10.43l1.26-1.41c3.04-3.45,5.34-6.72,6.84-9.72,.63-1.25,1.23-2.68,1.79-4.29,.57,1.61,1.17,3.03,1.79,4.29,1.51,3,3.81,6.27,6.84,9.71l1.27,1.42c.83,.93,1.55,1.85,2.18,2.78-5.03,2.1-6.63,4.26-13.62,6.98Z"/></g></svg>