<svg width="24" height="24" viewBox="0 0 24 24" fill="none" xmlns="http://www.w3.org/2000/svg">
<path fill-rule="evenodd" clip-rule="evenodd" d="M5 2H7C7.55228 2 8 2.44772 8 3C8 3.51284 7.61396 3.93551 7.11662 3.99327L7 4H5C4.48716 4 4.06449 4.38604 4.00673 4.88338L4 5V19C4 19.5128 4.38604 19.9355 4.88338 19.9933L5 20H19C19.5128 20 19.9355 19.614 19.9933 19.1166L20 19V17C20 16.4477 20.4477 16 21 16C21.5128 16 21.9355 16.386 21.9933 16.8834L22 17V19C22 20.5977 20.7511 21.9037 19.1763 21.9949L19 22H5C3.40232 22 2.09634 20.7511 2.00509 19.1763L2 19V5C2 3.40232 3.24892 2.09634 4.82373 2.00509L5 2H7H5ZM21.0002 2L21.0812 2.003L21.2009 2.02024L21.3123 2.04974L21.4234 2.09367L21.5209 2.146L21.6169 2.21279L21.7073 2.29289L21.8038 2.40469L21.8755 2.51594L21.9065 2.5769L21.9403 2.65835L21.9643 2.73401L21.9933 2.8819L22.0002 3V9C22.0002 9.55228 21.5524 10 21.0002 10C20.4479 10 20.0002 9.55228 20.0002 9V5.414L13.7073 11.7071C13.3468 12.0676 12.7796 12.0953 12.3873 11.7903L12.2931 11.7071C11.9326 11.3466 11.9048 10.7794 12.2099 10.3871L12.2931 10.2929L18.5842 4H15.0002C14.4479 4 14.0002 3.55228 14.0002 3C14.0002 2.44772 14.4479 2 15.0002 2H21.0002Z" fill="#020C1E"/>
</svg>
