<svg width="16" height="16" viewBox="0 0 16 16" fill="none" xmlns="http://www.w3.org/2000/svg">
<g opacity="0.65">
<path fill-rule="evenodd" clip-rule="evenodd" d="M3.33301 1.33319H4.66634C5.03453 1.33319 5.33301 1.63167 5.33301 1.99986C5.33301 2.34175 5.07565 2.62353 4.74409 2.66204L4.66634 2.66652H3.33301C2.99112 2.66652 2.70934 2.92388 2.67083 3.25544L2.66634 3.33319V12.6665C2.66634 13.0084 2.9237 13.2902 3.25526 13.3287L3.33301 13.3332H12.6663C13.0082 13.3332 13.29 13.0758 13.3285 12.7443L13.333 12.6665V11.3332C13.333 10.965 13.6315 10.6665 13.9997 10.6665C14.3416 10.6665 14.6233 10.9239 14.6619 11.2554L14.6663 11.3332V12.6665C14.6663 13.7316 13.8337 14.6023 12.7839 14.6631L12.6663 14.6665H3.33301C2.26789 14.6665 1.39723 13.8339 1.3364 12.784L1.33301 12.6665V3.33319C1.33301 2.26807 2.16562 1.39742 3.21549 1.33659L3.33301 1.33319H4.66634H3.33301ZM13.9998 1.33319L14.0538 1.33519L14.1337 1.34668L14.2079 1.36635L14.282 1.39564L14.347 1.43052L14.411 1.47505L14.4712 1.52845L14.5356 1.60299L14.5834 1.67715L14.6041 1.71779L14.6266 1.77209L14.6426 1.82253L14.6619 1.92113L14.6665 1.99986V5.99986C14.6665 6.36805 14.368 6.66652 13.9998 6.66652C13.6316 6.66652 13.3332 6.36805 13.3332 5.99986V3.60919L9.13791 7.8046C8.89759 8.04492 8.51943 8.0634 8.2579 7.86005L8.1951 7.8046C7.95478 7.56427 7.93629 7.18612 8.13964 6.92459L8.1951 6.86179L12.3892 2.66652H9.99984C9.63165 2.66652 9.33317 2.36805 9.33317 1.99986C9.33317 1.63167 9.63165 1.33319 9.99984 1.33319H13.9998Z" fill="#737F94"/>
</g>
</svg>
