<svg width="16" height="16" viewBox="0 0 16 16" fill="none" xmlns="http://www.w3.org/2000/svg">
<path fill-rule="evenodd" clip-rule="evenodd" d="M3.33325 1.33319H4.66659C5.03477 1.33319 5.33325 1.63167 5.33325 1.99986C5.33325 2.34175 5.07589 2.62353 4.74433 2.66204L4.66659 2.66652H3.33325C2.99136 2.66652 2.70958 2.92388 2.67107 3.25544L2.66659 3.33319V12.6665C2.66659 13.0084 2.92395 13.2902 3.2555 13.3287L3.33325 13.3332H12.6666C13.0085 13.3332 13.2903 13.0758 13.3288 12.7443L13.3333 12.6665V11.3332C13.3333 10.965 13.6317 10.6665 13.9999 10.6665C14.3418 10.6665 14.6236 10.9239 14.6621 11.2554L14.6666 11.3332V12.6665C14.6666 13.7316 13.834 14.6023 12.7841 14.6631L12.6666 14.6665H3.33325C2.26813 14.6665 1.39748 13.8339 1.33665 12.784L1.33325 12.6665V3.33319C1.33325 2.26807 2.16587 1.39742 3.21574 1.33659L3.33325 1.33319H4.66659H3.33325ZM14.0001 1.33319L14.0541 1.33519L14.1339 1.34668V1.34668L14.2082 1.36635V1.36635L14.2822 1.39564L14.3472 1.43052V1.43052L14.4112 1.47505L14.4715 1.52845V1.52845L14.5359 1.60299V1.60299L14.5836 1.67715L14.6043 1.71779V1.71779L14.6268 1.77209V1.77209L14.6429 1.82253V1.82253L14.6621 1.92113V1.92113L14.6667 1.99986V1.99986V5.99986C14.6667 6.36805 14.3683 6.66652 14.0001 6.66652C13.6319 6.66652 13.3334 6.36805 13.3334 5.99986V3.60919L9.13815 7.8046C8.89783 8.04492 8.51968 8.0634 8.25815 7.86005L8.19534 7.8046C7.95502 7.56427 7.93653 7.18612 8.13988 6.92459L8.19534 6.86179L12.3894 2.66652H10.0001C9.63189 2.66652 9.33341 2.36805 9.33341 1.99986C9.33341 1.63167 9.63189 1.33319 10.0001 1.33319H14.0001Z" fill="#F6F6F7"/>
</svg>
