<svg width="100" height="98" viewBox="0 0 100 98" fill="none" xmlns="http://www.w3.org/2000/svg">
<path d="M47.1133 4.48697C47.1133 3.62378 47.2846 2.84745 47.6273 2.15798C47.97 1.46308 48.4514 0.931053 49.0715 0.561889C49.6916 0.187296 50.4041 0 51.2091 0C52.4004 0 53.3659 0.382736 54.1056 1.14821C54.8508 1.91368 55.2533 2.92888 55.3132 4.19381L55.3213 4.65798C55.3213 5.5266 55.1527 6.30293 54.8155 6.98697C54.4837 7.67101 54.005 8.20033 53.3795 8.57492C52.7594 8.94951 52.0414 9.13681 51.2255 9.13681C49.9798 9.13681 48.9817 8.72421 48.2311 7.89902C47.4859 7.0684 47.1133 5.96363 47.1133 4.58469V4.48697ZM49.0959 4.65798C49.0959 5.5646 49.2836 6.27579 49.6589 6.79153C50.0342 7.30185 50.5564 7.557 51.2255 7.557C51.8945 7.557 52.414 7.29642 52.7838 6.77524C53.1592 6.25407 53.3468 5.49131 53.3468 4.48697C53.3468 3.59663 53.1537 2.89088 52.7675 2.36971C52.3868 1.84853 51.8673 1.58795 51.2091 1.58795C50.5619 1.58795 50.0478 1.84582 49.6671 2.36156C49.2863 2.87188 49.0959 3.63735 49.0959 4.65798Z" fill="#102EA1"/>
<path d="M33.0004 9.07561C33.0004 10.3023 32.0043 11.2967 30.7756 11.2967C29.5469 11.2967 28.5508 10.3023 28.5508 9.07561C28.5508 7.84892 29.5469 6.85449 30.7756 6.85449C32.0043 6.85449 33.0004 7.84892 33.0004 9.07561Z" fill="#102EA1"/>
<path d="M74.3892 10.9193C73.7968 12.147 73.0443 12.9934 72.1316 13.4586C71.2213 13.9188 70.2956 13.9228 69.3547 13.4706C68.4824 13.0513 67.9221 12.4295 67.6738 11.6052L65.8578 15.369L64.0715 14.5104L69.3745 3.51978L71.0212 4.31123L70.7053 5.15362C71.5364 4.7698 72.4029 4.79459 73.3046 5.22801C74.275 5.6944 74.8599 6.42145 75.0595 7.40917C75.2664 8.39436 75.0606 9.52771 74.4423 10.8092L74.3892 10.9193ZM72.6846 9.91015C73.0669 9.11776 73.2109 8.41268 73.1166 7.79491C73.0271 7.17948 72.6884 6.73044 72.1003 6.44778C71.3701 6.09681 70.7005 6.14559 70.0917 6.5941L68.3925 10.1158C68.4185 10.8876 68.7991 11.4501 69.5343 11.8034C70.1027 12.0767 70.656 12.0624 71.194 11.7606C71.7393 11.4563 72.2362 10.8395 72.6846 9.91015Z" fill="#102EA1"/>
<path d="M88.6503 24.7221C87.5829 25.5717 86.5369 26.0084 85.5124 26.0322C84.4921 26.0527 83.6564 25.6555 83.0053 24.8406C82.4016 24.085 82.1671 23.2822 82.3018 22.432L79.0294 25.0366L77.7932 23.4895L87.349 15.8838L88.4885 17.3099L87.8377 17.9321C88.7534 17.9462 89.5233 18.3438 90.1473 19.1247C90.8188 19.9652 91.0298 20.8735 90.7802 21.8499C90.5383 22.8271 89.8602 23.7591 88.746 24.6459L88.6503 24.7221ZM87.5532 23.0747C88.2421 22.5264 88.6784 21.9535 88.862 21.356C89.0489 20.7628 88.9389 20.2115 88.5319 19.7022C88.0266 19.0698 87.4022 18.8238 86.6587 18.9642L83.5967 21.4013C83.2847 22.1079 83.3831 22.7796 83.8918 23.4163C84.2852 23.9086 84.7899 24.1353 85.4058 24.0964C86.0294 24.0584 86.7452 23.7178 87.5532 23.0747Z" fill="#102EA1"/>
<path d="M93.7889 35.0932C94.6321 34.9011 95.4286 34.8951 96.1783 35.0751C96.9333 35.2539 97.5602 35.6039 98.0587 36.1252C98.5626 36.6452 98.9042 37.2969 99.0833 38.0802C99.3484 39.2393 99.1893 40.2639 98.6062 41.1541C98.0243 42.0495 97.1222 42.6671 95.8999 43.0068L95.4484 43.118C94.5999 43.3113 93.804 43.32 93.0608 43.144C92.3188 42.9734 91.6952 42.6254 91.1901 42.1001C90.6862 41.5801 90.3435 40.9231 90.162 40.1292C89.8848 38.9171 90.0657 37.8541 90.7047 36.9401C91.3503 36.0301 92.3465 35.4218 93.6935 35.1149L93.7889 35.0932ZM94.0631 37.0604C93.1775 37.2622 92.5245 37.603 92.1043 38.083C91.6893 38.5618 91.5563 39.1266 91.7051 39.7777C91.854 40.4287 92.2241 40.8761 92.8155 41.1201C93.4081 41.3693 94.195 41.3822 95.176 41.1587C96.0457 40.9606 96.6921 40.6156 97.1153 40.1239C97.5397 39.6374 97.6786 39.074 97.5322 38.4335C97.3881 37.8037 97.0219 37.3609 96.4333 37.1052C95.8501 36.8482 95.06 36.8333 94.0631 37.0604Z" fill="#102EA1"/>
<path d="M96.4987 62.3638C96.5992 62.1194 96.6804 61.8622 96.7421 61.5923C96.9442 60.7084 96.741 60.0356 96.1324 59.574L90.2461 58.2331L90.6872 56.3039L99.294 58.2645L98.8728 60.1064L97.8994 59.9348C98.5406 60.5709 98.7668 61.3018 98.578 62.1275C98.5151 62.4027 98.4259 62.6218 98.3105 62.7849L96.4987 62.3638Z" fill="#102EA1"/>
<path d="M90.7099 81.3454L89.0322 80.0101L88.0606 81.2261L86.9123 80.3122L87.884 79.0962L84.0311 76.0295C83.7674 75.8197 83.5353 75.7183 83.3348 75.7254C83.1352 75.7401 82.9286 75.8811 82.7149 76.1485C82.5725 76.3268 82.4496 76.5241 82.3463 76.7405L81.1471 75.786C81.3308 75.3558 81.5532 74.9773 81.8143 74.6505C82.7639 73.4621 83.8957 73.3908 85.2098 74.4367L89.1201 77.5491L90.0257 76.4158L91.1739 77.3297L90.2684 78.463L91.9461 79.7983L90.7099 81.3454Z" fill="#102EA1"/>
<path d="M67.1975 86.7059C67.4245 85.8376 68.0208 85.1714 68.9862 84.7074C69.8487 84.2928 70.6245 84.2303 71.3136 84.5197C71.9977 84.8115 72.5699 85.4343 73.0301 86.3881L75.5117 91.5312L73.7254 92.3898L71.2544 87.2687C70.7682 86.2611 70.1062 85.9587 69.2681 86.3615C68.4007 86.7784 67.9649 87.3705 67.9608 88.1377L70.7115 93.8385L68.9252 94.697L65.0948 86.7585L66.7782 85.9494L67.1975 86.7059Z" fill="#102EA1"/>
<path d="M52.7409 97.8371L52.6838 96.8192C52.0311 97.6064 51.1744 98 50.1137 98C48.2752 98 47.3396 96.9495 47.307 94.8485V89.0261H49.2897V94.7345C49.2897 95.2937 49.412 95.7063 49.6568 95.9723C49.8961 96.2438 50.2905 96.3795 50.8399 96.3795C51.6395 96.3795 52.2351 96.0185 52.6267 95.2964V89.0261H54.6094V97.8371H52.7409Z" fill="#102EA1"/>
<path d="M32.9357 84.6345L34.722 85.493L30.8916 93.4315L29.1053 92.573L32.9357 84.6345ZM30.0071 95.5462C29.8749 95.8201 29.6794 96.0063 29.4206 96.1049C29.1568 96.201 28.8632 96.1714 28.5398 96.0159C28.2163 95.8605 28.0101 95.6499 27.921 95.3841C27.8318 95.1183 27.8534 94.8485 27.9855 94.5746C28.1153 94.3055 28.3121 94.1229 28.5759 94.0268C28.8373 93.9355 29.1297 93.9676 29.4531 94.123C29.7766 94.2785 29.984 94.4867 30.0755 94.7475C30.1597 95.011 30.1369 95.2772 30.0071 95.5462Z" fill="#102EA1"/>
<path d="M10.8427 80.2249L12.5204 78.8896L11.5488 77.6735L12.697 76.7596L13.6686 77.9757L17.5215 74.909C17.7852 74.6991 17.9359 74.4959 17.9736 74.2992C18.0036 74.1017 17.9118 73.8693 17.6981 73.6019C17.5557 73.4236 17.3903 73.2601 17.2019 73.1115L18.4012 72.1569C18.7805 72.4314 19.1007 72.732 19.3619 73.0588C20.3114 74.2473 20.1292 75.3645 18.8151 76.4104L14.9048 79.5228L15.8103 80.656L14.6621 81.5699L13.7566 80.4367L12.0789 81.772L10.8427 80.2249Z" fill="#102EA1"/>
<path d="M11.9077 56.9455L12.3489 58.8747L3.74207 60.8354L3.30089 58.9062L11.9077 56.9455ZM1.53409 61.4637C1.23712 61.5313 0.969347 61.4949 0.730772 61.3543C0.490987 61.2085 0.331152 60.9609 0.251267 60.6116C0.171382 60.2622 0.207759 59.97 0.360397 59.7347C0.513035 59.4995 0.737838 59.348 1.03481 59.2804C1.32647 59.2139 1.5922 59.2536 1.83198 59.3995C2.06646 59.5465 2.22365 59.7947 2.30353 60.144C2.38342 60.4934 2.34969 60.785 2.20236 61.0191C2.04851 61.249 1.82575 61.3972 1.53409 61.4637Z" fill="#102EA1"/>
<path d="M12.4396 39.4539C12.1601 40.6765 11.5486 41.5813 10.6054 42.1683C9.65808 42.7488 8.54276 42.8929 7.25943 42.6005L7.02079 42.5461C6.16171 42.3504 5.43294 42.0118 4.8345 41.5302C4.23197 41.0422 3.81084 40.4562 3.57109 39.7723C3.33135 39.0885 3.2956 38.3787 3.46385 37.643C3.73134 36.4733 4.31157 35.6561 5.20454 35.1913C6.09872 34.7212 7.2299 34.642 8.59808 34.9536L9.37762 35.1312L8.09401 40.7442C8.81793 40.8479 9.43391 40.7404 9.94196 40.4218C10.4512 40.0979 10.7779 39.621 10.9219 38.9912C11.124 38.1073 10.9307 37.3059 10.3419 36.5871L11.574 35.7736C12.0097 36.2348 12.3048 36.7865 12.4592 37.4286C12.6096 38.0642 12.6031 38.7393 12.4396 39.4539ZM5.01316 38.0043C4.89212 38.5336 4.97969 39.0046 5.27586 39.4173C5.57323 39.8247 6.04307 40.1489 6.68537 40.3899L7.52598 36.7141L7.3828 36.6815C6.72615 36.5764 6.19893 36.6373 5.80116 36.8641C5.39807 37.0897 5.13541 37.4697 5.01316 38.0043Z" fill="#102EA1"/>
<path d="M19.0226 21.2657C18.7462 21.0457 18.4441 20.9928 18.1164 21.1069C17.7921 21.2167 17.3644 21.4908 16.8333 21.9291C16.3022 22.3675 15.8108 22.6951 15.3592 22.912C14.3677 23.3866 13.5169 23.3413 12.8067 22.776C12.2113 22.3021 11.9139 21.6557 11.9143 20.8366C11.9147 20.0176 12.2236 19.2219 12.8408 18.4494C13.4987 17.6259 14.2336 17.1241 15.0454 16.944C15.8607 16.7596 16.5936 16.9264 17.2443 17.4442L16.0081 18.9913C15.7104 18.7544 15.3756 18.6684 15.0036 18.7335C14.6274 18.7951 14.2934 19.0084 14.0018 19.3734C13.7305 19.713 13.587 20.0536 13.5714 20.3953C13.5592 20.7328 13.6849 21.0064 13.9486 21.2163C14.1867 21.4059 14.4514 21.4534 14.7426 21.3588C15.0339 21.2642 15.49 20.9676 16.1111 20.469C16.7279 19.967 17.2672 19.6185 17.729 19.4236C18.19 19.2211 18.6163 19.1404 19.008 19.1813C19.403 19.218 19.7856 19.3836 20.1555 19.6781C20.7764 20.1723 21.0752 20.8302 21.0518 21.6518C21.0242 22.47 20.678 23.295 20.0133 24.127C19.5623 24.6915 19.0583 25.1132 18.5015 25.3922C17.9447 25.6711 17.3893 25.7915 16.8353 25.7534C16.2814 25.7152 15.7982 25.532 15.3857 25.2037L16.5862 23.7011C16.9689 23.971 17.362 24.0581 17.7653 23.9626C18.1644 23.8636 18.5319 23.604 18.8676 23.1838C19.1932 22.7763 19.3642 22.4056 19.3807 22.0715C19.3929 21.734 19.2736 21.4654 19.0226 21.2657Z" fill="#102EA1"/>
</svg>
