<?xml version="1.0" encoding="utf-8"?>
<!-- Generator: Adobe Illustrator 24.0.1, SVG Export Plug-In . SVG Version: 6.00 Build 0)  -->
<svg version="1.1" id="Layer_1" xmlns="http://www.w3.org/2000/svg" xmlns:xlink="http://www.w3.org/1999/xlink" x="0px" y="0px"
	 width="24px" height="16px" viewBox="0 0 24 16" style="enable-background:new 0 0 24 16;" xml:space="preserve">
<style type="text/css">
	.st0{fill:#FFFFFF;}
</style>
<path class="st0" d="M17.7,0H6.3C5,0,4,1,4,2.3v11.4C4,15,5,16,6.3,16h11.4c1.3,0,2.3-1,2.3-2.3V2.3C20,1,19,0,17.7,0z M16.6,10.3
	l-0.4,1.8c-0.1,0.3-0.3,0.4-0.5,0.4c-4.5,0-8.2-3.7-8.2-8.2c0-0.3,0.2-0.5,0.4-0.5l1.8-0.4c0.3-0.1,0.5,0.1,0.6,0.3l0.8,1.9
	c0.1,0.2,0,0.5-0.2,0.7l-1,0.8c0.6,1.2,1.6,2.2,2.8,2.8l0.8-1c0.2-0.2,0.4-0.3,0.7-0.2l1.9,0.8C16.5,9.8,16.6,10.1,16.6,10.3z"/>
</svg>
