<svg width="24" height="16" viewBox="0 0 24 16" fill="none" xmlns="http://www.w3.org/2000/svg">
<mask id="mask0" mask-type="alpha" maskUnits="userSpaceOnUse" x="0" y="0" width="24" height="16">
<rect width="24" height="16" fill="#C4C4C4"/>
</mask>
<g mask="url(#mask0)">
<path d="M24.5517 16.5179H-0.551704C-0.799262 16.5179 -1 16.3171 -1 16.0696V-0.0683058C-1 -0.315864 -0.799262 -0.516602 -0.551704 -0.516602H24.5517C24.7993 -0.516602 25 -0.315864 25 -0.0683058V16.0696C24.9999 16.3172 24.7992 16.5179 24.5517 16.5179Z" fill="#FF4B55"/>
<path d="M8.41376 -0.516602H-0.551704C-0.799262 -0.516602 -1 -0.315915 -1 -0.0683565V16.0695C-1 16.3171 -0.799262 16.5178 -0.551704 16.5178H8.41381V-0.516602H8.41376Z" fill="#73AF00"/>
<path d="M8.41736 12.0308C10.6436 12.0308 12.4484 10.226 12.4484 7.99976C12.4484 5.77349 10.6436 3.96875 8.41736 3.96875C6.1911 3.96875 4.38635 5.77349 4.38635 7.99976C4.38635 10.226 6.1911 12.0308 8.41736 12.0308Z" fill="#FFE15A"/>
<path d="M9.76217 6.65533V8.44841C9.76217 9.18997 9.15889 9.79325 8.41733 9.79325C7.67578 9.79325 7.0725 9.18997 7.0725 8.44841V6.65533H9.76217ZM10.2104 5.75879H6.6242C6.37664 5.75879 6.1759 5.95953 6.1759 6.20708V8.44846C6.1759 9.68631 7.17944 10.6898 8.41728 10.6898C9.65512 10.6898 10.6587 9.68631 10.6587 8.44846V6.20708C10.6587 5.95953 10.458 5.75879 10.2104 5.75879Z" fill="#FF4B55"/>
<path d="M9.76219 6.65527V8.44836C9.76219 9.18991 9.1589 9.79319 8.41735 9.79319C7.67579 9.79319 7.07251 9.18991 7.07251 8.44836V6.65527H9.76219Z" fill="#F5F5F5"/>
<path d="M6.62027 6.43267C6.74406 6.43267 6.84441 6.33232 6.84441 6.20852C6.84441 6.08473 6.74406 5.98438 6.62027 5.98438C6.49647 5.98438 6.39612 6.08473 6.39612 6.20852C6.39612 6.33232 6.49647 6.43267 6.62027 6.43267Z" fill="#FFE15A"/>
<path d="M10.2064 6.43169C10.3302 6.43169 10.4306 6.33134 10.4306 6.20755C10.4306 6.08375 10.3302 5.9834 10.2064 5.9834C10.0827 5.9834 9.9823 6.08375 9.9823 6.20755C9.9823 6.33134 10.0827 6.43169 10.2064 6.43169Z" fill="#FFE15A"/>
<path d="M6.62027 8.22466C6.74406 8.22466 6.84441 8.12431 6.84441 8.00052C6.84441 7.87672 6.74406 7.77637 6.62027 7.77637C6.49647 7.77637 6.39612 7.87672 6.39612 8.00052C6.39612 8.12431 6.49647 8.22466 6.62027 8.22466Z" fill="#FFE15A"/>
<path d="M10.2064 8.22466C10.3302 8.22466 10.4306 8.12431 10.4306 8.00052C10.4306 7.87672 10.3302 7.77637 10.2064 7.77637C10.0827 7.77637 9.9823 7.87672 9.9823 8.00052C9.9823 8.12431 10.0827 8.22466 10.2064 8.22466Z" fill="#FFE15A"/>
<path d="M8.41336 6.43169C8.53715 6.43169 8.63751 6.33134 8.63751 6.20755C8.63751 6.08375 8.53715 5.9834 8.41336 5.9834C8.28956 5.9834 8.18921 6.08375 8.18921 6.20755C8.18921 6.33134 8.28956 6.43169 8.41336 6.43169Z" fill="#FFE15A"/>
<path d="M9.75906 9.87798C9.88285 9.87798 9.98321 9.77763 9.98321 9.65384C9.98321 9.53004 9.88285 9.42969 9.75906 9.42969C9.63527 9.42969 9.53491 9.53004 9.53491 9.65384C9.53491 9.77763 9.63527 9.87798 9.75906 9.87798Z" fill="#FFE15A"/>
<path d="M7.09402 9.87798C7.21781 9.87798 7.31817 9.77763 7.31817 9.65384C7.31817 9.53004 7.21781 9.42969 7.09402 9.42969C6.97023 9.42969 6.86987 9.53004 6.86987 9.65384C6.86987 9.77763 6.97023 9.87798 7.09402 9.87798Z" fill="#FFE15A"/>
<path d="M8.70655 7.88672V8.27276C8.70655 8.43241 8.57665 8.56231 8.417 8.56231C8.25734 8.56231 8.12744 8.43241 8.12744 8.27276V7.88672H8.70655Z" fill="#41479B"/>
<path d="M8.70655 6.97168V7.35772C8.70655 7.51737 8.57665 7.64727 8.417 7.64727C8.25734 7.64727 8.12744 7.51737 8.12744 7.35772V6.97168H8.70655Z" fill="#41479B"/>
<path d="M8.70655 8.81152V9.19756C8.70655 9.35722 8.57665 9.48711 8.417 9.48711C8.25734 9.48711 8.12744 9.35722 8.12744 9.19756V8.81152H8.70655Z" fill="#41479B"/>
<path d="M9.48621 7.88672V8.27276C9.48621 8.43241 9.35631 8.56231 9.19666 8.56231C9.037 8.56231 8.9071 8.43241 8.9071 8.27276V7.88672H9.48621Z" fill="#41479B"/>
<path d="M7.92689 7.88672V8.27276C7.92689 8.43241 7.79699 8.56231 7.63733 8.56231C7.47768 8.56231 7.34778 8.43241 7.34778 8.27276V7.88672H7.92689Z" fill="#41479B"/>
</g>
</svg>
