<svg width="132" height="77" viewBox="0 0 132 77" fill="none" xmlns="http://www.w3.org/2000/svg">
<path opacity="0.06" d="M25.3223 1.73047V0.330469H24.2901L23.9849 1.31651L25.3223 1.73047ZM63.9941 1.73047L65.3714 1.98187L65.6728 0.330469H63.9941V1.73047ZM50.5176 75.5586V76.9586H51.6852L51.8948 75.81L50.5176 75.5586ZM2.4707 75.5586L1.1333 75.1446L0.57184 76.9586H2.4707V75.5586ZM91.2402 1.73047V0.330469H90.2061L89.9021 1.31894L91.2402 1.73047ZM130.059 1.73047L131.435 1.98451L131.741 0.330469H130.059V1.73047ZM116.436 75.5586V76.9586H117.601L117.812 75.8126L116.436 75.5586ZM68.5352 75.5586L67.197 75.1471L66.6399 76.9586H68.5352V75.5586ZM25.3223 3.13047H63.9941V0.330469H25.3223V3.13047ZM62.6169 1.47907L49.1403 75.3072L51.8948 75.81L65.3714 1.98187L62.6169 1.47907ZM50.5176 74.1586H2.4707V76.9586H50.5176V74.1586ZM3.8081 75.9725L26.6597 2.14442L23.9849 1.31651L1.1333 75.1446L3.8081 75.9725ZM91.2402 3.13047H130.059V0.330469H91.2402V3.13047ZM128.682 1.47642L115.059 75.3046L117.812 75.8126L131.435 1.98451L128.682 1.47642ZM116.436 74.1586H68.5352V76.9586H116.436V74.1586ZM69.8733 75.9701L92.5784 2.142L89.9021 1.31894L67.197 75.1471L69.8733 75.9701Z" fill="#020C1E"/>
</svg>
