<?xml version="1.0" encoding="utf-8"?>
<!-- Generator: Adobe Illustrator 24.0.1, SVG Export Plug-In . SVG Version: 6.00 Build 0)  -->
<svg version="1.1" id="Layer_1" xmlns="http://www.w3.org/2000/svg" xmlns:xlink="http://www.w3.org/1999/xlink" x="0px" y="0px"
	 viewBox="0 0 210.7 135.9" style="enable-background:new 0 0 210.7 135.9;" xml:space="preserve">
<style type="text/css">
	.st0{fill:#FFFFFF;}
	.st1{fill:none;}
</style>
<g>
	<path class="st0" d="M135.1,17.9h6.7v22.3h-4.3V25.1c0-0.4,0-1,0-1.8c0-0.8,0-1.4,0-1.8l-4.2,18.7h-4.5l-4.2-18.7c0,0.4,0,1,0,1.8
		c0,0.8,0,1.4,0,1.8v15.1h-4.3V17.9h6.8l4.1,17.5L135.1,17.9z"/>
	<polygon class="st0" points="162.5,21.8 150.7,21.8 150.7,26.6 161.6,26.6 161.6,30.4 150.7,30.4 150.7,36.1 163.1,36.1 
		163.1,40.1 146.2,40.1 146.2,17.9 162.5,17.9 	"/>
	<path class="st0" d="M134.5,44.2c0.8,0.4,1.5,0.9,2.1,1.6c0.5,0.6,0.8,1.2,1.1,1.9c0.3,0.7,0.4,1.5,0.4,2.3c0,1.1-0.3,2.1-0.8,3.1
		c-0.5,1-1.4,1.7-2.6,2.2c1,0.4,1.8,1,2.2,1.8c0.4,0.8,0.6,1.9,0.6,3.5V62c0,1,0,1.7,0.1,2.1c0.1,0.6,0.4,1,0.9,1.3v0.6h-5.1
		c-0.1-0.5-0.2-0.9-0.3-1.2c-0.1-0.6-0.2-1.3-0.2-1.9l0-2.1c0-1.4-0.3-2.4-0.7-2.8c-0.5-0.5-1.4-0.7-2.7-0.7h-4.5v8.7h-4.5V43.6H131
		C132.6,43.7,133.7,43.9,134.5,44.2 M124.9,47.5v6h5c1,0,1.7-0.1,2.2-0.4c0.9-0.4,1.3-1.3,1.3-2.5c0-1.3-0.4-2.3-1.3-2.7
		c-0.5-0.3-1.2-0.4-2.2-0.4H124.9z"/>
	<path class="st0" d="M156,63.9c-1.4,1.7-3.5,2.6-6.3,2.6s-4.9-0.9-6.3-2.6c-1.4-1.7-2.1-3.8-2.1-6.2c0-2.4,0.7-4.4,2.1-6.2
		c1.4-1.7,3.5-2.6,6.3-2.6s4.9,0.9,6.3,2.6c1.4,1.7,2.1,3.8,2.1,6.2C158.1,60.1,157.4,62.2,156,63.9 M152.6,61.5
		c0.7-0.9,1-2.2,1-3.8c0-1.6-0.3-2.9-1-3.8c-0.7-0.9-1.6-1.3-2.9-1.3c-1.3,0-2.2,0.4-2.9,1.3c-0.7,0.9-1,2.2-1,3.8
		c0,1.6,0.3,2.9,1,3.8c0.7,0.9,1.6,1.3,2.9,1.3C150.9,62.9,151.9,62.4,152.6,61.5"/>
	<polygon class="st0" points="177.7,43.6 177.7,47.6 171.1,47.6 171.1,65.9 166.4,65.9 166.4,47.6 159.7,47.6 159.7,43.6 	"/>
	<rect x="180.1" y="43.6" class="st0" width="4.6" height="22.3"/>
	<path class="st0" d="M191.2,46c1.8-1.8,4.1-2.7,6.8-2.7c3.7,0,6.4,1.2,8.1,3.7c0.9,1.4,1.5,2.8,1.5,4.2H203
		c-0.3-1.1-0.7-1.9-1.1-2.4c-0.8-1-2.1-1.4-3.7-1.4c-1.7,0-3,0.7-3.9,2c-1,1.4-1.4,3.3-1.4,5.8c0,2.5,0.5,4.4,1.5,5.6
		c1,1.2,2.3,1.9,3.8,1.9c1.6,0,2.8-0.5,3.7-1.6c0.5-0.6,0.8-1.4,1.2-2.6h4.6c-0.4,2.4-1.4,4.4-3.1,5.9c-1.6,1.5-3.7,2.3-6.3,2.3
		c-3.2,0-5.7-1-7.5-3.1c-1.8-2.1-2.7-4.9-2.7-8.5C188.1,51.1,189.1,48.1,191.2,46"/>
	<path class="st0" d="M120.4,91.7V69.4h7.6c0.6,0,1.2,0,1.8,0c0.6,0,1.2,0.1,1.8,0.2c0.6,0.1,1.1,0.3,1.7,0.5
		c0.5,0.2,1.1,0.5,1.6,0.9c0.7,0.5,1.4,1.2,1.8,2c0.5,0.8,0.9,1.6,1.1,2.4c0.3,0.9,0.5,1.7,0.6,2.6c0.1,0.9,0.2,1.7,0.2,2.4
		c0,0.7,0,1.5-0.1,2.3c-0.1,0.8-0.2,1.5-0.4,2.2c-0.2,0.7-0.5,1.4-0.8,2.1c-0.3,0.7-0.8,1.3-1.3,1.8c-0.5,0.6-1.1,1-1.7,1.4
		c-0.6,0.4-1.2,0.6-1.9,0.8c-0.7,0.2-1.4,0.3-2.1,0.4c-0.7,0.1-1.5,0.1-2.2,0.1H120.4z M122.5,89.9h5c0.9,0,1.8-0.1,2.7-0.2
		c0.8-0.1,1.7-0.4,2.6-0.9c0.7-0.4,1.3-0.9,1.8-1.5c0.5-0.6,0.8-1.3,1.1-2.1c0.3-0.8,0.5-1.5,0.6-2.4c0.1-0.8,0.2-1.6,0.2-2.4
		c0-0.8,0-1.6-0.2-2.5c-0.1-0.8-0.3-1.6-0.6-2.4c-0.3-0.8-0.7-1.4-1.2-2.1c-0.5-0.6-1.1-1.1-1.9-1.6c-0.7-0.4-1.4-0.6-2.4-0.7
		c-0.9-0.1-1.8-0.2-2.8-0.2h-5V89.9z"/>
	<path class="st0" d="M142.8,69.4h2.1v13.3c0,2.8,0.5,4.8,1.5,6c1,1.2,2.7,1.8,5,1.8c1.2,0,2.2-0.2,3-0.5c0.8-0.3,1.5-0.8,2-1.5
		c0.5-0.7,0.9-1.5,1.1-2.4c0.2-1,0.3-2.1,0.3-3.4V69.4h2.1v13.9c0,2.9-0.7,5.1-2.2,6.7c-1.4,1.5-3.6,2.3-6.5,2.3
		c-2.9,0-5.1-0.8-6.5-2.4c-1.4-1.6-2.1-3.8-2.1-6.6V69.4z"/>
	<path class="st0" d="M165.1,91.7V69.4h8c1.3,0,2.4,0.1,3.3,0.4c0.9,0.3,1.7,0.6,2.3,1.1c0.6,0.5,1,1.1,1.3,1.8
		c0.3,0.7,0.4,1.4,0.4,2.3c0,0.8-0.1,1.5-0.3,2c-0.2,0.6-0.5,1-0.8,1.4c-0.3,0.4-0.7,0.7-1.1,0.9c-0.4,0.2-0.9,0.4-1.3,0.4v0.1
		c1.5,0.2,2.7,0.8,3.5,1.8c0.8,1,1.1,2.2,1.1,3.7c0,1.2-0.2,2.1-0.5,2.9c-0.4,0.8-0.9,1.5-1.5,1.9c-0.6,0.5-1.4,0.9-2.3,1.1
		c-0.9,0.2-1.9,0.3-2.9,0.3H165.1z M167.2,79.2h5.3c1.1,0,2-0.1,2.8-0.3c0.7-0.2,1.3-0.5,1.8-0.8c0.5-0.4,0.8-0.8,1-1.3
		c0.2-0.5,0.3-1.1,0.3-1.8c0-0.7-0.1-1.3-0.3-1.8c-0.2-0.5-0.6-0.9-1.1-1.2c-0.5-0.3-1.1-0.5-1.9-0.7c-0.8-0.1-1.8-0.2-2.9-0.2h-4.9
		V79.2z M167.2,89.9h5.4c1.2,0,2.2-0.1,3-0.2c0.9-0.1,1.6-0.3,2.1-0.6c0.6-0.3,1-0.8,1.3-1.4c0.3-0.6,0.4-1.4,0.4-2.3
		c0-0.9-0.2-1.7-0.5-2.2c-0.3-0.6-0.8-1-1.3-1.3c-0.6-0.3-1.3-0.5-2.1-0.6c-0.8-0.1-1.7-0.2-2.7-0.2h-5.6V89.9z"/>
	<path class="st0" d="M183.7,91.7l8.8-22.3h2.4l8.5,22.3h-2.2l-2.6-7h-10.2l-2.6,7H183.7z M189.2,82.9h8.7l-4.4-11.7L189.2,82.9z"/>
	<rect x="207.1" y="69.4" class="st0" width="2.1" height="22.3"/>
	<path class="st0" d="M120.5,95.2h2.1v13.3c0,2.8,0.5,4.8,1.5,6c1,1.2,2.7,1.8,5,1.8c1.2,0,2.2-0.2,3-0.5c0.8-0.3,1.5-0.8,2-1.5
		c0.5-0.7,0.9-1.5,1.1-2.4c0.2-1,0.3-2.1,0.3-3.4V95.2h2.1V109c0,2.9-0.7,5.1-2.2,6.7c-1.4,1.5-3.6,2.3-6.5,2.3
		c-2.9,0-5.1-0.8-6.5-2.4c-1.4-1.6-2.1-3.8-2.1-6.6V95.2z"/>
	<path class="st0" d="M140.7,117.4l8.8-22.3h2.4l8.5,22.3h-2.2l-2.6-7h-10.2l-2.6,7H140.7z M146.2,108.6h8.7L150.6,97L146.2,108.6z"
		/>
	<polygon class="st0" points="163.4,117.4 163.4,95.2 178.2,95.2 178.2,97 165.5,97 165.5,105 177,105 177,106.8 165.5,106.8 
		165.5,115.6 178.5,115.6 178.5,117.4 	"/>
	<path class="st0" d="M90.1,69.4c0.9,0,1.2,0.3,1.4,1.2c0.8,4.6,1.6,9.2,2.4,13.8c0.4,2.5,0.9,5,1.4,7.7
		C82.8,84.9,70.4,77.8,58,70.7c0.2-0.4,0.3-0.9,0.4-1.4L90.1,69.4z M45.7,72.4C33.1,79.7,20.5,87,7.8,94.3c0.2,0.2,0.2,0.2,0.2,0.2
		c7,2.5,14,5.1,21,7.6c0.4,0.1,0.5,0,0.7-0.3c1.6-2.8,3.3-5.6,4.9-8.4c3.1-5.3,6.1-10.6,9.2-15.9c0.8-1.5,1.7-2.9,2.5-4.4
		C46.1,72.9,45.9,72.7,45.7,72.4 M101.2,66.7c-4.4-5.7-8.8-11.2-13-16.7C87.5,49,87,49,86.1,49.5c-8.1,4.6-16.2,9.2-24.4,13.8
		c-1.2,0.7-2.4,1.4-3.7,2.1c0.2,0.4,0.3,0.8,0.4,1.3H101.2z M56.6,63c12.3-7.1,24.6-14.2,37.1-21.4c-0.2-0.2-0.2-0.2-0.2-0.2
		c-7-2.5-14-5.1-21-7.6c-0.4-0.1-0.5,0-0.7,0.3c-1.6,2.8-3.3,5.6-4.9,8.4c-3.1,5.3-6.1,10.6-9.2,15.9c-0.7,1.2-1.4,2.5-2.2,3.7
		C55.9,62.4,56.3,62.7,56.6,63 M26.6,112.5c2-0.4,3.7-0.7,5.4-1c5.4-1,10.8-2,16.3-2.9c1.1-0.2,1.2-0.5,1.2-1.4c0-8.4,0-16.8,0-25.2
		v-7.1c-0.3-0.1-0.7-0.2-1-0.3C41.2,87.1,33.9,99.7,26.6,112.5 M52,118.2c1.6-1.3,3-2.5,4.4-3.7c4.2-3.5,8.4-7,12.6-10.6
		c0.4-0.4,0.7-0.7,0.3-1.3c-1.1-1.7-2-3.6-3.1-5.3c-4.2-7.2-8.4-14.5-12.6-21.7c-0.2-0.3-0.3-0.5-0.4-0.8c-0.4,0.1-0.8,0.2-1.2,0.2
		V118.2z M55.6,73.7c7.2,12.4,14.3,24.8,21.5,37.2c0.8-1.3,1.1-2.7,1.6-4.1c2.1-5.6,4.1-11.3,6.1-16.9c0.2-0.5,0.2-0.8-0.3-1.1
		c-2.2-1.3-4.4-2.6-6.7-3.8C72.6,82,67.3,78.9,62,75.9c-1.8-1-3.6-2.1-5.4-3.1C56.3,73.1,56,73.4,55.6,73.7 M46.3,62.8
		c-7.2-12.5-14.5-25-21.8-37.7c-0.9,2.3-1.7,4.4-2.4,6.4c-1.7,4.8-3.5,9.7-5.2,14.5c-0.2,0.6-0.2,1,0.4,1.3c1.8,1,3.6,2,5.3,3.1
		c5.3,3.1,10.6,6.1,15.9,9.2c2.4,1.4,4.7,2.7,7.1,4.1C45.9,63.3,46.1,63,46.3,62.8 M16.6,86.4c8.1-4.6,16.2-9.2,24.4-13.8
		c1.2-0.7,2.4-1.4,3.7-2.1c-0.2-0.4-0.3-0.8-0.4-1.3H1.4c4.4,5.7,8.8,11.2,13,16.7C15.2,86.9,15.6,86.9,16.6,86.4 M6.4,43.8
		c1.3,7.4,2.7,14.5,3.9,21.6c0.2,1.1,0.6,1.2,1.5,1.2c10.8,0,21.6,0,32.4,0h0.1c0.1-0.3,0.1-0.6,0.2-0.9
		C31.8,58.5,19.2,51.2,6.4,43.8 M74.9,23.5c-2,0.4-3.7,0.7-5.4,1c-5.4,1-10.8,2-16.3,2.9c-1.1,0.2-1.2,0.5-1.2,1.4
		c0,8.4,0,16.8,0,25.2v6.8c0.4,0,0.8,0.1,1.2,0.2C60.4,48.6,67.6,36.1,74.9,23.5 M49.5,17.7c-1.6,1.3-3,2.5-4.4,3.7
		c-4.2,3.5-8.4,7-12.6,10.6c-0.4,0.4-0.7,0.7-0.3,1.3c1.1,1.7,2,3.6,3.1,5.3c4.2,7.2,8.4,14.5,12.6,21.7c0.2,0.4,0.4,0.8,0.6,1.2
		c0.3-0.1,0.7-0.3,1-0.4V17.7z"/>
	<path class="st1" d="M52,75.1v43.1c1.6-1.3,3-2.5,4.4-3.7c4.2-3.5,8.4-7,12.6-10.6c0.4-0.4,0.7-0.7,0.3-1.3c-1.1-1.7-2-3.6-3.1-5.3
		c-4.2-7.2-8.4-14.5-12.6-21.7c-0.2-0.3-0.3-0.5-0.4-0.8C52.8,75,52.4,75.1,52,75.1 M26.6,112.5c2-0.4,3.7-0.7,5.4-1
		c5.4-1,10.8-2,16.3-2.9c1.1-0.2,1.2-0.5,1.2-1.4c0-8.4,0-16.8,0-25.2v-7.1c-0.3-0.1-0.7-0.2-1-0.3C41.2,87.1,33.9,99.7,26.6,112.5
		 M55.6,73.7c7.2,12.4,14.3,24.8,21.5,37.2c0.8-1.3,1.1-2.7,1.6-4.1c2.1-5.6,4.1-11.3,6.1-16.9c0.2-0.5,0.2-0.8-0.3-1.1
		c-2.2-1.3-4.4-2.6-6.7-3.8C72.6,82,67.3,78.9,62,75.9c-1.8-1-3.6-2.1-5.4-3.1C56.3,73.1,56,73.4,55.6,73.7 M7.8,94.3
		c0.2,0.2,0.2,0.2,0.2,0.2c7,2.5,14,5.1,21,7.6c0.4,0.1,0.5,0,0.7-0.3c1.6-2.8,3.3-5.6,4.9-8.4c3.1-5.3,6.1-10.6,9.2-15.9
		c0.9-1.5,1.7-2.9,2.5-4.4c-0.2-0.2-0.5-0.5-0.7-0.7C33.1,79.7,20.5,87,7.8,94.3 M58,70.7c12.4,7.1,24.8,14.3,37.3,21.5
		c-0.5-2.7-0.9-5.2-1.4-7.7c-0.8-4.6-1.7-9.2-2.4-13.8c-0.2-0.9-0.5-1.2-1.4-1.2l-31.7-0.2C58.3,69.7,58.2,70.2,58,70.7 M1.4,69.2
		c4.4,5.7,8.8,11.2,13,16.7c0.7,0.9,1.2,0.9,2.1,0.4c8.1-4.6,16.2-9.2,24.4-13.8c1.2-0.7,2.4-1.4,3.7-2.1c-0.2-0.4-0.3-0.8-0.4-1.3
		H1.4z M86.1,49.5c-8.1,4.6-16.2,9.2-24.4,13.8c-1.2,0.7-2.4,1.4-3.7,2.1c0.2,0.4,0.3,0.8,0.4,1.3h42.8c-4.4-5.7-8.8-11.2-13-16.7
		c-0.4-0.5-0.7-0.7-1.1-0.7C86.8,49.2,86.5,49.3,86.1,49.5 M10.2,65.4c0.2,1.1,0.6,1.2,1.5,1.2c10.8,0,21.6,0,32.4,0h0.1
		c0.1-0.3,0.1-0.6,0.2-0.9C31.8,58.5,19.2,51.2,6.4,43.8C7.7,51.2,9,58.3,10.2,65.4 M71.7,34.1c-1.6,2.8-3.3,5.6-4.9,8.4
		c-3.1,5.3-6.1,10.6-9.2,15.9c-0.7,1.2-1.4,2.5-2.2,3.7c0.4,0.3,0.7,0.6,1.1,0.9c12.3-7.1,24.6-14.2,37.1-21.4
		c-0.2-0.2-0.2-0.2-0.2-0.2c-7-2.5-14-5.1-21-7.6c-0.1,0-0.2-0.1-0.3-0.1C71.9,33.8,71.9,33.9,71.7,34.1 M22.1,31.5
		c-1.7,4.8-3.5,9.7-5.2,14.5c-0.2,0.6-0.2,1,0.4,1.3c1.8,1,3.6,2,5.3,3.1c5.3,3.1,10.6,6.1,15.9,9.2c2.4,1.4,4.7,2.7,7.1,4.1
		c0.2-0.3,0.5-0.5,0.7-0.8c-7.2-12.5-14.5-25-21.8-37.7C23.7,27.3,22.9,29.4,22.1,31.5 M69.5,24.5c-5.4,1-10.8,2-16.3,2.9
		c-1.1,0.2-1.2,0.5-1.2,1.4c0,8.4,0,16.8,0,25.2v6.8c0.4,0,0.8,0.1,1.2,0.2c7.2-12.4,14.4-24.9,21.7-37.5
		C72.9,23.9,71.2,24.2,69.5,24.5 M45.1,21.4c-4.2,3.5-8.4,7-12.6,10.6c-0.4,0.4-0.7,0.7-0.3,1.3c1.1,1.7,2,3.6,3.1,5.3
		c4.2,7.2,8.4,14.5,12.6,21.7c0.2,0.4,0.4,0.8,0.6,1.2c0.3-0.1,0.7-0.3,1-0.3V17.7C47.9,19,46.5,20.2,45.1,21.4"/>
</g>
</svg>
