<svg width="24" height="16" viewBox="0 0 24 16" fill="none" xmlns="http://www.w3.org/2000/svg">
<mask id="mask0" mask-type="alpha" maskUnits="userSpaceOnUse" x="0" y="0" width="24" height="16">
<rect width="24" height="16" fill="#C4C4C4"/>
</mask>
<g mask="url(#mask0)">
<path d="M25.7369 5.00012H-1.73706V-0.526288C-1.73706 -0.787882 -1.52494 -1 -1.26335 -1H25.2633C25.5249 -1 25.737 -0.787882 25.737 -0.526288L25.7369 5.00012Z" fill="#F5F5F5"/>
<path d="M25.2632 17.0001H-1.26335C-1.52494 17.0001 -1.73706 16.7879 -1.73706 16.5264V11H25.7369V16.5264C25.7369 16.788 25.5248 17.0001 25.2632 17.0001Z" fill="#FF4B55"/>
<path d="M25.7369 5H-1.73706V10.9997H25.7369V5Z" fill="#41479B"/>
<path d="M5.2504 12.4691C5.11019 12.3886 1.81519 10.4721 1.81519 7.52634V3.5H8.92054V7.52634C8.92054 10.4721 5.62554 12.3886 5.48533 12.4691L5.36786 12.5362L5.2504 12.4691Z" fill="#FF4B55"/>
<path d="M7.22894 6.81625L6.11233 6.96333H5.7402V6.29698H5.96348L6.8567 6.44406L6.73575 5.92479L6.8567 5.40552L5.96348 5.55255H5.7402V5.3275L5.88723 4.21094L5.36801 4.36221L4.8488 4.21094L4.99583 5.3275V5.55255H4.77244L3.87927 5.40552L4.00022 5.92479L3.87927 6.44406L4.77244 6.29698H4.99583V6.96333H4.62364L3.50708 6.81625L3.65829 7.33546L3.50708 7.85473L4.62364 7.70765H4.99583V9.42155H5.7402V7.70765H6.11233L7.22894 7.85473L7.07773 7.33546L7.22894 6.81625Z" fill="#F5F5F5"/>
<path d="M5.36837 8.70996C4.87909 8.70996 4.45947 9.00681 4.27896 9.43003C4.24708 9.4274 4.2166 9.42048 4.18414 9.42048C3.55358 9.42048 3.043 9.91468 3.00684 10.5361C3.96601 11.7169 5.16741 12.4205 5.25091 12.4685L5.36837 12.5356L5.48583 12.4685C5.56932 12.4205 6.77072 11.7169 7.7299 10.5361C7.69373 9.91468 7.18315 9.42048 6.55259 9.42048C6.52013 9.42048 6.48965 9.4274 6.45778 9.43003C6.27726 9.00681 5.85764 8.70996 5.36837 8.70996Z" fill="#41479B"/>
<path d="M8.68458 3.73641C8.68458 3.73641 8.68458 6.57857 8.68458 7.52594C8.68458 10.3681 5.36876 12.2628 5.36876 12.2628C5.36876 12.2628 2.05294 10.3681 2.05294 7.52594C2.05294 6.57857 2.05294 3.73641 2.05294 3.73641H8.68458ZM9.15824 3.2627H8.68453H2.05294H1.57922V3.73641V7.52594C1.57922 10.6075 4.98863 12.5911 5.13373 12.6741L5.36876 12.8084L5.60379 12.6741C5.74894 12.5911 9.15829 10.6075 9.15829 7.52594V3.73641V3.2627H9.15824Z" fill="#F5F5F5"/>
</g>
</svg>
