<?xml version="1.0" encoding="utf-8"?>
<!-- Generator: Adobe Illustrator 24.0.1, SVG Export Plug-In . SVG Version: 6.00 Build 0)  -->
<svg version="1.1" id="Layer_1" xmlns="http://www.w3.org/2000/svg" xmlns:xlink="http://www.w3.org/1999/xlink" x="0px" y="0px"
	 viewBox="0 0 210.7 135.9" style="enable-background:new 0 0 210.7 135.9;" xml:space="preserve">
<style type="text/css">
	.st0{fill:#FFFFFF;}
</style>
<g>
	<g>
		<path class="st0" d="M24.2,77.8c0-7,3.1-14,9.4-21.1l2.1-2.3C41,48.7,44.8,44,47.1,39.3c2.4-4.7,3.8-8.8,4.2-18.9
			c-1.4,0-2.9,0.6-4,1.7L5.5,63.9c-2.2,2.2-2.2,5.8,0,8l24.7,24.7C25.6,90.2,24.2,85,24.2,77.8"/>
		<path class="st0" d="M51.3,106.1c-7.5,0-13.9-2.6-19.4-7.7l15.5,15.5c2.2,2.2,5.8,2.2,8,0l15.5-15.5
			C65.3,103.9,59.1,106.1,51.3,106.1"/>
		<path class="st0" d="M42.6,80.9c2.1,1.4,3.6,3.7,3.6,6.4c0,0.6-0.1,1.3-0.2,1.9c-0.1,0.4,0.2,0.8,0.6,0.8h0.1
			c0.2,0,0.3-0.1,0.4-0.2c0.6-1.1,1-2.3,1-3.6c0-1.9-0.8-3.7-2.1-5c-0.6-0.7-1.5-1-2.5-1h-0.6C42.4,80.1,42.2,80.7,42.6,80.9"/>
		<path class="st0" d="M44.3,77.8v-1.7c0-0.2-0.1-0.3-0.3-0.3c-0.2,0-0.3,0.1-0.3,0.3v1.7c0,0.2,0.1,0.3,0.3,0.3
			C44.2,78.1,44.3,78,44.3,77.8"/>
		<path class="st0" d="M43.3,77.8v-1.7c0-0.2-0.1-0.3-0.3-0.3c-0.2,0-0.3,0.1-0.3,0.3v1.7c0,0.2,0.1,0.3,0.3,0.3
			C43.2,78.1,43.3,78,43.3,77.8"/>
		<path class="st0" d="M42.3,77.8v-1.7c0-0.2-0.1-0.3-0.3-0.3c-0.2,0-0.3,0.1-0.3,0.3v1.7c0,0.2,0.1,0.3,0.3,0.3
			C42.1,78.1,42.3,78,42.3,77.8"/>
		<path class="st0" d="M38.2,77.8v-1.7c0-0.2-0.1-0.3-0.3-0.3c-0.2,0-0.3,0.1-0.3,0.3v1.7c0,0.2,0.1,0.3,0.3,0.3
			C38,78.1,38.2,78,38.2,77.8"/>
		<path class="st0" d="M39.2,77.8v-1.7c0-0.2-0.1-0.3-0.3-0.3c-0.2,0-0.3,0.1-0.3,0.3v1.7c0,0.2,0.1,0.3,0.3,0.3
			C39.1,78.1,39.2,78,39.2,77.8"/>
		<path class="st0" d="M41.3,77.8v-1.7c0-0.2-0.1-0.3-0.3-0.3c-0.2,0-0.3,0.1-0.3,0.3v1.7c0,0.2,0.1,0.3,0.3,0.3
			C41.1,78.1,41.3,78,41.3,77.8"/>
		<path class="st0" d="M40.2,77.8v-1.7c0-0.2-0.1-0.3-0.3-0.3c-0.2,0-0.3,0.1-0.3,0.3v1.7c0,0.2,0.1,0.3,0.3,0.3
			C40.1,78.1,40.2,78,40.2,77.8"/>
		<path class="st0" d="M36.9,75.8c-0.2,0-0.3,0.1-0.3,0.3v1.7c0,0.2,0.1,0.3,0.3,0.3c0.2,0,0.3-0.1,0.3-0.3v-1.7
			C37.2,75.9,37,75.8,36.9,75.8"/>
		<path class="st0" d="M97.3,63.9L55.4,22c-1.1-1.1-2.6-1.7-4-1.7c0.5,2.3,4.1,12.7-1.2,23.1c-2.2,4.2-5.3,7.5-9.6,12.4l-1.9,2.1
			c-1.8,2-3.3,4-4.5,6c-2.4,3.8-3.9,8.4-3.9,13.2c0,3.2,0.5,6.1,1.3,8.9c0-3.1,1.8-5.8,4.4-7.3v-3c0-0.2,0.2-0.4,0.4-0.4h8.2
			c0.2,0,0.4,0.2,0.4,0.4v3c2.6,1.5,4.3,4.2,4.3,7.2c0,2.8-1.4,5.3-3.7,6.8h3.8v-4.7c0-0.6,0.5-1,1.1-1h2.3v-3.8h-1
			c-0.2,0-0.4-0.2-0.4-0.3c0-0.2,0.2-0.3,0.4-0.3h1v-2h-1c-0.2,0-0.4-0.2-0.4-0.3c0-0.2,0.2-0.3,0.4-0.3h1v-2h-1
			c-0.2,0-0.4-0.2-0.4-0.3c0-0.2,0.2-0.3,0.4-0.3h1v-2h-1c-0.2,0-0.4-0.2-0.4-0.3c0-0.2,0.2-0.3,0.4-0.3h1v-2h-1
			c-0.2,0-0.4-0.2-0.4-0.3c0-0.2,0.2-0.3,0.4-0.3h1v-2h-1c-0.2,0-0.4-0.2-0.4-0.3c0-0.2,0.2-0.3,0.4-0.3h1v-1.5c0-1,0.7-1.8,1.6-2
			v-0.7c0-0.9,0.8-1.7,1.8-1.7h1.4c1,0,1.8,0.8,1.8,1.7v22.2h3.1v-3.8h-1c-0.2,0-0.4-0.2-0.4-0.3c0-0.2,0.2-0.3,0.4-0.3h1v-2h-1
			c-0.2,0-0.4-0.2-0.4-0.3c0-0.2,0.2-0.3,0.4-0.3h1v-2h-1c-0.2,0-0.4-0.2-0.4-0.3c0-0.2,0.2-0.3,0.4-0.3h1v-2h-1
			c-0.2,0-0.4-0.2-0.4-0.3c0-0.2,0.2-0.3,0.4-0.3h1v-2h-1c-0.2,0-0.4-0.2-0.4-0.3c0-0.2,0.2-0.3,0.4-0.3h1v-2h-1
			c-0.2,0-0.4-0.2-0.4-0.3c0-0.2,0.2-0.3,0.4-0.3h1v-1.5c0-1,0.7-1.8,1.6-2v-0.7c0-0.9,0.8-1.7,1.8-1.7h1.4c1,0,1.8,0.8,1.8,1.7
			v22.2H70c0.6,0,1.1,0.5,1.1,1v3.7c2.8-3.7,4.5-8.4,4.6-13.7c0.4-15-12.8-18.5-17.8-35.1c0,0,0,0,0,0c7.8,13.3,23,19.7,22,36.7
			c-0.1,1.5-0.3,2.9-0.7,4.2c-1.1,5.1-2.7,8.7-6.7,12.7L97.3,72C99.5,69.7,99.5,66.2,97.3,63.9"/>
		<rect x="45.3" y="93.5" class="st0" width="4.1" height="0.4"/>
		<path class="st0" d="M64.3,66.3c0,0.1,0.1,0.2,0.2,0.2c0.8,0,1.4,0.6,1.4,1.3v18.7c0,0.1,0.1,0.2,0.2,0.2c0.1,0,0.2-0.1,0.2-0.2
			V67.8c0-1-0.8-1.8-1.9-1.8C64.4,66,64.3,66.1,64.3,66.3"/>
		<path class="st0" d="M58.8,87.1V64.9c0-0.6-0.5-1.1-1.1-1.1h-1.4c-0.6,0-1.1,0.5-1.1,1.1v0.6c1.1,0.1,2.1,1,2.1,2.1v19.5H58.8z"/>
		<path class="st0" d="M54.5,66.3c0,0.1,0.1,0.2,0.2,0.2c0.8,0,1.4,0.6,1.4,1.3v18.7c0,0.1,0.1,0.2,0.2,0.2c0.1,0,0.2-0.1,0.2-0.2
			V67.8c0-1-0.8-1.8-1.9-1.8C54.6,66,54.5,66.1,54.5,66.3"/>
		<path class="st0" d="M68.5,87.1V64.9c0-0.6-0.5-1.1-1.1-1.1H66c-0.6,0-1.1,0.5-1.1,1.1v0.6c1.1,0.1,2.1,1,2.1,2.1v19.5H68.5z"/>
	</g>
	<g>
		<path class="st0" d="M128.9,25v21.8h-5.3V33.7l-4.9,13.1h-4.3l-4.9-13.1v13.1h-5.3V25h6.3l6.1,15.1l6.1-15.1H128.9z"/>
		<path class="st0" d="M138,29.3v4.4h7.1v4.1H138v4.8h8v4.3h-13.4V25h13.4v4.3H138z"/>
	</g>
	<g>
		<path class="st0" d="M108.4,70.5c-1.2-0.5-2.2-1.3-3-2.3c-0.7-1-1.1-2.2-1.2-3.6h5.5c0.1,0.8,0.4,1.4,0.8,1.8
			c0.5,0.4,1.1,0.6,1.8,0.6c0.8,0,1.4-0.2,1.8-0.5c0.4-0.4,0.7-0.8,0.7-1.5c0-0.5-0.2-1-0.5-1.3c-0.4-0.3-0.8-0.6-1.3-0.9
			c-0.5-0.2-1.3-0.5-2.2-0.8c-1.4-0.4-2.5-0.9-3.4-1.3c-0.9-0.4-1.6-1.1-2.3-1.9c-0.6-0.8-0.9-1.9-0.9-3.3c0-2,0.7-3.6,2.2-4.7
			c1.4-1.1,3.3-1.7,5.6-1.7c2.4,0,4.3,0.6,5.7,1.7c1.4,1.1,2.2,2.7,2.3,4.7h-5.6c0-0.7-0.3-1.2-0.8-1.6c-0.5-0.4-1.1-0.6-1.8-0.6
			c-0.6,0-1.1,0.2-1.5,0.5c-0.4,0.3-0.6,0.8-0.6,1.4c0,0.7,0.3,1.2,1,1.6c0.6,0.4,1.7,0.8,3,1.2c1.4,0.5,2.5,0.9,3.4,1.3
			c0.9,0.4,1.6,1,2.2,1.9c0.6,0.8,0.9,1.9,0.9,3.1c0,1.2-0.3,2.3-0.9,3.3c-0.6,1-1.5,1.8-2.7,2.4c-1.2,0.6-2.6,0.9-4.2,0.9
			C111,71.2,109.6,71,108.4,70.5z"/>
		<path class="st0" d="M138.5,49.6v4.2h-5.7V71h-5.2V53.8h-5.7v-4.2H138.5z"/>
		<path class="st0" d="M152.6,67.2h-8l-1.3,3.8h-5.5l7.7-21.4h6l7.7,21.4h-5.5L152.6,67.2z M151.2,63.2l-2.7-7.8l-2.6,7.8H151.2z"/>
		<path class="st0" d="M175.2,49.6v4.2h-5.7V71h-5.2V53.8h-5.7v-4.2H175.2z"/>
		<path class="st0" d="M183.1,49.6V71h-5.2V49.6H183.1z"/>
		<path class="st0" d="M187.3,54.6c0.9-1.7,2.2-2.9,3.8-3.9c1.6-0.9,3.5-1.4,5.6-1.4c2.5,0,4.7,0.7,6.5,2c1.8,1.3,3,3.2,3.6,5.5
			h-5.7c-0.4-0.9-1-1.6-1.8-2c-0.8-0.5-1.7-0.7-2.7-0.7c-1.6,0-2.9,0.6-3.9,1.7c-1,1.1-1.5,2.6-1.5,4.5c0,1.9,0.5,3.4,1.5,4.5
			c1,1.1,2.3,1.7,3.9,1.7c1,0,1.9-0.2,2.7-0.7c0.8-0.5,1.4-1.1,1.8-2h5.7c-0.6,2.3-1.8,4.1-3.6,5.5c-1.8,1.3-4,2-6.5,2
			c-2.1,0-3.9-0.5-5.6-1.4c-1.6-0.9-2.9-2.2-3.8-3.9c-0.9-1.6-1.4-3.5-1.4-5.6C186,58.2,186.4,56.3,187.3,54.6z"/>
	</g>
	<g>
		<path class="st0" d="M113.2,76.5c1.2,0.6,2.1,1.5,2.8,2.7c0.6,1.2,1,2.5,1,4.1c0,1.6-0.3,2.9-1,4.1c-0.6,1.1-1.6,2-2.8,2.6
			c-1.2,0.6-2.7,0.9-4.4,0.9h-4.5V75.6h4.5C110.5,75.6,112,75.9,113.2,76.5z M113.7,87.9c1.1-1.1,1.7-2.7,1.7-4.7
			c0-2-0.6-3.6-1.7-4.7c-1.1-1.1-2.7-1.7-4.9-1.7h-3v12.8h3C111,89.6,112.6,89.1,113.7,87.9z"/>
		<path class="st0" d="M121.7,75.6v9.7c0,1.5,0.4,2.6,1.1,3.4c0.7,0.7,1.7,1.1,3,1.1c1.3,0,2.2-0.4,3-1.1c0.7-0.7,1.1-1.9,1.1-3.4
			v-9.7h1.5v9.6c0,1.9-0.5,3.4-1.5,4.4c-1,1-2.4,1.5-4,1.5c-1.7,0-3-0.5-4-1.5c-1-1-1.5-2.4-1.5-4.4v-9.6H121.7z"/>
		<path class="st0" d="M144.5,84.3c0.6,0.7,0.9,1.6,0.9,2.5c0,0.8-0.2,1.5-0.6,2.1c-0.4,0.6-1,1.1-1.7,1.5c-0.7,0.4-1.6,0.5-2.7,0.5
			h-5.3V75.6h5.2c1.6,0,2.7,0.4,3.5,1.1c0.8,0.7,1.2,1.6,1.2,2.8c0,1-0.3,1.7-0.8,2.3c-0.5,0.6-1.2,1-2,1.2
			C143.2,83.1,143.9,83.6,144.5,84.3z M136.7,82.3h3.6c1,0,1.8-0.2,2.4-0.7c0.6-0.5,0.8-1.2,0.8-2c0-0.8-0.3-1.5-0.8-2
			c-0.6-0.5-1.4-0.7-2.5-0.7h-3.5V82.3z M143,88.8c0.6-0.5,0.9-1.3,0.9-2.2c0-0.9-0.3-1.7-1-2.2c-0.7-0.5-1.5-0.8-2.6-0.8h-3.6v6
			h3.7C141.5,89.6,142.3,89.3,143,88.8z"/>
		<path class="st0" d="M157.6,87.3h-7l-1.3,3.6h-1.6l5.6-15.1h1.7l5.6,15.1h-1.6L157.6,87.3z M157.1,86l-3-8.3l-3,8.3H157.1z"/>
		<path class="st0" d="M165,75.6v15.3h-1.5V75.6H165z"/>
		<path class="st0" d="M105.8,95.3v9.7c0,1.5,0.4,2.6,1.1,3.4c0.7,0.7,1.7,1.1,3,1.1c1.3,0,2.2-0.4,3-1.1c0.7-0.7,1.1-1.9,1.1-3.4
			v-9.7h1.5v9.6c0,1.9-0.5,3.4-1.5,4.4c-1,1-2.4,1.5-4,1.5c-1.7,0-3-0.5-4-1.5c-1-1-1.5-2.4-1.5-4.4v-9.6H105.8z"/>
		<path class="st0" d="M128.1,107h-7l-1.3,3.6h-1.6l5.6-15.1h1.7l5.6,15.1h-1.6L128.1,107z M127.7,105.7l-3-8.3l-3,8.3H127.7z"/>
		<path class="st0" d="M135.5,96.5v5.7h5.8v1.3h-5.8v5.8h6.5v1.3h-8V95.3h8v1.3H135.5z"/>
	</g>
</g>
</svg>
