<svg id="Layer_1" data-name="Layer 1" xmlns="http://www.w3.org/2000/svg" width="42.33mm" height="42.33mm" viewBox="0 0 120 120"><defs><style>.cls-1{fill:#50af9b;}</style></defs><title>success</title><path class="cls-1" d="M28.08,23A3.91,3.91,0,0,1,26,22.77a4.53,4.53,0,0,1-1.83-1.44,4.34,4.34,0,0,1-1-2.11,3.87,3.87,0,0,1,.25-2.13,4.7,4.7,0,0,1,3.39-2.69,3.91,3.91,0,0,1,2.13.24,4.44,4.44,0,0,1,1.84,1.42,4.36,4.36,0,0,1,.95,2.12,4,4,0,0,1-.28,2.16,4.65,4.65,0,0,1-1.38,1.78A4.31,4.31,0,0,1,28.08,23Zm1.85-3.1a2.47,2.47,0,0,0,.15-1.33,3.57,3.57,0,0,0-1.9-2.42A2.4,2.4,0,0,0,26.87,16a2.58,2.58,0,0,0-1.17.52,2.66,2.66,0,0,0-.77,1,2.27,2.27,0,0,0-.11,1.3,3.21,3.21,0,0,0,.69,1.4,2.87,2.87,0,0,0,1.83,1.2,2.23,2.23,0,0,0,1.81-.5A2.45,2.45,0,0,0,29.93,19.92Z"/><path class="cls-1" d="M37.85,7.53l3.8,7.41-1.54.79-.44-.88a2.88,2.88,0,0,1-.58,1.21A3.49,3.49,0,0,1,38,17a3.81,3.81,0,0,1-1.75.44,3,3,0,0,1-1.65-.52,4,4,0,0,1-1.27-1.52L31.07,11l1.52-.78,2.12,4.13A2.39,2.39,0,0,0,36,15.62a2.25,2.25,0,0,0,2.72-1.39,2.39,2.39,0,0,0-.28-1.79L36.32,8.32Z"/><path class="cls-1" d="M44.14,5.58a3.05,3.05,0,0,1,1.31-.79L46,6.49l-.41.13a2.13,2.13,0,0,0-1.31,1,2.49,2.49,0,0,0,0,1.86l1.34,4.17L44,14.14,41.48,6.21l1.64-.53.37,1.15A2.69,2.69,0,0,1,44.14,5.58Z"/><path class="cls-1" d="M61.33,7.55,55,8a2.3,2.3,0,0,0,.84,1.55A2.37,2.37,0,0,0,57.5,10a2,2,0,0,0,1.88-1.29l1.86-.13a3.79,3.79,0,0,1-1.24,2,4.08,4.08,0,0,1-2.4.9,4.22,4.22,0,0,1-2.17-.4,3.81,3.81,0,0,1-1.58-1.4,4.69,4.69,0,0,1-.69-2.22,4.86,4.86,0,0,1,.37-2.29,3.79,3.79,0,0,1,1.36-1.6A4.39,4.39,0,0,1,57,2.89a4.27,4.27,0,0,1,2.13.37A3.61,3.61,0,0,1,60.68,4.6a4.49,4.49,0,0,1,.66,2.1A4.75,4.75,0,0,1,61.33,7.55ZM59.51,6.28a2,2,0,0,0-.79-1.48A2.43,2.43,0,0,0,57,4.34,2.2,2.2,0,0,0,55.56,5a2.3,2.3,0,0,0-.65,1.58Z"/><path class="cls-1" d="M66.85,10,70,3.55l1.82.21-4.11,7.9-2-.23L63.45,2.8,65.29,3Z"/><path class="cls-1" d="M80.5,11.25,74.42,9.37A2.31,2.31,0,0,0,76,12.18a2,2,0,0,0,2.22-.53L80,12.2a3.8,3.8,0,0,1-1.86,1.39,4,4,0,0,1-2.57,0,4.24,4.24,0,0,1-1.88-1.15,3.74,3.74,0,0,1-1-1.88,4.61,4.61,0,0,1,.15-2.31,4.66,4.66,0,0,1,1.17-2,3.59,3.59,0,0,1,1.84-1,4.39,4.39,0,0,1,2.23.13A4.16,4.16,0,0,1,80,6.46a3.58,3.58,0,0,1,1,1.8,4.39,4.39,0,0,1-.14,2.2A4.49,4.49,0,0,1,80.5,11.25ZM79.25,9.41a2,2,0,0,0-.2-1.66,2.46,2.46,0,0,0-1.4-1,2.23,2.23,0,0,0-1.63.1,2.37,2.37,0,0,0-1.17,1.24Z"/><path class="cls-1" d="M90.28,11.12a2.88,2.88,0,0,1,.5,1.64,4,4,0,0,1-.53,1.92L87.91,19l-1.5-.82,2.21-4.09A2.45,2.45,0,0,0,89,12.31a2.26,2.26,0,0,0-2.7-1.45,2.37,2.37,0,0,0-1.31,1.24l-2.21,4.09-1.52-.81,4-7.33,1.52.82-.46.84a2.82,2.82,0,0,1,1.33-.19,3.35,3.35,0,0,1,1.37.41A3.66,3.66,0,0,1,90.28,11.12Z"/><path class="cls-1" d="M95.63,16.17l-2.81,3.66a.87.87,0,0,0-.23.66,1.06,1.06,0,0,0,.47.62l.84.64L93,22.89l-1.08-.82a2.68,2.68,0,0,1-1.08-1.52,2.23,2.23,0,0,1,.59-1.78l2.8-3.66-.78-.6.86-1.11.77.6,1.26-1.65,1.38,1.06-1.26,1.64,1.61,1.24-.86,1.11Z"/><path class="cls-1" d="M95.46,24.83a3.15,3.15,0,0,1-.17-1.56,2.39,2.39,0,0,1,.64-1.3l1.25,1.27a1.21,1.21,0,0,0-.28,1,1.83,1.83,0,0,0,.56,1.08,1.87,1.87,0,0,0,1,.61.85.85,0,0,0,.8-.22.74.74,0,0,0,.18-.8,8.46,8.46,0,0,0-.63-1.36,13.3,13.3,0,0,1-.71-1.44,2.76,2.76,0,0,1-.19-1.25,2,2,0,0,1,.64-1.22,2.07,2.07,0,0,1,1.14-.57,2.62,2.62,0,0,1,1.41.19,4.24,4.24,0,0,1,1.41,1,3.54,3.54,0,0,1,1.09,2.14,2.58,2.58,0,0,1-.75,2l-1.21-1.23a1.17,1.17,0,0,0,.32-.94,1.69,1.69,0,0,0-.53-1,1.75,1.75,0,0,0-.91-.57.79.79,0,0,0-.74.22.7.7,0,0,0-.23.56,1.53,1.53,0,0,0,.16.67q.15.34.48,1a11.09,11.09,0,0,1,.69,1.41,2.84,2.84,0,0,1,.18,1.23,1.88,1.88,0,0,1-.61,1.21,2.21,2.21,0,0,1-1.18.61,2.66,2.66,0,0,1-1.4-.18,4.19,4.19,0,0,1-1.41-1A4.26,4.26,0,0,1,95.46,24.83Z"/><path class="cls-1" d="M104.94,37.32a1.07,1.07,0,0,1,.55-.65,1,1,0,0,1,.84-.07,1,1,0,0,1,.64.55,1,1,0,0,1,.08.83,1.08,1.08,0,0,1-.55.64,1.1,1.1,0,0,1-.85.08,1.07,1.07,0,0,1-.64-.54A1,1,0,0,1,104.94,37.32Z"/><path class="cls-1" d="M110,50.51a3.88,3.88,0,0,1,1.25-1.72,4.84,4.84,0,0,1,4.45-.72,3.87,3.87,0,0,1,1.74,1.25,4.36,4.36,0,0,1,.87,2,4.47,4.47,0,0,1-.16,2.22,3.94,3.94,0,0,1-1.24,1.75,4.48,4.48,0,0,1-2.13.92,4.38,4.38,0,0,1-2.32-.2,4,4,0,0,1-1.75-1.29,4.54,4.54,0,0,1-.89-2.07A4.25,4.25,0,0,1,110,50.51Zm1.81,3.12a2.41,2.41,0,0,0,1.1.78,3,3,0,0,0,1.58.11,3.09,3.09,0,0,0,1.45-.6,2.23,2.23,0,0,0,.78-1.06,2.42,2.42,0,0,0,.11-1.28,2.48,2.48,0,0,0-.51-1.16,2.24,2.24,0,0,0-1.08-.73,3.24,3.24,0,0,0-1.57-.08,2.92,2.92,0,0,0-1.93,1,2.24,2.24,0,0,0-.44,1.83A2.52,2.52,0,0,0,111.82,53.63Z"/><path class="cls-1" d="M118.82,66.58l-8.32-.27.06-1.72,1,0a2.8,2.8,0,0,1-.77-1.09,3.32,3.32,0,0,1-.26-1.4,3.82,3.82,0,0,1,.47-1.75,2.94,2.94,0,0,1,1.25-1.19,3.94,3.94,0,0,1,1.94-.38l4.9.15L119,60.67l-4.63-.15a2.45,2.45,0,0,0-1.74.51,2,2,0,0,0-.64,1.5,2,2,0,0,0,.55,1.56,2.41,2.41,0,0,0,1.69.62l4.64.14Z"/><path class="cls-1" d="M117.5,73a3,3,0,0,1,.07,1.53l-1.75-.34.08-.43a2.11,2.11,0,0,0-.21-1.61A2.48,2.48,0,0,0,114,71.3l-4.3-.84.33-1.69,8.17,1.59-.33,1.69-1.19-.23A2.66,2.66,0,0,1,117.5,73Z"/><path class="cls-1" d="M107.48,87.11l2.7-5.77a2.31,2.31,0,0,0-1.77,0,2.36,2.36,0,0,0-1.24,1.23,2,2,0,0,0,.23,2.27l-.79,1.68a3.77,3.77,0,0,1-1.13-2,4.08,4.08,0,0,1,.38-2.54,4.29,4.29,0,0,1,1.39-1.71,3.83,3.83,0,0,1,2-.7,4.64,4.64,0,0,1,2.27.47,4.74,4.74,0,0,1,1.83,1.43,3.72,3.72,0,0,1,.74,2,4.46,4.46,0,0,1-.44,2.19,4.3,4.3,0,0,1-1.35,1.69,3.67,3.67,0,0,1-1.92.69,4.42,4.42,0,0,1-2.15-.44A5.74,5.74,0,0,1,107.48,87.11Zm2-1a2,2,0,0,0,1.67,0,2.48,2.48,0,0,0,1.22-1.25,2.23,2.23,0,0,0,.13-1.62,2.36,2.36,0,0,0-1.07-1.34Z"/><path class="cls-1" d="M102.64,90.74l4.15,5.87-1.07,1.48-4.92-7.42L102,89l8.61,2.27-1.07,1.5Z"/><path class="cls-1" d="M94.92,102.12l4.59-4.41a2.31,2.31,0,0,0-3.24.05,2,2,0,0,0-.61,2.2l-1.34,1.29A3.71,3.71,0,0,1,94,99a4,4,0,0,1,1.26-2.23,4.3,4.3,0,0,1,1.92-1.1,3.79,3.79,0,0,1,2.11.06,4.55,4.55,0,0,1,1.95,1.26,4.67,4.67,0,0,1,1.19,2,3.66,3.66,0,0,1,0,2.1,4.32,4.32,0,0,1-1.2,1.88A4.18,4.18,0,0,1,99.35,104a3.6,3.6,0,0,1-2,0,4.18,4.18,0,0,1-1.85-1.18A6,6,0,0,1,94.92,102.12Zm2.22-.21a1.94,1.94,0,0,0,1.55.63,2.39,2.39,0,0,0,1.58-.73,2.19,2.19,0,0,0,.71-1.46,2.37,2.37,0,0,0-.52-1.63Z"/><path class="cls-1" d="M90.34,110.73a2.9,2.9,0,0,1-1.67-.36A3.91,3.91,0,0,1,87.25,109l-2.66-4.13,1.43-.92,2.52,3.91a2.44,2.44,0,0,0,1.4,1.14,2,2,0,0,0,1.61-.33,2,2,0,0,0,1-1.33,2.39,2.39,0,0,0-.46-1.75l-2.52-3.91,1.45-.93,4.51,7-1.45.93-.51-.8a2.8,2.8,0,0,1-.48,1.26,3.36,3.36,0,0,1-1,1A3.85,3.85,0,0,1,90.34,110.73Z"/><path class="cls-1" d="M83.35,113l-1.85-4.22a.93.93,0,0,0-.47-.53,1.15,1.15,0,0,0-.77.12l-1,.42-.58-1.31L80,106.9a2.66,2.66,0,0,1,1.85-.22,2.29,2.29,0,0,1,1.28,1.37l1.85,4.22.9-.39.56,1.29-.9.39.83,1.9-1.59.69-.83-1.89-1.85.81-.57-1.28Z"/><path class="cls-1" d="M75.81,108.66a3.11,3.11,0,0,1,1.44.6,2.38,2.38,0,0,1,.83,1.19l-1.72.47a1.18,1.18,0,0,0-.72-.71,1.84,1.84,0,0,0-1.21,0,2,2,0,0,0-1,.57.83.83,0,0,0-.19.8.73.73,0,0,0,.61.55,8.63,8.63,0,0,0,1.49.11,12.25,12.25,0,0,1,1.61.07,2.74,2.74,0,0,1,1.18.44,2,2,0,0,1,.76,1.16,2,2,0,0,1,0,1.27,2.58,2.58,0,0,1-.86,1.14,4.26,4.26,0,0,1-1.54.75A3.43,3.43,0,0,1,74,117a2.59,2.59,0,0,1-1.41-1.64l1.66-.46a1.23,1.23,0,0,0,.67.74,2.08,2.08,0,0,0,2.09-.5.77.77,0,0,0,.17-.75.72.72,0,0,0-.38-.47,1.63,1.63,0,0,0-.66-.19c-.25,0-.61,0-1.08,0a10,10,0,0,1-1.56-.08,2.65,2.65,0,0,1-1.17-.44A1.9,1.9,0,0,1,71.6,112a2.16,2.16,0,0,1,0-1.33,2.65,2.65,0,0,1,.84-1.14,4.1,4.1,0,0,1,1.54-.75A4.25,4.25,0,0,1,75.81,108.66Z"/><path class="cls-1" d="M60.34,110.88a1.06,1.06,0,0,1,.29.79,1.08,1.08,0,0,1-.34.78,1.06,1.06,0,0,1-.79.29,1,1,0,0,1-.76-.33,1.07,1.07,0,0,1-.3-.8,1.08,1.08,0,0,1,.34-.78,1.07,1.07,0,0,1,.78-.29A1.08,1.08,0,0,1,60.34,110.88Z"/><path class="cls-1" d="M46.32,109a3.8,3.8,0,0,1,.9,1.92,4.92,4.92,0,0,1-1.51,4.25,3.85,3.85,0,0,1-1.94.92,4.67,4.67,0,0,1-4.08-1.44,3.94,3.94,0,0,1-.94-1.93,4.53,4.53,0,0,1,.23-2.31,4.34,4.34,0,0,1,1.29-1.93,4,4,0,0,1,2-.92,4.56,4.56,0,0,1,2.24.23A4.23,4.23,0,0,1,46.32,109Zm-3.61.08a2.39,2.39,0,0,0-1.21.58,3.17,3.17,0,0,0-.86,1.34,3.12,3.12,0,0,0-.18,1.56,2.31,2.31,0,0,0,.56,1.2,2.58,2.58,0,0,0,1.06.71,2.47,2.47,0,0,0,1.26.11,2.33,2.33,0,0,0,1.17-.59,3.32,3.32,0,0,0,.82-1.34,3,3,0,0,0,.05-2.19A2.29,2.29,0,0,0,44,109.15,2.55,2.55,0,0,0,42.71,109Z"/><path class="cls-1" d="M28,108.87l4.27-7.15,1.48.89-.5.84a2.88,2.88,0,0,1,1.32-.15,3.3,3.3,0,0,1,1.35.47A3.67,3.67,0,0,1,37.19,105a3,3,0,0,1,.43,1.66,3.89,3.89,0,0,1-.61,1.89l-2.51,4.21L33,111.9l2.38-4a2.41,2.41,0,0,0,.4-1.76,2.24,2.24,0,0,0-2.63-1.57,2.41,2.41,0,0,0-1.36,1.18l-2.38,4Z"/><path class="cls-1" d="M23,104.61a3,3,0,0,1-1.37-.69l1.15-1.36.33.28a2.13,2.13,0,0,0,1.51.6,2.49,2.49,0,0,0,1.54-1L29,99.05l1.32,1.11L25,106.53l-1.32-1.1.78-.93A2.68,2.68,0,0,1,23,104.61Z"/><path class="cls-1" d="M15.5,89l3.75,5.14a2.33,2.33,0,0,0,.86-1.54,2.37,2.37,0,0,0-.48-1.68,2,2,0,0,0-2.09-.9l-1.1-1.5a3.78,3.78,0,0,1,2.33,0,4.09,4.09,0,0,1,2,1.56,4.18,4.18,0,0,1,.82,2,3.79,3.79,0,0,1-.34,2.09A4.65,4.65,0,0,1,19.78,96a4.7,4.7,0,0,1-2.14.91,3.66,3.66,0,0,1-2.07-.3,4.33,4.33,0,0,1-1.71-1.44,4.19,4.19,0,0,1-.82-2,3.57,3.57,0,0,1,.32-2,4.32,4.32,0,0,1,1.42-1.67A4.2,4.2,0,0,1,15.5,89Zm-.1,2.22a2,2,0,0,0-.83,1.45,2.41,2.41,0,0,0,.51,1.67,2.21,2.21,0,0,0,1.35.9A2.4,2.4,0,0,0,18.12,95Z"/><path class="cls-1" d="M14.65,83l-7.13.79-.79-1.64,8.88-.73.88,1.85-6.15,6.44-.79-1.66Z"/><path class="cls-1" d="M8.44,70.82,10.09,77a2.26,2.26,0,0,0,1.35-1.13,2.34,2.34,0,0,0,.17-1.73A2,2,0,0,0,10,72.5l-.48-1.79a3.75,3.75,0,0,1,2.18.83A4.06,4.06,0,0,1,13,73.73a4.33,4.33,0,0,1,0,2.2A3.75,3.75,0,0,1,12,77.75a4.57,4.57,0,0,1-2,1.1,4.72,4.72,0,0,1-2.32.08,3.64,3.64,0,0,1-1.83-1A4.36,4.36,0,0,1,4.7,76a4.21,4.21,0,0,1,0-2.17,3.58,3.58,0,0,1,1-1.75,4.26,4.26,0,0,1,1.93-1A4.81,4.81,0,0,1,8.44,70.82Zm-.89,2a2,2,0,0,0-1.3,1,2.45,2.45,0,0,0-.13,1.74A2.2,2.2,0,0,0,7.06,77a2.39,2.39,0,0,0,1.68.34Z"/><path class="cls-1" d="M3.14,62.59A2.9,2.9,0,0,1,4.26,61.3a4.09,4.09,0,0,1,1.9-.56l4.9-.32.11,1.7-4.64.31a2.36,2.36,0,0,0-1.67.67,2,2,0,0,0-.5,1.56,2,2,0,0,0,.7,1.49,2.39,2.39,0,0,0,1.75.45l4.64-.3L11.56,68l-8.31.55-.11-1.72.95-.06a2.84,2.84,0,0,1-.87-1,3.54,3.54,0,0,1-.38-1.37A3.78,3.78,0,0,1,3.14,62.59Z"/><path class="cls-1" d="M4.55,55.41l4.59.42a.89.89,0,0,0,.69-.16,1.08,1.08,0,0,0,.27-.73l.1-1,1.43.13-.13,1.35a2.61,2.61,0,0,1-.7,1.73A2.25,2.25,0,0,1,9,57.56l-4.59-.42-.08,1L2.91,58,3,57,.93,56.82l.16-1.73,2.06.19.19-2,1.4.13Z"/><path class="cls-1" d="M12,50.92a3.07,3.07,0,0,1-1.23,1,2.46,2.46,0,0,1-1.44.16l.41-1.74a1.21,1.21,0,0,0,1-.29,1.84,1.84,0,0,0,.61-1,2,2,0,0,0,0-1.16.83.83,0,0,0-.6-.55.71.71,0,0,0-.78.27,7.86,7.86,0,0,0-.82,1.26,13.35,13.35,0,0,1-.84,1.37,2.61,2.61,0,0,1-1,.82,1.94,1.94,0,0,1-1.38.11,2,2,0,0,1-1.09-.66,2.65,2.65,0,0,1-.59-1.3,4.37,4.37,0,0,1,.08-1.71,3.48,3.48,0,0,1,1.23-2.06,2.6,2.6,0,0,1,2.12-.45l-.4,1.67a1.23,1.23,0,0,0-1,.24,1.68,1.68,0,0,0-.58,1,1.86,1.86,0,0,0,0,1.08.81.81,0,0,0,.58.51.76.76,0,0,0,.6-.11,1.73,1.73,0,0,0,.48-.49c.14-.2.32-.51.55-.92a12.06,12.06,0,0,1,.83-1.34,2.6,2.6,0,0,1,.94-.8,1.9,1.9,0,0,1,1.35-.13,2.17,2.17,0,0,1,1.15.67,2.57,2.57,0,0,1,.59,1.29,4,4,0,0,1-.08,1.71A4.15,4.15,0,0,1,12,50.92Z"/><path class="cls-1" d="M18.5,35.27a1.09,1.09,0,0,1-.84-.13,1.07,1.07,0,0,1-.51-.67,1.08,1.08,0,0,1,.12-.84,1.06,1.06,0,0,1,.67-.5,1,1,0,0,1,.84.12,1.06,1.06,0,0,1,.51.67,1,1,0,0,1-.12.83A1.06,1.06,0,0,1,18.5,35.27Z"/></svg>