<svg width="14" height="12" viewBox="0 0 14 12" fill="none" xmlns="http://www.w3.org/2000/svg">
<path d="M14 1.42049C13.4853 1.66179 12.9315 1.82455 12.3503 1.89739C12.9437 1.52271 13.3987 0.92921 13.6132 0.221212C13.0582 0.568617 12.4438 0.820702 11.7893 0.956787C11.2655 0.368087 10.519 0 9.69283 0C8.10677 0 6.82082 1.35635 6.82082 3.02952C6.82082 3.26662 6.84611 3.49773 6.89528 3.71984C4.50809 3.59335 2.39145 2.38747 0.974768 0.554528C0.727524 1.00175 0.585998 1.52211 0.585998 2.07783C0.585998 3.12874 1.09299 4.05615 1.86371 4.59929C1.39309 4.5834 0.950044 4.44702 0.562694 4.22011C0.56241 4.2327 0.56241 4.24559 0.56241 4.25848C0.56241 5.72603 1.55252 6.95019 2.86661 7.22896C2.62562 7.2979 2.37184 7.33507 2.10982 7.33507C1.92453 7.33507 1.74464 7.31618 1.56929 7.28051C1.93504 8.48399 2.99564 9.36014 4.25232 9.38442C3.26931 10.197 2.0311 10.6814 0.68518 10.6814C0.453566 10.6814 0.224793 10.667 0 10.6389C1.27146 11.4988 2.78107 12 4.40294 12C9.6863 12 12.5751 7.38392 12.5751 3.38053C12.5751 3.24924 12.5725 3.11825 12.5671 2.98816C13.1281 2.56192 13.6152 2.02808 14 1.42049Z" fill="black"/>
</svg>
