<svg width="32" height="32" viewBox="0 0 32 32" fill="none" xmlns="http://www.w3.org/2000/svg">
<g opacity="0.65">
<path d="M1.66088 27.0251L13.9258 5.05639C14.6802 3.70509 16.6177 3.68591 17.3987 5.022L30.2409 26.9907C31.0203 28.324 30.0586 30 28.5142 30H3.40717C1.88035 30 0.916611 28.3582 1.66088 27.0251Z" stroke="#737F94" stroke-width="1.06925"/>
<ellipse cx="17.4687" cy="13.4687" rx="1.46873" ry="1.46873" fill="#737F94"/>
<path d="M10.8052 18L11.5 15.5H15.5M15.5 15.5L18 21M15.5 15.5L12.5551 20.5381M12.5551 20.5381L12.77 23.9491L9.08594 27.4491M12.5551 20.5381L16.3313 23.9491V27.4491" stroke="#737F94" stroke-width="1.3" stroke-linecap="round" stroke-linejoin="round"/>
<path d="M11 17.5L24 24.5" stroke="#737F94"/>
<path d="M22.5 20.5L26 26.5H19L22.5 20.5Z" fill="#737F94"/>
</g>
</svg>
