<svg width="14" height="13" viewBox="0 0 14 13" fill="none" xmlns="http://www.w3.org/2000/svg">
<path d="M0 3.3241L0.568596 4.06978C0.568596 4.06978 1.74143 3.1456 2.13237 3.60755C2.52332 4.06978 4.01525 9.64909 4.5134 10.6788C4.9482 11.5817 6.14762 12.7758 7.46275 11.9226C8.77702 11.07 13.1481 7.3385 13.9303 2.9323C14.7122 -1.47332 8.67038 -0.550839 8.03106 3.28761C9.62992 2.32722 10.4839 3.67799 9.66556 5.20669C8.84831 6.73397 8.10206 7.73029 7.7114 7.73029C7.3213 7.73029 7.02088 6.70852 6.57393 4.92182C6.11141 3.0746 6.11452 -0.252396 4.19318 0.124687C2.38103 0.480271 0 3.3241 0 3.3241Z" fill="#F6F6F7"/>
</svg>
