<svg width="14" height="17" viewBox="0 0 14 17" fill="none" xmlns="http://www.w3.org/2000/svg">
<path d="M13.9335 0.161298C13.8086 -0.0340125 13.5579 0.000783853 12.6283 0.00507155C12.0705 0.00771013 11.5298 -0.00663716 11.2566 0.00847972C11.0113 0.0220574 10.8345 0.147335 10.6933 0.320547L10.2363 1.13026L8.25117 4.64832C7.24345 6.4143 6.23051 8.17973 5.31641 9.84924L8.06977 14.8461L8.83859 16.2414C8.91824 16.3793 9.00312 16.4001 9.08948 16.4267C9.48823 16.5495 10.071 16.5138 10.7011 16.5138C11.2362 16.5138 11.9317 16.5235 12.0464 16.2738C12.1037 16.1488 12.0535 15.9811 11.9738 15.8127C11.9738 15.8127 11.5332 15.018 10.9558 13.9685C11.2239 14.4531 11.4939 14.9401 11.7656 15.4309L8.70672 9.82357C8.77565 9.95479 8.84535 10.0856 8.91478 10.2165C8.84057 10.0772 8.77081 9.94544 8.70672 9.82357L11.0228 5.70518C11.8261 4.29162 12.6317 2.87481 13.4208 1.44096L13.4238 1.43562L13.4246 1.43436C13.4243 1.43469 13.4242 1.43502 13.424 1.43529L13.9613 0.479852C14.035 0.327803 13.9899 0.249635 13.9335 0.161298Z" fill="#F6F6F7"/>
<path d="M4.50028 4.08687C4.29853 3.73544 4.1461 3.27726 3.68457 3.271C2.86881 3.271 2.05272 3.271 1.23701 3.271C1.10349 3.29013 0.983706 3.32371 0.956551 3.44943C0.912904 3.71433 1.1385 4.07818 1.26285 4.29103C1.5521 4.78785 2.57043 6.4064 2.56262 6.58533C2.55756 6.70528 0.962048 9.42917 0.268486 10.6644C0.165306 10.8478 -0.0563895 11.1783 0.013313 11.3272C0.0862588 11.4831 0.231106 11.5412 0.319169 11.5313C1.14351 11.5313 1.96801 11.5313 2.79245 11.5313C3.29769 11.4698 3.32011 11.2025 3.78637 10.3584C4.50017 9.06631 5.26118 7.7534 5.92808 6.55982C5.51585 5.79387 4.9678 4.90131 4.50028 4.08687Z" fill="#F6F6F7"/>
</svg>
